<svg id="Average" xmlns="http://www.w3.org/2000/svg" viewBox="0 0 1920 1080"><defs><style>.cls-1{fill:#39baf9;}.cls-2{fill:#1f398e;}.cls-3{isolation:isolate;}.cls-4{fill:#1651da;}.cls-12,.cls-16,.cls-5{fill:#4180e2;}.cls-6{fill:#ffcf4d;}.cls-7{fill:#d7e9ff;}.cls-8{fill:#99c0f0;}.cls-9{fill:#fff;}.cls-10,.cls-12{font-size:45.91px;}.cls-10,.cls-11{fill:#edf4ff;}.cls-10,.cls-12,.cls-16{font-family:OpenSans-Bold, Open Sans;font-weight:700;}.cls-13{fill:#cbecf5;}.cls-14,.cls-15{fill:none;stroke:#4180e2;stroke-miterlimit:10;}.cls-14{stroke-width:5px;}.cls-15{stroke-width:2.35px;}.cls-16{font-size:26.33px;}</style></defs><rect class="cls-1" width="1920" height="1080"/><polygon class="cls-2" points="0 704.02 691.72 302.92 1920 994.06 1920 1080 0 1080 0 704.02"/><g class="cls-3"><path class="cls-4" d="M322.87,279.5l2.87-1.67c3-1.72,7.1-1.48,11.64,1.15l-2.86,1.66C330,278,325.85,277.77,322.87,279.5Z"/><polygon class="cls-4" points="480.54 448.5 483.41 446.83 484.87 450 482 451.67 480.54 448.5"/><polygon class="cls-4" points="480.54 448.5 483.41 446.83 492.7 452.03 489.83 453.7 480.54 448.5"/><polygon class="cls-4" points="497.65 460.7 500.52 459.03 492.66 466.91 489.79 468.58 497.65 460.7"/><polygon class="cls-4" points="489.83 453.7 492.7 452.03 501.99 457.56 499.12 459.23 489.83 453.7"/><polygon class="cls-4" points="499.12 459.23 501.99 457.56 500.52 459.03 497.65 460.7 499.12 459.23"/><polygon class="cls-5" points="489.83 453.7 499.12 459.23 497.65 460.7 489.79 468.58 482 451.67 480.54 448.5 489.83 453.7"/><path class="cls-4" d="M513.63,461l-2.87,1.67c2.94-1.71,4.76-5.34,4.78-10.5l2.87-1.67C518.39,455.68,516.57,459.31,513.63,461Z"/><polygon class="cls-4" points="515.68 404.07 518.54 402.41 518.41 450.52 515.54 452.19 515.68 404.07"/><polygon class="cls-4" points="334.52 280.64 337.38 278.98 502.23 374.15 499.36 375.82 334.52 280.64"/><path class="cls-5" d="M499.36,375.82c9,5.22,16.34,17.87,16.32,28.25l-.14,48.12c0,10.39-7.38,14.58-16.42,9.36l-1.47-.85,1.47-1.47-9.29-5.53-9.29-5.2,1.46,3.17-147.73-85.3c-9-5.21-16.34-17.87-16.31-28.25L318.1,290c0-10.39,7.38-14.58,16.42-9.36Z"/><path class="cls-4" d="M499.36,375.82l2.87-1.67c9,5.22,16.34,17.87,16.31,28.26l-2.86,1.66C515.7,393.69,508.4,381,499.36,375.82Z"/></g><polygon class="cls-6" points="394.13 327.1 396.63 337.36 404.71 342.02 398.17 343.69 400.67 353.94 394.13 344.72 387.6 346.39 390.09 339.02 383.56 329.81 391.64 334.47 394.13 327.1"/><polygon class="cls-6" points="417.03 340.32 419.53 350.58 427.61 355.24 421.07 356.91 423.57 367.16 417.03 357.94 410.5 359.62 412.99 352.25 406.46 343.03 414.54 347.69 417.03 340.32"/><polygon class="cls-6" points="439.93 353.55 442.43 363.8 450.51 368.46 443.97 370.13 446.47 380.38 439.93 371.17 433.4 372.84 435.89 365.47 429.36 356.25 437.44 360.91 439.93 353.55"/><polygon class="cls-6" points="462.83 366.77 465.33 377.02 473.41 381.68 466.87 383.36 469.37 393.61 462.83 384.39 456.3 386.06 458.79 378.69 452.26 369.47 460.34 374.14 462.83 366.77"/><polygon class="cls-6" points="485.73 379.99 488.23 390.24 496.31 394.91 489.77 396.58 492.27 406.83 485.73 397.61 479.2 399.28 481.69 391.91 475.16 382.69 483.24 387.36 485.73 379.99"/><ellipse class="cls-7" cx="352" cy="335.09" rx="21.85" ry="37.85" transform="translate(-121.09 223.87) rotate(-30.36)"/><ellipse class="cls-5" cx="352" cy="346.22" rx="10.93" ry="23.49" transform="translate(-139.85 389.3) rotate(-49.53)"/><path class="cls-5" d="M359.77,324c0,4.92-3.48,6.9-7.77,4.42s-7.76-8.47-7.76-13.39,3.47-6.9,7.76-4.42S359.77,319.07,359.77,324Z"/><path class="cls-7" d="M463.65,407.79,390.39,365.5a5.45,5.45,0,0,1-2.28-4.35h0c0-1.67,1-2.44,2.28-1.71l73.26,42.29a5.46,5.46,0,0,1,2.27,4.34h0C465.92,407.75,464.9,408.52,463.65,407.79Z"/><path class="cls-7" d="M493.78,436,390.39,376.27a5.45,5.45,0,0,1-2.28-4.35h0c0-1.67,1-2.44,2.28-1.71L493.78,429.9a5.45,5.45,0,0,1,2.27,4.34h0C496.05,435.91,495,436.68,493.78,436Z"/><path class="cls-5" d="M1388.6,408.13,965.87,164.07a17,17,0,0,0-14.32-1.75l0,0-.76.29-.19.07-15.28,5.85,13.71,6.71c-.06.25-.14.49-.19.75l-74.7,339.68c-3.44,15.68,3.46,34,15.42,40.9l412.56,238.19-1.48,17.48,16.7-6.47c5.61-2.62,10.1-8.55,12-17L1404,449C1407.46,433.35,1400.56,415,1388.6,408.13Z"/><path class="cls-5" d="M1388.6,408.13,965.87,164.07a17,17,0,0,0-14.32-1.75l0,0-.76.29-.19.07-15.28,5.85,13.71,6.71c-.06.25-.14.49-.19.75L897.64,408.76,1104.47,569.9,1402,425C1399.15,417.72,1394.49,411.54,1388.6,408.13Z"/><path class="cls-8" d="M1372.66,456.31l32.18-13.7c.59-12.46-4.57-25.33-13-32.22l-50.94,21.43Z"/><path class="cls-5" d="M1286,810.53,863.25,566.47c-12-6.9-18.86-25.22-15.41-40.9l74.69-339.68c3.45-15.69,15.93-22.8,27.89-15.9l422.73,244.06c12,6.91,18.86,25.22,15.41,40.9l-74.69,339.68C1310.42,810.32,1297.94,817.44,1286,810.53Z"/><path class="cls-9" d="M1377.21,412.57,954.48,168.51c-5.79-3.35-11.69-3.34-16.64-.73A17.36,17.36,0,0,1,950.42,170l422.73,244.06c12,6.91,18.86,25.22,15.41,40.9l-74.69,339.68c-1.78,8.09-6,13.84-11.25,16.62,7.14-1.56,13.1-8,15.31-18.1l74.69-339.68C1396.07,437.78,1389.17,419.47,1377.21,412.57Z"/><path class="cls-9" d="M1276.82,787.22,879.25,557.8c-10.94-6.32-17.26-23.08-14.11-37.43L934,207.3c3.15-14.35,14.58-20.86,25.52-14.55l397.57,229.43c10.94,6.31,17.26,23.07,14.11,37.43l-68.85,313.06C1299.19,787,1287.76,793.54,1276.82,787.22Z"/><path class="cls-7" d="M1281,785.81,883.39,556.39c-10.94-6.32-17.26-23.08-14.1-37.43l68.84-313.07c3.16-14.35,14.58-20.86,25.53-14.55l397.56,229.43c11,6.31,17.26,23.07,14.11,37.43l-68.85,313.06C1303.33,785.61,1291.9,792.13,1281,785.81Z"/><path class="cls-5" d="M1280.28,785.81,882.71,556.39c-10.94-6.32-17.25-23.08-14.1-37.43l68.85-313.07c1.59-7.26,5.31-12.49,10-15.09-6.3,1.62-11.51,7.53-13.48,16.5L865.14,520.37c-3.15,14.35,3.17,31.11,14.11,37.43l397.57,229.42c5.4,3.12,10.92,3.09,15.5.55A15.91,15.91,0,0,1,1280.28,785.81Z"/><path class="cls-5" d="M1291.82,821.16,1234,813.53,861,598.18c-12-6.91-32.85-6-46.66,1.93L550.06,752.65,515.12,748v19.83h0c-.23,4.58,2.38,9,8,12.25L945.9,1024.18c12,6.9,32.85,6,46.66-1.94L1280.4,856.11c7.77-4.48,11.64-10.26,11.42-15.69h0Z"/><path class="cls-5" d="M1011.55,685.08l-26.5-15.3H693.69L550.06,752.65,515.12,748v19.83h0c-.23,4.58,2.38,9,8,12.25L945.9,1024.18c6.32,3.65,15.14,5.1,24.08,4.51Z"/><path class="cls-8" d="M530.62,750.09,515.12,748v19.83h0c-.23,4.58,2.38,9,8,12.25l7.45,4.3Z"/><path class="cls-8" d="M950.16,1026.16c11.33,4.29,27.54,3.36,39.64-2.47V979.47H950.16Z"/><path class="cls-7" d="M945.9,1004.38,523.17,760.31c-11.95-6.9-10.45-19,3.35-26.93L814.37,567.25c13.81-8,34.7-8.84,46.66-1.94l422.72,244.06c12,6.91,10.46,19-3.35,26.94L992.56,1002.44C978.75,1010.41,957.86,1011.28,945.9,1004.38Z"/><path class="cls-9" d="M1280.4,829.07,992.56,995.2c-13.81,8-34.7,8.84-46.66,1.94L523.17,753.07c-3.92-2.26-6.36-5.08-7.43-8.13-1.87,5.66.52,11.38,7.91,15.65l422.73,244.06c11.48,6.63,32.37,5.76,46.18-2.21L1280.4,836.31c9.28-5.36,13-12.56,10.79-18.8C1289.82,821.63,1286.22,825.71,1280.4,829.07Z"/><path class="cls-5" d="M680,688.75l-19.13-11c-1.53-.89-1.34-2.44.43-3.46l22.58-13a6.69,6.69,0,0,1,6-.25L709,672c1.53.88,1.34,2.43-.43,3.46L686,688.5A6.69,6.69,0,0,1,680,688.75Z"/><path class="cls-5" d="M709.52,705.8l-19.13-11c-1.54-.89-1.34-2.44.43-3.46l22.58-13a6.66,6.66,0,0,1,6-.24l19.12,11c1.54.89,1.35,2.43-.43,3.46l-22.57,13A6.63,6.63,0,0,1,709.52,705.8Z"/><path class="cls-5" d="M739.05,722.85l-19.12-11c-1.54-.88-1.35-2.43.43-3.46l22.57-13a6.63,6.63,0,0,1,6-.25l19.13,11c1.54.89,1.34,2.44-.43,3.46l-22.58,13A6.66,6.66,0,0,1,739.05,722.85Z"/><path class="cls-5" d="M779.9,708.77l-19.12-11c-1.54-.89-1.34-2.44.43-3.46l18.95-10.94a6.63,6.63,0,0,1,6-.25l19.13,11c1.53.89,1.34,2.44-.43,3.46l-19,10.94A6.65,6.65,0,0,1,779.9,708.77Z"/><path class="cls-5" d="M809.44,725.82l-19.12-11c-1.54-.88-1.35-2.43.43-3.46l19-10.94a6.69,6.69,0,0,1,6-.25l19.13,11c1.53.88,1.34,2.43-.43,3.45l-19,11A6.66,6.66,0,0,1,809.44,725.82Z"/><path class="cls-5" d="M839,742.88l-19.13-11c-1.53-.89-1.34-2.44.43-3.46l19-11a6.68,6.68,0,0,1,6-.24l19.12,11c1.54.89,1.35,2.43-.43,3.46L845,742.63A6.69,6.69,0,0,1,839,742.88Z"/><path class="cls-5" d="M868.52,759.93l-19.13-11c-1.53-.89-1.34-2.44.43-3.46l18.95-10.94a6.63,6.63,0,0,1,6-.25l19.13,11c1.54.89,1.34,2.44-.43,3.46l-19,10.94A6.63,6.63,0,0,1,868.52,759.93Z"/><path class="cls-5" d="M898.05,777l-19.12-11c-1.54-.88-1.35-2.43.43-3.46l18.95-10.94a6.69,6.69,0,0,1,6-.25l19.13,11.05c1.53.88,1.34,2.43-.43,3.45l-19,11A6.71,6.71,0,0,1,898.05,777Z"/><path class="cls-5" d="M927.59,794l-19.12-11c-1.54-.89-1.35-2.44.43-3.46l19-10.95a6.66,6.66,0,0,1,6-.24l19.13,11c1.53.89,1.34,2.43-.44,3.46l-18.95,10.94A6.66,6.66,0,0,1,927.59,794Z"/><path class="cls-5" d="M957.13,811.09l-19.13-11c-1.53-.89-1.34-2.44.43-3.46l19-10.94a6.65,6.65,0,0,1,6-.25l19.12,11c1.54.89,1.35,2.44-.43,3.46l-19,10.94A6.63,6.63,0,0,1,957.13,811.09Z"/><path class="cls-5" d="M986.67,828.15l-19.13-11c-1.54-.88-1.34-2.43.43-3.46l18.95-10.94a6.69,6.69,0,0,1,6-.25l19.13,11c1.54.88,1.34,2.43-.43,3.45l-19,10.95A6.69,6.69,0,0,1,986.67,828.15Z"/><path class="cls-5" d="M1016.2,845.2l-19.12-11c-1.54-.89-1.35-2.44.43-3.46l19-10.94a6.63,6.63,0,0,1,6-.25l19.13,11c1.53.89,1.34,2.43-.43,3.46l-19,10.94A6.68,6.68,0,0,1,1016.2,845.2Z"/><path class="cls-5" d="M1045.74,862.25l-19.13-11c-1.53-.89-1.34-2.44.44-3.46l19-10.94a6.63,6.63,0,0,1,6-.25l19.12,11c1.54.89,1.35,2.44-.43,3.46l-19,10.94A6.63,6.63,0,0,1,1045.74,862.25Z"/><path class="cls-5" d="M823.43,700.7,804.3,689.65c-1.54-.88-1.34-2.43.43-3.45l18.95-11a6.66,6.66,0,0,1,6-.24l19.13,11c1.54.89,1.34,2.43-.43,3.46l-19,10.94A6.69,6.69,0,0,1,823.43,700.7Z"/><path class="cls-5" d="M793.45,683.39l-19.13-11c-1.53-.89-1.34-2.44.43-3.46l19-10.94a6.63,6.63,0,0,1,6-.25l19.13,11c1.54.89,1.34,2.44-.43,3.46l-18.95,10.94A6.63,6.63,0,0,1,793.45,683.39Z"/><path class="cls-5" d="M763.42,666.05l-41.19-23.78c-1.54-.89-1.35-2.44.43-3.46l19-10.94a6.66,6.66,0,0,1,6-.25l41.19,23.78c1.54.89,1.35,2.44-.43,3.46l-19,10.94A6.63,6.63,0,0,1,763.42,666.05Z"/><path class="cls-5" d="M784.41,645,751,625.67c-1.54-.89-1.34-2.44.43-3.46l19-10.94a6.66,6.66,0,0,1,6-.25l33.43,19.3c1.54.89,1.35,2.44-.43,3.46l-19,10.94A6.63,6.63,0,0,1,784.41,645Z"/><path class="cls-5" d="M853,717.75l-19.12-11c-1.54-.89-1.35-2.44.43-3.46l19-10.94a6.63,6.63,0,0,1,6-.25l19.13,11c1.53.89,1.34,2.44-.43,3.46L859,717.5A6.65,6.65,0,0,1,853,717.75Z"/><path class="cls-5" d="M882.5,734.8l-19.13-11c-1.53-.88-1.34-2.43.43-3.46l19-10.94a6.69,6.69,0,0,1,6-.25l19.12,11c1.54.89,1.35,2.44-.43,3.46l-19,10.95A6.66,6.66,0,0,1,882.5,734.8Z"/><path class="cls-5" d="M912,751.86l-19.13-11.05c-1.53-.88-1.34-2.43.43-3.45l18.95-11a6.68,6.68,0,0,1,6-.24l19.12,11c1.54.89,1.34,2.43-.43,3.46l-19,10.94A6.69,6.69,0,0,1,912,751.86Z"/><path class="cls-5" d="M941.58,768.91l-19.13-11c-1.54-.89-1.34-2.44.43-3.46l19-10.94a6.63,6.63,0,0,1,6-.25l19.13,11c1.53.89,1.34,2.44-.43,3.46l-18.95,10.94A6.63,6.63,0,0,1,941.58,768.91Z"/><path class="cls-5" d="M971.11,786l-19.12-11c-1.54-.88-1.35-2.43.43-3.46l19-10.94a6.69,6.69,0,0,1,6-.25l19.13,11.05c1.53.88,1.34,2.43-.43,3.45l-19,11A6.66,6.66,0,0,1,971.11,786Z"/><path class="cls-5" d="M1000.65,803l-19.13-11c-1.53-.89-1.34-2.44.43-3.46l19-10.95a6.66,6.66,0,0,1,6-.24l19.12,11c1.54.89,1.35,2.43-.43,3.46l-18.95,10.94A6.69,6.69,0,0,1,1000.65,803Z"/><path class="cls-5" d="M1030.19,820.07l-19.13-11c-1.53-.89-1.34-2.44.43-3.46l19-10.94a6.63,6.63,0,0,1,6-.25l19.13,11c1.54.89,1.34,2.44-.43,3.46l-19,10.94A6.63,6.63,0,0,1,1030.19,820.07Z"/><path class="cls-5" d="M1059.73,837.13l-19.13-11c-1.54-.88-1.34-2.43.43-3.46l19-10.94a6.69,6.69,0,0,1,6-.25l19.13,11.05c1.53.88,1.34,2.43-.43,3.45l-19,11A6.69,6.69,0,0,1,1059.73,837.13Z"/><path class="cls-5" d="M1089.26,854.18l-19.12-11c-1.54-.89-1.35-2.44.43-3.46l19-10.95a6.66,6.66,0,0,1,6-.24l19.13,11c1.53.89,1.34,2.43-.43,3.46l-19,10.94A6.69,6.69,0,0,1,1089.26,854.18Z"/><path class="cls-5" d="M1141.77,884.5,1100,860.4c-1.53-.89-1.34-2.43.43-3.46l19-10.94a6.69,6.69,0,0,1,6-.25l41.74,24.1c1.53.88,1.34,2.43-.43,3.46l-19,10.94A6.71,6.71,0,0,1,1141.77,884.5Z"/><path class="cls-5" d="M1199.28,851.29,1164.06,831c-1.54-.89-1.35-2.44.43-3.46l19-10.94a6.63,6.63,0,0,1,6-.25l35.22,20.34c1.54.88,1.35,2.43-.43,3.45l-19,10.95A6.66,6.66,0,0,1,1199.28,851.29Z"/><path class="cls-5" d="M904.69,714.41l-19.13-11c-1.53-.88-1.34-2.43.43-3.46L905,689a6.69,6.69,0,0,1,6-.25l19.12,11c1.54.89,1.35,2.44-.43,3.46l-19,10.95A6.66,6.66,0,0,1,904.69,714.41Z"/><path class="cls-5" d="M874.42,696.94l-19.13-11.05c-1.53-.88-1.34-2.43.43-3.46l18.95-10.94a6.69,6.69,0,0,1,6-.25l19.13,11c1.54.88,1.34,2.43-.43,3.46l-19,10.94A6.69,6.69,0,0,1,874.42,696.94Z"/><path class="cls-5" d="M844.15,679.46l-19.13-11c-1.54-.89-1.34-2.44.43-3.46L844.4,654a6.63,6.63,0,0,1,6-.25l19.13,11c1.53.89,1.34,2.44-.43,3.46l-19,10.94A6.66,6.66,0,0,1,844.15,679.46Z"/><path class="cls-5" d="M813.87,662l-19.12-11c-1.54-.89-1.35-2.44.43-3.46l19-10.94a6.63,6.63,0,0,1,6-.25l19.13,11c1.53.89,1.34,2.44-.43,3.46l-19,10.94A6.65,6.65,0,0,1,813.87,662Z"/><path class="cls-5" d="M934.23,731.47,915.1,720.42c-1.53-.88-1.34-2.43.43-3.45l19-11a6.66,6.66,0,0,1,6-.24l19.13,11c1.54.89,1.34,2.43-.43,3.46l-18.95,10.94A6.69,6.69,0,0,1,934.23,731.47Z"/><path class="cls-5" d="M963.77,748.52l-19.13-11c-1.54-.89-1.34-2.44.43-3.46L964,723.08a6.63,6.63,0,0,1,6-.25l19.13,11c1.53.89,1.34,2.44-.43,3.46l-19,10.94A6.63,6.63,0,0,1,963.77,748.52Z"/><path class="cls-5" d="M993.3,765.57l-19.12-11c-1.54-.88-1.35-2.43.43-3.46l18.95-10.94a6.69,6.69,0,0,1,6-.25l19.13,11c1.53.88,1.34,2.43-.43,3.45l-19,11A6.66,6.66,0,0,1,993.3,765.57Z"/><path class="cls-5" d="M1022.84,782.63l-19.13-11c-1.53-.89-1.34-2.44.43-3.46l19-11a6.68,6.68,0,0,1,6-.24l19.12,11c1.54.89,1.35,2.43-.43,3.46l-19,10.94A6.69,6.69,0,0,1,1022.84,782.63Z"/><path class="cls-5" d="M1052.38,799.68l-19.13-11c-1.54-.89-1.34-2.44.43-3.46l19-10.94a6.63,6.63,0,0,1,6-.25l19.13,11c1.54.89,1.34,2.44-.43,3.46l-19,10.94A6.63,6.63,0,0,1,1052.38,799.68Z"/><path class="cls-5" d="M1081.91,816.74l-19.12-11c-1.54-.88-1.35-2.43.43-3.46l19-10.94a6.69,6.69,0,0,1,6-.25l19.13,11.05c1.53.88,1.34,2.43-.43,3.45l-18.95,11A6.71,6.71,0,0,1,1081.91,816.74Z"/><path class="cls-5" d="M1111.45,833.79l-19.12-11c-1.54-.89-1.35-2.44.43-3.46l19-10.95a6.66,6.66,0,0,1,6-.24l19.13,11c1.53.89,1.34,2.43-.44,3.46l-19,10.94A6.69,6.69,0,0,1,1111.45,833.79Z"/><path class="cls-5" d="M1141,850.84l-19.13-11c-1.53-.89-1.34-2.44.43-3.46l19-10.94a6.65,6.65,0,0,1,6-.25l19.12,11c1.54.89,1.35,2.44-.43,3.46l-19,10.94A6.63,6.63,0,0,1,1141,850.84Z"/><path class="cls-5" d="M1170.53,867.9l-19.13-11c-1.54-.88-1.34-2.43.43-3.46l19-10.94a6.69,6.69,0,0,1,6-.25l19.13,11c1.54.88,1.34,2.43-.43,3.45l-19,10.95A6.69,6.69,0,0,1,1170.53,867.9Z"/><path class="cls-5" d="M889.14,672.23l-19.13-11c-1.54-.89-1.34-2.43.43-3.46l18.95-10.94a6.66,6.66,0,0,1,6-.25l19.13,11c1.54.89,1.34,2.44-.43,3.46l-19,11A6.66,6.66,0,0,1,889.14,672.23Z"/><path class="cls-5" d="M859.75,655.27l-19.13-11c-1.54-.88-1.34-2.43.43-3.46l19-10.94a6.69,6.69,0,0,1,6-.25l19.13,11c1.54.88,1.34,2.43-.43,3.46l-19,10.94A6.69,6.69,0,0,1,859.75,655.27Z"/><path class="cls-5" d="M830.36,638.3l-19.13-11c-1.54-.88-1.34-2.43.43-3.46l19-10.94a6.69,6.69,0,0,1,6-.25l19.13,11c1.53.88,1.34,2.43-.43,3.46l-18.95,10.94A6.69,6.69,0,0,1,830.36,638.3Z"/><path class="cls-5" d="M801,621.33l-19.13-11c-1.54-.89-1.34-2.44.43-3.46l19-11a6.66,6.66,0,0,1,6-.24l19.13,11c1.53.89,1.34,2.43-.43,3.46L807,621.08A6.69,6.69,0,0,1,801,621.33Z"/><path class="cls-5" d="M831.19,603.88l-19.13-11c-1.53-.89-1.34-2.44.43-3.46l6.27-3.62a6.69,6.69,0,0,1,6-.25l19.12,11c1.54.89,1.35,2.44-.43,3.46l-6.26,3.62A6.66,6.66,0,0,1,831.19,603.88Z"/><path class="cls-5" d="M869.54,626l-19.12-11c-1.54-.89-1.35-2.43.43-3.46l6.26-3.62a6.66,6.66,0,0,1,6-.24l19.13,11c1.54.89,1.34,2.43-.43,3.46l-6.27,3.61A6.63,6.63,0,0,1,869.54,626Z"/><path class="cls-5" d="M898.81,642.92l-19.13-11c-1.53-.89-1.34-2.44.43-3.46l6.27-3.62a6.69,6.69,0,0,1,6-.25L911.5,635.6c1.53.88,1.34,2.43-.43,3.46l-6.27,3.61A6.63,6.63,0,0,1,898.81,642.92Z"/><path class="cls-5" d="M928.08,659.82l-19.13-11c-1.53-.89-1.34-2.44.43-3.46l6.27-3.62a6.69,6.69,0,0,1,6-.25l19.13,11c1.53.89,1.34,2.44-.44,3.46l-6.26,3.62A6.66,6.66,0,0,1,928.08,659.82Z"/><path class="cls-5" d="M957.35,676.72l-19.13-11.05c-1.54-.88-1.34-2.43.43-3.46l6.26-3.61a6.65,6.65,0,0,1,6-.25l19.12,11c1.54.89,1.35,2.44-.43,3.46l-6.26,3.62A6.69,6.69,0,0,1,957.35,676.72Z"/><path class="cls-5" d="M1120.75,771.05l-19.13-11c-1.54-.88-1.35-2.43.43-3.46l6.26-3.61a6.63,6.63,0,0,1,6-.25l19.13,11c1.54.89,1.34,2.44-.43,3.46l-6.26,3.62A6.66,6.66,0,0,1,1120.75,771.05Z"/><path class="cls-5" d="M1150,788l-19.12-11c-1.54-.89-1.35-2.44.43-3.46l6.26-3.62a6.66,6.66,0,0,1,6-.24l19.13,11c1.54.88,1.34,2.43-.43,3.46L1156,787.7A6.63,6.63,0,0,1,1150,788Z"/><path class="cls-5" d="M1179.28,804.85l-19.13-11c-1.53-.89-1.34-2.44.43-3.46l6.27-3.62a6.69,6.69,0,0,1,6-.25l19.13,11c1.53.88,1.34,2.43-.43,3.46l-6.27,3.61A6.63,6.63,0,0,1,1179.28,804.85Z"/><path class="cls-5" d="M1208.55,821.75l-19.13-11c-1.53-.89-1.34-2.44.43-3.46l6.27-3.62a6.66,6.66,0,0,1,6-.25l19.13,11c1.53.89,1.34,2.44-.43,3.46l-6.27,3.62A6.66,6.66,0,0,1,1208.55,821.75Z"/><path class="cls-5" d="M918.67,689.29l-19.12-11c-1.54-.88-1.35-2.43.43-3.46l18.95-10.94a6.66,6.66,0,0,1,6-.24l19.13,11c1.53.88,1.34,2.43-.43,3.46l-19,10.94A6.71,6.71,0,0,1,918.67,689.29Z"/><path class="cls-5" d="M948.21,706.34l-19.12-11c-1.54-.89-1.35-2.44.43-3.46l19-10.94a6.63,6.63,0,0,1,6-.25l19.12,11c1.54.89,1.35,2.44-.42,3.46l-19,10.94A6.63,6.63,0,0,1,948.21,706.34Z"/><path class="cls-5" d="M977.75,723.39l-19.13-11c-1.53-.89-1.34-2.43.43-3.46L978,698a6.71,6.71,0,0,1,6-.25l19.12,11c1.54.89,1.35,2.44-.43,3.46l-19,10.95A6.66,6.66,0,0,1,977.75,723.39Z"/><path class="cls-5" d="M1007.29,740.45,988.16,729.4c-1.54-.88-1.34-2.43.43-3.45l18.95-11a6.66,6.66,0,0,1,6-.24l19.13,11c1.54.89,1.34,2.43-.43,3.46l-19,10.94A6.69,6.69,0,0,1,1007.29,740.45Z"/><path class="cls-5" d="M1036.82,757.5l-19.12-11c-1.54-.89-1.35-2.44.43-3.46l18.95-10.94a6.63,6.63,0,0,1,6-.25l19.13,11c1.53.89,1.34,2.44-.43,3.46l-19,10.94A6.65,6.65,0,0,1,1036.82,757.5Z"/><path class="cls-5" d="M1066.36,774.55l-19.13-11c-1.53-.89-1.34-2.43.43-3.46l19-10.94a6.69,6.69,0,0,1,6-.25l19.12,11c1.54.89,1.35,2.44-.43,3.46l-19,10.95A6.66,6.66,0,0,1,1066.36,774.55Z"/><path class="cls-5" d="M1095.9,791.61l-19.13-11.05c-1.53-.88-1.34-2.43.43-3.45l19-11a6.66,6.66,0,0,1,6-.24l19.13,11c1.54.89,1.34,2.43-.43,3.46l-18.95,10.94A6.69,6.69,0,0,1,1095.9,791.61Z"/><path class="cls-5" d="M1125.44,808.66l-19.13-11c-1.54-.89-1.34-2.44.43-3.46l19-10.94a6.63,6.63,0,0,1,6-.25l19.13,11c1.54.89,1.34,2.44-.43,3.46l-19,10.94A6.63,6.63,0,0,1,1125.44,808.66Z"/><path class="cls-5" d="M1155,825.71l-19.12-11c-1.54-.88-1.35-2.43.43-3.46l19-10.94a6.69,6.69,0,0,1,6-.25l19.13,11.05c1.53.88,1.34,2.43-.43,3.45l-19,11A6.66,6.66,0,0,1,1155,825.71Z"/><path class="cls-5" d="M749.8,691.39l-56.33-32.52c-1.53-.89-1.34-2.43.43-3.46l19-10.94a6.66,6.66,0,0,1,6-.25l56.33,32.52c1.53.89,1.34,2.44-.43,3.46l-19,10.94A6.65,6.65,0,0,1,749.8,691.39Z"/><path class="cls-5" d="M1112.68,900.9l-56.33-32.52c-1.54-.89-1.34-2.44.43-3.46l19-10.95a6.66,6.66,0,0,1,6-.24l56.33,32.52c1.54.89,1.34,2.43-.43,3.46l-18.95,10.94A6.69,6.69,0,0,1,1112.68,900.9Z"/><path class="cls-5" d="M994.55,870.37l-19.12-11c-1.54-.89-1.35-2.44.43-3.46l22.57-13a6.71,6.71,0,0,1,6-.25l19.12,11c1.54.88,1.35,2.43-.43,3.46l-22.57,13A6.71,6.71,0,0,1,994.55,870.37Z"/><path class="cls-5" d="M780.05,746.53l-30.59-17.66c-1.53-.89-1.34-2.44.43-3.46l22.58-13a6.69,6.69,0,0,1,6-.25l30.59,17.66c1.54.89,1.34,2.44-.43,3.46l-22.58,13A6.69,6.69,0,0,1,780.05,746.53Z"/><path class="cls-5" d="M966.09,853.94l-30.58-17.66c-1.54-.89-1.35-2.44.43-3.46l22.57-13a6.69,6.69,0,0,1,6-.25l30.59,17.66c1.54.89,1.35,2.44-.43,3.46l-22.57,13A6.71,6.71,0,0,1,966.09,853.94Z"/><path class="cls-5" d="M822.67,771.13l-30.59-17.66c-1.54-.89-1.34-2.44.43-3.46l22.58-13a6.63,6.63,0,0,1,6-.25l30.59,17.66c1.53.88,1.34,2.43-.43,3.46l-22.58,13A6.63,6.63,0,0,1,822.67,771.13Z"/><path class="cls-5" d="M821.29,736.85l133,76.78c1.65,1,1.65,2.5,0,3.45l-23,13.29a6.55,6.55,0,0,1-6,0l-133-76.78Z"/><path class="cls-5" d="M1077.11,901.29l21.3,12.3c1.26.73,1.1,2-.35,2.83l-9.24,5.34a5.47,5.47,0,0,1-4.91.2l-21.3-12.3c-1.26-.73-1.1-2,.35-2.84l9.24-5.33A5.44,5.44,0,0,1,1077.11,901.29Z"/><path class="cls-5" d="M1047.32,884.09l21.31,12.3c1.26.73,1.1,2-.35,2.84l-9.24,5.33a5.44,5.44,0,0,1-4.91.2l-21.3-12.3c-1.26-.72-1.11-2,.35-2.83l9.23-5.33A5.48,5.48,0,0,1,1047.32,884.09Z"/><path class="cls-5" d="M1017.79,867l21.3,12.3c1.26.73,1.1,2-.35,2.84l-9.24,5.33a5.44,5.44,0,0,1-4.91.2l-21.3-12.3c-1.26-.73-1.1-2,.35-2.83l9.24-5.34A5.44,5.44,0,0,1,1017.79,867Z"/><path class="cls-5" d="M1063.64,874.68l21.3,12.3c1.26.72,1.1,2-.35,2.83l-9.24,5.33a5.48,5.48,0,0,1-4.91.21l-21.3-12.3c-1.26-.73-1.1-2,.35-2.84l9.23-5.33A5.46,5.46,0,0,1,1063.64,874.68Z"/><path class="cls-5" d="M682.26,819.5l77.52-44.74a17.6,17.6,0,0,1,17.64,0l133.24,77.63A7.24,7.24,0,0,1,910.6,865l-77.69,44.22a18.17,18.17,0,0,1-18.23-.13l-132.46-77.9A6.74,6.74,0,0,1,682.26,819.5Z"/><path class="cls-5" d="M1185.74,752.09,907.92,591.81l-4.72,3.09a6.07,6.07,0,0,0,.28,10.34L1165.27,756.4a13.62,13.62,0,0,0,14.12-.29Z"/><path class="cls-4" d="M1396.64,762.9l7.39-4.3c2.9-1.68,6.92-1.45,11.36,1.11L1408,764C1403.56,761.45,1399.54,761.21,1396.64,762.9Z"/><path class="cls-4" d="M1766.24,1055.26l-7.39,4.29c2.86-1.66,4.64-5.2,4.66-10.23l7.39-4.3C1770.89,1050.05,1769.11,1053.59,1766.24,1055.26Z"/><polygon class="cls-4" points="1763.68 987.74 1771.08 983.44 1770.9 1045.02 1763.51 1049.32 1763.68 987.74"/><polygon class="cls-4" points="1407.99 764.01 1415.39 759.71 1755.16 955.88 1747.77 960.18 1407.99 764.01"/><path class="cls-4" d="M1747.77,960.18l7.39-4.3c8.82,5.09,15.94,17.43,15.91,27.56l-7.39,4.3C1763.71,977.61,1756.58,965.27,1747.77,960.18Z"/><path class="cls-5" d="M1747.77,960.18c8.81,5.09,15.94,17.43,15.91,27.56l-.17,61.58c0,10.13-7.2,14.21-16,9.12L1407.72,862.27c-8.82-5.09-15.94-17.42-15.91-27.56l.17-61.57c0-10.13,7.2-14.22,16-9.13Z"/><path class="cls-4" d="M1397,648.48l7.4-4.3c2.9-1.68,6.92-1.44,11.35,1.12l-7.39,4.29C1403.88,647,1399.86,646.79,1397,648.48Z"/><path class="cls-4" d="M1766.57,940.84l-7.4,4.3c2.87-1.67,4.65-5.21,4.66-10.24l7.39-4.3C1771.21,935.63,1769.43,939.17,1766.57,940.84Z"/><polygon class="cls-4" points="1764 873.32 1771.4 869.02 1771.22 930.6 1763.83 934.9 1764 873.32"/><polygon class="cls-4" points="1408.32 649.59 1415.71 645.3 1755.49 841.47 1748.09 845.76 1408.32 649.59"/><path class="cls-4" d="M1748.09,845.76l7.4-4.3c8.81,5.09,15.94,17.43,15.91,27.56l-7.4,4.3C1764,863.19,1756.91,850.85,1748.09,845.76Z"/><path class="cls-5" d="M1748.09,845.76c8.82,5.09,15.94,17.43,15.91,27.56l-.17,61.58c0,10.13-7.2,14.21-16,9.12L1408,747.86c-8.81-5.09-15.94-17.43-15.91-27.56l.18-61.58c0-10.13,7.19-14.22,16-9.13Z"/><path class="cls-4" d="M1397.28,534.06l7.4-4.29c2.9-1.69,6.92-1.45,11.36,1.11l-7.4,4.3C1404.21,532.61,1400.19,532.38,1397.28,534.06Z"/><path class="cls-4" d="M1766.89,826.42l-7.39,4.29c2.86-1.66,4.64-5.2,4.65-10.23l7.4-4.3C1771.53,821.21,1769.76,824.75,1766.89,826.42Z"/><polygon class="cls-4" points="1764.33 758.9 1771.72 754.6 1771.55 816.18 1764.15 820.48 1764.33 758.9"/><polygon class="cls-4" points="1408.64 535.17 1416.04 530.88 1755.81 727.05 1748.42 731.34 1408.64 535.17"/><path class="cls-4" d="M1748.42,731.34l7.39-4.29c8.82,5.09,15.94,17.42,15.91,27.55l-7.39,4.3C1764.36,748.77,1757.23,736.43,1748.42,731.34Z"/><path class="cls-5" d="M1748.42,731.34c8.81,5.09,15.94,17.43,15.91,27.56l-.18,61.58c0,10.13-7.2,14.21-16,9.12L1408.37,633.43c-8.82-5.09-15.94-17.42-15.92-27.56l.18-61.57c0-10.13,7.2-14.21,16-9.12Z"/><text class="cls-10" transform="matrix(0.87, 0.5, 0, 1, 1408.68, 718.29)">Count</text><text class="cls-10" transform="matrix(0.87, 0.5, 0, 1, 1407.92, 833.96)">Average</text><text class="cls-10" transform="matrix(0.87, 0.5, 0, 1, 1410.2, 603.06)">Sum</text><path class="cls-11" d="M1735.43,807.25l-133.19-76.89c-5.45-3.15-9.87-11.6-9.87-18.87V672.41c0-7.28,4.42-10.62,9.87-7.47l133.19,76.89c5.46,3.15,9.88,11.6,9.88,18.88v39.08C1745.31,807.06,1740.89,810.4,1735.43,807.25Z"/><path class="cls-11" d="M1735.43,921.52l-133.19-76.9c-5.45-3.15-9.87-11.59-9.87-18.87V786.67c0-7.27,4.42-10.61,9.87-7.46l133.19,76.89c5.46,3.15,9.88,11.6,9.88,18.87v39.08C1745.31,921.33,1740.89,924.67,1735.43,921.52Z"/><path class="cls-11" d="M1735.43,1035.79l-133.19-76.9c-5.45-3.15-9.87-11.6-9.87-18.87V900.94c0-7.28,4.42-10.62,9.87-7.47l133.19,76.9c5.46,3.15,9.88,11.6,9.88,18.87v39.08C1745.31,1035.59,1740.89,1038.94,1735.43,1035.79Z"/><text class="cls-12" transform="matrix(0.87, 0.5, 0, 1, 1646.08, 739.24)">43</text><text class="cls-12" transform="matrix(0.87, 0.5, 0, 1, 1646.08, 854.38)">10</text><text class="cls-12" transform="matrix(0.87, 0.5, 0, 1, 1643.04, 966.02)">4,3</text><g class="cls-3"><path class="cls-4" d="M790.41,87.62l8.17-4.75c4.57-2.65,10.9-2.28,17.88,1.75l-8.16,4.75C801.31,85.34,795,85,790.41,87.62Z"/><path class="cls-8" d="M1348.65,829.78l-8.16,4.74c4.51-2.62,7.31-8.19,7.33-16.12l8.17-4.74C1356,821.58,1353.17,827.16,1348.65,829.78Z"/><polygon class="cls-11" points="783.01 129.84 791.18 125.09 1357.01 451.78 1348.84 456.52 783.01 129.84"/><polygon class="cls-8" points="1348.84 456.52 1357.01 451.78 1355.98 813.66 1347.82 818.4 1348.84 456.52"/><path class="cls-11" d="M1348.84,456.53l-1,361.87c0,16-11.34,22.39-25.22,14.37L807,535.11c-13.88-8-25.09-27.44-25-43.39l1-361.88Z"/><polygon class="cls-4" points="1348.92 430.42 1357.09 425.68 1357.01 451.78 1348.84 456.52 1348.92 430.42"/><polygon class="cls-4" points="808.3 89.37 816.46 84.62 1332.04 382.29 1323.87 387.03 808.3 89.37"/><path class="cls-5" d="M1323.87,387c13.88,8,25.09,27.44,25.05,43.39l-.08,26.11L783,129.84l.07-26.1c0-15.95,11.33-22.39,25.22-14.37Z"/><path class="cls-4" d="M1323.87,387l8.16-4.74c13.88,8,25.1,27.44,25,43.39l-8.16,4.74C1349,414.47,1337.75,395.05,1323.87,387Z"/></g><ellipse class="cls-13" cx="1263.41" cy="382.49" rx="6.84" ry="11.84" transform="translate(-20.07 691.03) rotate(-30.36)"/><ellipse class="cls-13" cx="1286.68" cy="395.93" rx="6.84" ry="11.84" transform="matrix(0.86, -0.51, 0.51, 0.86, -23.67, 704.64)"/><ellipse class="cls-13" cx="1308.02" cy="408.25" rx="6.84" ry="11.84" transform="translate(-26.96 717.11) rotate(-30.36)"/><polyline class="cls-14" points="821.5 189.81 821.5 505.92 1260.23 759.22"/><line class="cls-14" x1="821.5" y1="445.14" x2="806.08" y2="436.24"/><line class="cls-14" x1="821.5" y1="386.14" x2="806.08" y2="377.24"/><line class="cls-14" x1="821.5" y1="327.14" x2="806.08" y2="318.23"/><line class="cls-14" x1="821.5" y1="268.14" x2="806.08" y2="259.23"/><line class="cls-14" x1="821.5" y1="209.14" x2="805.61" y2="199.96"/><polygon class="cls-5" points="862.39 529.52 832.16 512.07 832.16 333.25 862.39 350.7 862.39 529.52"/><polygon class="cls-5" points="903.38 553.19 873.14 535.74 873.14 238.95 903.38 256.41 903.38 553.19"/><polygon class="cls-5" points="944.36 576.85 914.13 559.4 914.13 321.71 944.36 339.16 944.36 576.85"/><polygon class="cls-5" points="985.35 600.51 955.12 583.06 955.12 286.28 985.35 303.73 985.35 600.51"/><polygon class="cls-5" points="1026.33 624.18 996.1 606.72 996.1 369.03 1026.33 386.49 1026.33 624.18"/><polygon class="cls-5" points="1067.32 647.84 1037.09 630.39 1037.09 333.61 1067.32 351.06 1067.32 647.84"/><polygon class="cls-5" points="1108.3 671.5 1078.07 654.05 1078.07 357.27 1108.3 374.72 1108.3 671.5"/><polygon class="cls-5" points="1149.29 695.16 1119.06 677.71 1119.06 498.22 1149.29 515.67 1149.29 695.16"/><polygon class="cls-5" points="1190.27 718.83 1160.04 701.37 1160.04 404.59 1190.27 422.05 1190.27 718.83"/><polygon class="cls-5" points="1231.26 742.49 1201.03 725.04 1201.03 487.35 1231.26 504.8 1231.26 742.49"/><line class="cls-14" x1="822.28" y1="233.58" x2="1260.23" y2="486.43"/><ellipse class="cls-5" cx="1260.23" cy="486.43" rx="4.54" ry="7.87" transform="translate(-73.03 703.67) rotate(-30.36)"/><polygon class="cls-5" points="1329.13 534.41 1274.4 502.81 1274.4 483.84 1329.13 515.44 1329.13 534.41"/><polygon class="cls-5" points="1329.13 563.35 1274.4 531.75 1274.4 512.78 1329.13 544.38 1329.13 563.35"/><polygon class="cls-5" points="1329.13 592.29 1274.4 560.68 1274.4 541.71 1329.13 573.32 1329.13 592.29"/><g class="cls-3"><path class="cls-8" d="M1725.68,569.17l-10,5.85c2.44-1.43,4-4.45,4-8.75l10.06-5.84C1729.65,564.73,1728.13,567.75,1725.68,569.17Z"/><polygon class="cls-8" points="1720.07 399.17 1730.13 393.32 1729.66 560.43 1719.6 566.27 1720.07 399.17"/><polygon class="cls-11" points="1434.68 234.4 1444.74 228.55 1730.13 393.32 1720.07 399.17 1434.68 234.4"/><path class="cls-11" d="M1720.07,399.17l-.47,167.1c0,8.66-6.15,12.14-13.68,7.79L1447.8,425c-7.53-4.35-13.62-14.89-13.59-23.54l.47-167.1Z"/></g><g class="cls-3"><path class="cls-4" d="M1438.71,207.9l10-5.85c2.48-1.44,5.92-1.24,9.71.95l-10.06,5.85C1444.62,206.66,1441.19,206.45,1438.71,207.9Z"/><polygon class="cls-4" points="1720.13 381.41 1730.18 375.56 1730.13 393.32 1720.07 399.17 1720.13 381.41"/><polygon class="cls-4" points="1448.41 208.84 1458.47 203 1716.59 352.03 1706.54 357.87 1448.41 208.84"/><path class="cls-4" d="M1706.54,357.87l10-5.84c7.53,4.35,13.62,14.88,13.59,23.54l-10.06,5.84C1720.15,372.76,1714.07,362.22,1706.54,357.87Z"/><path class="cls-5" d="M1706.54,357.87c7.53,4.35,13.61,14.89,13.58,23.54l0,17.76L1434.68,234.4l0-17.76c0-8.65,6.15-12.14,13.68-7.79Z"/></g><polygon class="cls-15" points="1701.2 548.17 1450.08 403.19 1450.08 264.47 1701.2 409.45 1701.2 548.17"/><line class="cls-15" x1="1451.29" y1="313.15" x2="1700.59" y2="457.08"/><line class="cls-15" x1="1451.29" y1="356.95" x2="1700.59" y2="500.88"/><line class="cls-15" x1="1587.77" y1="345.01" x2="1587.77" y2="481.64"/><text class="cls-16" transform="matrix(0.87, 0.5, 0, 1, 1462.05, 304.09)">Largest</text><text class="cls-16" transform="matrix(0.87, 0.5, 0, 1, 1634.28, 405.09)">5</text><text class="cls-16" transform="matrix(0.87, 0.5, 0, 1, 1634.28, 449.41)">3</text><text class="cls-16" transform="matrix(0.87, 0.5, 0, 1, 1624.39, 490.64)">4,5</text><text class="cls-16" transform="matrix(0.87, 0.5, 0, 1, 1462.05, 349.46)">Smallest</text><text class="cls-16" transform="matrix(0.87, 0.5, 0, 1, 1462.05, 394.83)">Median</text><ellipse class="cls-13" cx="1669.95" cy="354.36" rx="4.73" ry="8.2" transform="translate(49.9 892.65) rotate(-30.36)"/><ellipse class="cls-13" cx="1686.06" cy="363.67" rx="4.73" ry="8.2" transform="translate(47.41 902.07) rotate(-30.36)"/><ellipse class="cls-13" cx="1700.83" cy="372.19" rx="4.73" ry="8.2" transform="translate(45.13 910.71) rotate(-30.36)"/><g class="cls-3"><path class="cls-4" d="M539.13,92.71,542,91c3-1.73,7.1-1.48,11.64,1.14l-2.86,1.67C546.23,91.22,542.11,91,539.13,92.71Z"/><polygon class="cls-4" points="696.8 261.71 699.67 260.04 701.13 263.21 698.26 264.87 696.8 261.71"/><polygon class="cls-4" points="696.8 261.71 699.67 260.04 708.96 265.24 706.09 266.91 696.8 261.71"/><polygon class="cls-4" points="713.91 273.91 716.78 272.24 708.92 280.12 706.05 281.79 713.91 273.91"/><polygon class="cls-4" points="706.09 266.91 708.96 265.24 718.25 270.76 715.38 272.43 706.09 266.91"/><polygon class="cls-4" points="715.38 272.43 718.25 270.76 716.78 272.24 713.91 273.91 715.38 272.43"/><polygon class="cls-5" points="706.09 266.91 715.38 272.43 713.91 273.91 706.05 281.79 698.26 264.87 696.8 261.71 706.09 266.91"/><path class="cls-4" d="M729.89,274.23,727,275.9c2.94-1.71,4.76-5.34,4.78-10.5l2.87-1.67C734.65,268.89,732.83,272.52,729.89,274.23Z"/><polygon class="cls-4" points="731.94 217.28 734.8 215.61 734.67 263.73 731.8 265.4 731.94 217.28"/><polygon class="cls-4" points="550.78 93.85 553.64 92.18 718.49 187.36 715.62 189.02 550.78 93.85"/><path class="cls-5" d="M715.62,189c9,5.22,16.35,17.87,16.32,28.26l-.14,48.12c0,10.38-7.38,14.57-16.42,9.36l-1.47-.85,1.47-1.48-9.29-5.52-9.29-5.2,1.46,3.16L550.53,179.58c-9-5.22-16.34-17.87-16.31-28.26l.14-48.11c0-10.39,7.38-14.58,16.42-9.36Z"/><path class="cls-4" d="M715.62,189l2.87-1.66c9,5.21,16.34,17.87,16.31,28.25l-2.86,1.67C732,206.89,724.66,194.24,715.62,189Z"/></g><polygon class="cls-6" points="610.39 140.31 612.89 150.56 620.97 155.23 614.43 156.9 616.93 167.15 610.39 157.93 603.86 159.6 606.35 152.23 599.82 143.01 607.9 147.68 610.39 140.31"/><polygon class="cls-6" points="633.29 153.53 635.79 163.78 643.87 168.45 637.33 170.12 639.83 180.37 633.29 171.15 626.76 172.82 629.25 165.45 622.72 156.23 630.8 160.9 633.29 153.53"/><polygon class="cls-6" points="656.19 166.75 658.69 177 666.77 181.67 660.23 183.34 662.73 193.59 656.19 184.37 649.66 186.04 652.15 178.68 645.62 169.46 653.7 174.12 656.19 166.75"/><polygon class="cls-8" points="679.09 179.97 681.59 190.23 689.67 194.89 683.13 196.56 685.63 206.81 679.09 197.59 672.56 199.26 675.05 191.9 668.52 182.68 676.6 187.34 679.09 179.97"/><polygon class="cls-8" points="702 193.2 704.49 203.45 712.57 208.11 706.03 209.78 708.53 220.03 702 210.81 695.46 212.49 697.95 205.12 691.42 195.9 699.5 200.56 702 193.2"/><ellipse class="cls-5" cx="567.09" cy="148.12" rx="19.82" ry="34.34" transform="translate(2.9 306.94) rotate(-30.36)"/><ellipse class="cls-7" cx="568.26" cy="148.3" rx="21.85" ry="37.85" transform="translate(2.98 307.56) rotate(-30.36)"/><ellipse class="cls-5" cx="568.26" cy="159.43" rx="10.93" ry="23.49" transform="translate(78.16 488.27) rotate(-49.53)"/><path class="cls-5" d="M576,137.2c0,4.92-3.48,6.89-7.77,4.42s-7.76-8.47-7.76-13.39,3.47-6.9,7.76-4.42S576,132.28,576,137.2Z"/><path class="cls-7" d="M679.91,221l-73.26-42.3a5.43,5.43,0,0,1-2.28-4.34h0c0-1.67,1-2.44,2.28-1.72l73.26,42.3a5.45,5.45,0,0,1,2.27,4.34h0C682.18,221,681.16,221.72,679.91,221Z"/><path class="cls-7" d="M710,249.16,606.65,189.47a5.43,5.43,0,0,1-2.28-4.34h0c0-1.67,1-2.44,2.28-1.72L710,243.11a5.43,5.43,0,0,1,2.27,4.34h0C712.31,249.12,711.29,249.89,710,249.16Z"/><g class="cls-3"><path class="cls-4" d="M181.57,440.24l2.87-1.66c3-1.73,7.09-1.49,11.64,1.14l-2.87,1.67C188.67,438.76,184.54,438.52,181.57,440.24Z"/><polygon class="cls-4" points="339.24 609.24 342.11 607.58 343.57 610.74 340.7 612.41 339.24 609.24"/><polygon class="cls-4" points="339.24 609.24 342.11 607.58 351.4 612.77 348.53 614.44 339.24 609.24"/><polygon class="cls-4" points="356.35 621.44 359.22 619.78 351.36 627.65 348.49 629.32 356.35 621.44"/><polygon class="cls-4" points="348.53 614.44 351.4 612.77 360.69 618.3 357.82 619.97 348.53 614.44"/><polygon class="cls-4" points="357.82 619.97 360.69 618.3 359.22 619.78 356.35 621.44 357.82 619.97"/><polygon class="cls-5" points="348.53 614.44 357.82 619.97 356.35 621.44 348.49 629.32 340.7 612.41 339.24 609.24 348.53 614.44"/><path class="cls-4" d="M372.33,621.76l-2.87,1.67c2.94-1.71,4.76-5.34,4.78-10.5l2.87-1.66C377.09,616.43,375.27,620.06,372.33,621.76Z"/><polygon class="cls-4" points="374.38 564.82 377.24 563.15 377.11 611.27 374.24 612.93 374.38 564.82"/><polygon class="cls-4" points="193.22 441.39 196.08 439.72 360.93 534.89 358.06 536.56 193.22 441.39"/><path class="cls-5" d="M358.06,536.56c9,5.22,16.34,17.87,16.31,28.26l-.13,48.11c0,10.39-7.38,14.58-16.42,9.36l-1.47-.85,1.47-1.47-9.29-5.53-9.29-5.2,1.46,3.17L193,527.12c-9-5.22-16.34-17.87-16.31-28.26l.13-48.12c0-10.38,7.38-14.57,16.42-9.35Z"/><path class="cls-4" d="M358.06,536.56l2.87-1.67c9,5.22,16.34,17.87,16.31,28.26l-2.87,1.67C374.4,554.43,367.1,541.78,358.06,536.56Z"/></g><polygon class="cls-6" points="252.83 487.85 255.33 498.1 263.41 502.76 256.87 504.43 259.37 514.68 252.83 505.47 246.29 507.14 248.79 499.77 242.25 490.55 250.34 495.21 252.83 487.85"/><polygon class="cls-6" points="275.73 501.07 278.23 511.32 286.31 515.98 279.77 517.65 282.27 527.91 275.73 518.69 269.19 520.36 271.69 512.99 265.15 503.77 273.24 508.44 275.73 501.07"/><polygon class="cls-6" points="298.63 514.29 301.13 524.54 309.21 529.21 302.67 530.88 305.17 541.13 298.63 531.91 292.1 533.58 294.59 526.21 288.06 516.99 296.14 521.66 298.63 514.29"/><polygon class="cls-8" points="321.53 527.51 324.03 537.76 332.11 542.43 325.57 544.1 328.07 554.35 321.53 545.13 315 546.8 317.49 539.43 310.96 530.21 319.04 534.88 321.53 527.51"/><polygon class="cls-8" points="344.43 540.73 346.93 550.98 355.01 555.65 348.47 557.32 350.97 567.57 344.43 558.35 337.9 560.02 340.39 552.65 333.86 543.43 341.94 548.1 344.43 540.73"/><ellipse class="cls-5" cx="209.53" cy="495.66" rx="19.82" ry="34.34" transform="translate(-221.79 173.88) rotate(-30.36)"/><ellipse class="cls-7" cx="210.7" cy="495.83" rx="21.85" ry="37.85" transform="matrix(0.86, -0.51, 0.51, 0.86, -221.72, 174.49)"/><ellipse class="cls-5" cx="210.7" cy="506.96" rx="10.93" ry="23.49" transform="translate(-311.73 338.22) rotate(-49.53)"/><path class="cls-5" d="M218.47,484.73c0,4.92-3.48,6.9-7.77,4.42s-7.77-8.47-7.77-13.38,3.48-6.9,7.77-4.43S218.47,479.82,218.47,484.73Z"/><path class="cls-7" d="M322.34,568.53l-73.25-42.29a5.44,5.44,0,0,1-2.28-4.34h0c0-1.68,1-2.44,2.28-1.72l73.25,42.3a5.41,5.41,0,0,1,2.28,4.34h0C324.62,568.49,323.6,569.26,322.34,568.53Z"/><path class="cls-7" d="M352.47,596.7,249.09,537a5.44,5.44,0,0,1-2.28-4.34h0c0-1.68,1-2.44,2.28-1.72l103.38,59.69a5.44,5.44,0,0,1,2.28,4.34h0C354.75,596.66,353.73,597.42,352.47,596.7Z"/><g class="cls-3"><path class="cls-4" d="M247.24,78.48l2.86-1.66c3-1.73,7.1-1.49,11.65,1.14l-2.87,1.66C254.33,77,250.21,76.75,247.24,78.48Z"/><polygon class="cls-4" points="404.91 247.48 407.78 245.81 409.24 248.98 406.37 250.65 404.91 247.48"/><polygon class="cls-4" points="404.91 247.48 407.78 245.81 417.07 251.01 414.2 252.68 404.91 247.48"/><polygon class="cls-4" points="422.02 259.68 424.88 258.02 417.03 265.89 414.16 267.56 422.02 259.68"/><polygon class="cls-4" points="414.2 252.68 417.07 251.01 426.36 256.54 423.49 258.21 414.2 252.68"/><polygon class="cls-4" points="423.49 258.21 426.36 256.54 424.88 258.02 422.02 259.68 423.49 258.21"/><polygon class="cls-5" points="414.2 252.68 423.49 258.21 422.02 259.68 414.16 267.56 406.37 250.65 404.91 247.48 414.2 252.68"/><path class="cls-4" d="M438,260l-2.87,1.67c2.94-1.71,4.76-5.34,4.78-10.5l2.86-1.66C442.76,254.67,440.94,258.3,438,260Z"/><polygon class="cls-4" points="440.04 203.06 442.91 201.39 442.77 249.51 439.9 251.17 440.04 203.06"/><polygon class="cls-4" points="258.88 79.63 261.75 77.96 426.6 173.13 423.73 174.8 258.88 79.63"/><path class="cls-5" d="M423.73,174.8c9,5.22,16.34,17.87,16.31,28.26l-.13,48.11c0,10.39-7.39,14.58-16.43,9.36l-1.46-.85,1.47-1.47-9.29-5.53-9.29-5.2,1.46,3.17L258.64,165.36c-9-5.22-16.34-17.87-16.32-28.26L242.46,89c0-10.39,7.38-14.57,16.42-9.36Z"/><path class="cls-4" d="M423.73,174.8l2.87-1.67c9,5.22,16.34,17.87,16.31,28.26L440,203.06C440.07,192.67,432.77,180,423.73,174.8Z"/></g><polygon class="cls-6" points="318.5 126.08 321 136.34 329.08 141 322.54 142.67 325.04 152.92 318.5 143.71 311.96 145.38 314.46 138.01 307.92 128.79 316 133.45 318.5 126.08"/><polygon class="cls-6" points="341.4 139.31 343.9 149.56 351.98 154.22 345.44 155.89 347.94 166.15 341.4 156.93 334.86 158.6 337.36 151.23 330.82 142.01 338.9 146.68 341.4 139.31"/><polygon class="cls-6" points="364.3 152.53 366.8 162.78 374.88 167.44 368.34 169.12 370.84 179.37 364.3 170.15 357.76 171.82 360.26 164.45 353.72 155.23 361.8 159.9 364.3 152.53"/><polygon class="cls-6" points="387.2 165.75 389.7 176 397.78 180.67 391.24 182.34 393.74 192.59 387.2 183.37 380.66 185.04 383.16 177.67 376.62 168.45 384.7 173.12 387.2 165.75"/><polygon class="cls-6" points="410.1 178.97 412.6 189.22 420.68 193.89 414.14 195.56 416.64 205.81 410.1 196.59 403.56 198.26 406.06 190.89 399.52 181.67 407.6 186.34 410.1 178.97"/><ellipse class="cls-7" cx="276.37" cy="134.07" rx="21.85" ry="37.85" transform="translate(-29.86 158.07) rotate(-30.36)"/><ellipse class="cls-5" cx="276.37" cy="145.2" rx="10.93" ry="23.49" transform="translate(-13.47 261.21) rotate(-49.53)"/><path class="cls-5" d="M284.14,123c0,4.92-3.48,6.9-7.77,4.42s-7.77-8.47-7.77-13.39,3.48-6.89,7.77-4.42S284.14,118.05,284.14,123Z"/><path class="cls-7" d="M388,206.77l-73.26-42.29a5.46,5.46,0,0,1-2.27-4.34h0c0-1.68,1-2.45,2.27-1.72L388,200.72a5.41,5.41,0,0,1,2.27,4.34h0C390.28,206.73,389.27,207.5,388,206.77Z"/><path class="cls-7" d="M418.14,234.94,314.75,175.25a5.46,5.46,0,0,1-2.27-4.34h0c0-1.68,1-2.45,2.27-1.72l103.39,59.69a5.42,5.42,0,0,1,2.27,4.34h0C420.41,234.89,419.4,235.66,418.14,234.94Z"/><g class="cls-3"><path class="cls-4" d="M541,278.37l2.87-1.67c3-1.72,7.1-1.48,11.65,1.15l-2.87,1.66C548.11,276.89,544,276.64,541,278.37Z"/><polygon class="cls-4" points="698.69 447.37 701.56 445.7 703.01 448.87 700.15 450.54 698.69 447.37"/><polygon class="cls-4" points="698.69 447.37 701.56 445.7 710.85 450.9 707.98 452.57 698.69 447.37"/><polygon class="cls-4" points="715.79 459.57 718.66 457.9 710.8 465.78 707.93 467.45 715.79 459.57"/><polygon class="cls-4" points="707.98 452.57 710.85 450.9 720.13 456.43 717.27 458.1 707.98 452.57"/><polygon class="cls-4" points="717.27 458.1 720.13 456.43 718.66 457.9 715.79 459.57 717.27 458.1"/><polygon class="cls-5" points="707.98 452.57 717.27 458.1 715.79 459.57 707.93 467.45 700.15 450.54 698.69 447.37 707.98 452.57"/><path class="cls-4" d="M731.78,459.89l-2.87,1.67c2.94-1.71,4.76-5.34,4.77-10.5l2.87-1.67C736.54,454.55,734.71,458.18,731.78,459.89Z"/><polygon class="cls-4" points="733.82 402.94 736.69 401.28 736.55 449.39 733.68 451.06 733.82 402.94"/><polygon class="cls-4" points="552.66 279.51 555.53 277.85 720.37 373.02 717.5 374.69 552.66 279.51"/><path class="cls-5" d="M717.51,374.69c9,5.21,16.34,17.87,16.31,28.25l-.14,48.12c0,10.39-7.38,14.58-16.42,9.36l-1.47-.85,1.48-1.47L708,452.57l-9.29-5.2,1.46,3.17-147.73-85.3c-9-5.21-16.35-17.87-16.32-28.25l.14-48.12c0-10.39,7.38-14.58,16.42-9.36Z"/><path class="cls-4" d="M717.51,374.69l2.86-1.67c9,5.22,16.35,17.87,16.32,28.26l-2.87,1.66C733.85,392.56,726.54,379.9,717.51,374.69Z"/></g><polygon class="cls-6" points="612.28 325.97 614.77 336.23 622.85 340.89 616.32 342.56 618.81 352.81 612.28 343.59 605.74 345.26 608.24 337.89 601.7 328.68 609.78 333.34 612.28 325.97"/><polygon class="cls-6" points="635.18 339.19 637.67 349.45 645.75 354.11 639.22 355.78 641.71 366.03 635.18 356.81 628.64 358.48 631.14 351.12 624.6 341.9 632.68 346.56 635.18 339.19"/><polygon class="cls-6" points="658.08 352.42 660.57 362.67 668.65 367.33 662.12 369 664.61 379.25 658.08 370.04 651.54 371.71 654.04 364.34 647.5 355.12 655.58 359.78 658.08 352.42"/><polygon class="cls-6" points="680.98 365.64 683.47 375.89 691.55 380.55 685.02 382.23 687.51 392.48 680.98 383.26 674.44 384.93 676.94 377.56 670.4 368.34 678.48 373.01 680.98 365.64"/><polygon class="cls-8" points="703.88 378.86 706.38 389.11 714.46 393.78 707.92 395.45 710.41 405.7 703.88 396.48 697.34 398.15 699.84 390.78 693.3 381.56 701.38 386.23 703.88 378.86"/><ellipse class="cls-7" cx="570.15" cy="333.96" rx="21.85" ry="37.85" transform="matrix(0.86, -0.51, 0.51, 0.86, -90.61, 333.97)"/><ellipse class="cls-5" cx="570.15" cy="345.09" rx="10.93" ry="23.49" transform="matrix(0.65, -0.76, 0.76, 0.65, -62.43, 554.86)"/><path class="cls-5" d="M577.91,322.86c0,4.92-3.47,6.9-7.76,4.42s-7.77-8.47-7.77-13.39,3.48-6.9,7.77-4.42S577.91,317.94,577.91,322.86Z"/><path class="cls-7" d="M681.79,406.66l-73.26-42.29a5.47,5.47,0,0,1-2.27-4.35h0c0-1.67,1-2.44,2.27-1.71l73.26,42.29a5.46,5.46,0,0,1,2.27,4.34h0C684.06,406.62,683,407.39,681.79,406.66Z"/><path class="cls-7" d="M711.92,434.83,608.53,375.14a5.47,5.47,0,0,1-2.27-4.35h0c0-1.67,1-2.44,2.27-1.71l103.39,59.69a5.45,5.45,0,0,1,2.27,4.34h0C714.19,434.78,713.17,435.55,711.92,434.83Z"/><g class="cls-3"><path class="cls-4" d="M1203.62,60l2.87-1.66c3-1.73,7.1-1.49,11.64,1.14l-2.86,1.67C1210.72,58.47,1206.6,58.23,1203.62,60Z"/><polygon class="cls-4" points="1361.29 228.95 1364.16 227.28 1365.62 230.45 1362.75 232.12 1361.29 228.95"/><polygon class="cls-4" points="1361.29 228.95 1364.16 227.28 1373.45 232.49 1370.58 234.15 1361.29 228.95"/><polygon class="cls-4" points="1378.4 241.15 1381.27 239.49 1373.41 247.36 1370.54 249.03 1378.4 241.15"/><polygon class="cls-4" points="1370.58 234.15 1373.45 232.49 1382.74 238.01 1379.87 239.68 1370.58 234.15"/><polygon class="cls-4" points="1379.87 239.68 1382.74 238.01 1381.27 239.49 1378.4 241.15 1379.87 239.68"/><polygon class="cls-5" points="1370.58 234.15 1379.87 239.68 1378.4 241.15 1370.54 249.03 1362.75 232.12 1361.29 228.95 1370.58 234.15"/><path class="cls-4" d="M1394.38,241.47l-2.87,1.67c2.94-1.71,4.76-5.34,4.78-10.5l2.87-1.66C1399.14,236.14,1397.32,239.77,1394.38,241.47Z"/><polygon class="cls-4" points="1396.43 184.53 1399.29 182.86 1399.16 230.98 1396.29 232.64 1396.43 184.53"/><polygon class="cls-4" points="1215.27 61.1 1218.13 59.43 1382.98 154.6 1380.11 156.27 1215.27 61.1"/><path class="cls-5" d="M1380.11,156.27c9,5.22,16.35,17.87,16.32,28.26l-.14,48.11c0,10.39-7.38,14.58-16.42,9.36l-1.47-.85,1.47-1.47-9.29-5.53-9.29-5.2,1.46,3.17L1215,146.83c-9-5.22-16.34-17.87-16.31-28.26l.14-48.12c0-10.38,7.38-14.57,16.42-9.35Z"/><path class="cls-4" d="M1380.11,156.27l2.87-1.67c9,5.22,16.34,17.87,16.31,28.26l-2.86,1.67C1396.46,174.14,1389.15,161.49,1380.11,156.27Z"/></g><polygon class="cls-6" points="1274.88 107.56 1277.38 117.81 1285.46 122.47 1278.92 124.14 1281.42 134.4 1274.88 125.18 1268.35 126.85 1270.84 119.48 1264.31 110.26 1272.39 114.92 1274.88 107.56"/><polygon class="cls-6" points="1297.78 120.78 1300.28 131.03 1308.36 135.69 1301.82 137.37 1304.32 147.62 1297.78 138.4 1291.25 140.07 1293.74 132.7 1287.21 123.48 1295.29 128.15 1297.78 120.78"/><polygon class="cls-6" points="1320.68 134 1323.18 144.25 1331.26 148.92 1324.72 150.59 1327.22 160.84 1320.68 151.62 1314.15 153.29 1316.64 145.92 1310.11 136.7 1318.19 141.37 1320.68 134"/><polygon class="cls-6" points="1343.58 147.22 1346.08 157.47 1354.16 162.14 1347.63 163.81 1350.12 174.06 1343.58 164.84 1337.05 166.51 1339.54 159.14 1333.01 149.92 1341.09 154.59 1343.58 147.22"/><polygon class="cls-8" points="1366.48 160.44 1368.98 170.69 1377.06 175.36 1370.53 177.03 1373.02 187.28 1366.48 178.06 1359.95 179.73 1362.44 172.36 1355.91 163.15 1363.99 167.81 1366.48 160.44"/><ellipse class="cls-7" cx="1232.75" cy="115.54" rx="21.85" ry="37.85" transform="translate(110.66 638.93) rotate(-30.36)"/><ellipse class="cls-5" cx="1232.75" cy="126.67" rx="10.93" ry="23.49" transform="translate(336.29 982.29) rotate(-49.53)"/><path class="cls-5" d="M1240.52,104.44c0,4.92-3.48,6.9-7.77,4.42A17.08,17.08,0,0,1,1225,95.48c0-4.92,3.47-6.9,7.76-4.43S1240.52,99.53,1240.52,104.44Z"/><path class="cls-7" d="M1344.4,188.24,1271.14,146a5.44,5.44,0,0,1-2.28-4.34h0c0-1.68,1-2.44,2.28-1.72l73.26,42.3a5.43,5.43,0,0,1,2.27,4.34h0C1346.67,188.2,1345.65,189,1344.4,188.24Z"/><path class="cls-7" d="M1374.53,216.41l-103.39-59.69a5.44,5.44,0,0,1-2.28-4.34h0c0-1.68,1-2.44,2.28-1.72l103.39,59.69a5.46,5.46,0,0,1,2.27,4.34h0C1376.8,216.37,1375.78,217.13,1374.53,216.41Z"/><g class="cls-3"><path class="cls-4" d="M474.06,780.36l2.87-1.67c3-1.73,7.1-1.49,11.65,1.14l-2.87,1.67C481.16,778.87,477,778.63,474.06,780.36Z"/><polygon class="cls-4" points="631.74 949.35 634.61 947.69 636.07 950.86 633.2 952.52 631.74 949.35"/><polygon class="cls-4" points="631.74 949.35 634.61 947.69 643.9 952.89 641.03 954.55 631.74 949.35"/><polygon class="cls-4" points="648.84 961.56 651.71 959.89 643.85 967.77 640.99 969.43 648.84 961.56"/><polygon class="cls-4" points="641.03 954.55 643.9 952.89 653.18 958.41 650.32 960.08 641.03 954.55"/><polygon class="cls-4" points="650.32 960.08 653.18 958.41 651.71 959.89 648.84 961.56 650.32 960.08"/><polygon class="cls-5" points="641.03 954.55 650.32 960.08 648.84 961.56 640.99 969.43 633.2 952.52 631.74 949.35 641.03 954.55"/><path class="cls-4" d="M664.83,961.88,662,963.54c2.94-1.7,4.76-5.33,4.77-10.49l2.87-1.67C669.59,956.54,667.77,960.17,664.83,961.88Z"/><polygon class="cls-4" points="666.87 904.93 669.74 903.26 669.6 951.38 666.73 953.05 666.87 904.93"/><polygon class="cls-4" points="485.71 781.5 488.58 779.83 653.42 875 650.56 876.67 485.71 781.5"/><path class="cls-5" d="M650.56,876.67c9,5.22,16.34,17.87,16.31,28.26l-.14,48.12c0,10.38-7.38,14.57-16.42,9.35l-1.47-.84,1.48-1.48L641,954.55l-9.29-5.2,1.46,3.17L485.47,867.23c-9-5.22-16.35-17.87-16.32-28.26l.14-48.11c0-10.39,7.38-14.58,16.42-9.36Z"/><path class="cls-4" d="M650.56,876.67l2.86-1.66c9,5.21,16.35,17.86,16.32,28.25l-2.87,1.67C666.9,894.54,659.59,881.89,650.56,876.67Z"/></g><polygon class="cls-6" points="545.33 827.96 547.82 838.21 555.9 842.88 549.37 844.55 551.86 854.8 545.33 845.58 538.79 847.25 541.29 839.88 534.75 830.66 542.83 835.33 545.33 827.96"/><polygon class="cls-6" points="568.23 841.18 570.72 851.43 578.8 856.1 572.27 857.77 574.76 868.02 568.23 858.8 561.69 860.47 564.19 853.1 557.65 843.88 565.73 848.55 568.23 841.18"/><polygon class="cls-6" points="591.13 854.4 593.63 864.65 601.71 869.32 595.17 870.99 597.66 881.24 591.13 872.02 584.59 873.69 587.09 866.32 580.55 857.11 588.63 861.77 591.13 854.4"/><polygon class="cls-6" points="614.03 867.62 616.52 877.88 624.61 882.54 618.07 884.21 620.57 894.46 614.03 885.24 607.49 886.91 609.99 879.54 603.45 870.33 611.53 874.99 614.03 867.62"/><polygon class="cls-8" points="636.93 880.85 639.42 891.1 647.51 895.76 640.97 897.43 643.47 907.68 636.93 898.46 630.39 900.13 632.89 892.77 626.35 883.55 634.43 888.21 636.93 880.85"/><ellipse class="cls-7" cx="503.2" cy="835.94" rx="21.85" ry="37.85" transform="translate(-353.51 368.97) rotate(-30.36)"/><ellipse class="cls-5" cx="503.2" cy="847.08" rx="10.93" ry="23.49" transform="translate(-467.82 680.11) rotate(-49.53)"/><path class="cls-5" d="M511,824.85c0,4.91-3.47,6.89-7.76,4.42s-7.77-8.48-7.77-13.39,3.48-6.9,7.77-4.42A17.09,17.09,0,0,1,511,824.85Z"/><path class="cls-7" d="M614.84,908.65l-73.26-42.3a5.45,5.45,0,0,1-2.27-4.34h0c0-1.67,1-2.44,2.27-1.72l73.26,42.3a5.45,5.45,0,0,1,2.27,4.34h0C617.11,908.6,616.09,909.37,614.84,908.65Z"/><path class="cls-7" d="M645,936.81,541.58,877.12a5.45,5.45,0,0,1-2.27-4.34h0c0-1.67,1-2.44,2.27-1.72L645,930.75a5.46,5.46,0,0,1,2.27,4.34h0C647.24,936.77,646.22,937.54,645,936.81Z"/><g class="cls-3"><path class="cls-4" d="M243.15,638.14l2.87-1.66c3-1.73,7.1-1.49,11.65,1.14l-2.87,1.66C250.25,636.66,246.13,636.41,243.15,638.14Z"/><polygon class="cls-4" points="400.82 807.14 403.69 805.47 405.15 808.64 402.28 810.31 400.82 807.14"/><polygon class="cls-4" points="400.82 807.14 403.69 805.47 412.98 810.67 410.12 812.34 400.82 807.14"/><polygon class="cls-4" points="417.93 819.34 420.8 817.67 412.94 825.55 410.07 827.22 417.93 819.34"/><polygon class="cls-4" points="410.12 812.34 412.98 810.67 422.27 816.2 419.4 817.87 410.12 812.34"/><polygon class="cls-4" points="419.4 817.87 422.27 816.2 420.8 817.67 417.93 819.34 419.4 817.87"/><polygon class="cls-5" points="410.12 812.34 419.4 817.87 417.93 819.34 410.07 827.22 402.28 810.31 400.82 807.14 410.12 812.34"/><path class="cls-4" d="M433.91,819.66l-2.86,1.67c2.93-1.71,4.76-5.34,4.77-10.5l2.87-1.66C438.67,814.32,436.85,818,433.91,819.66Z"/><polygon class="cls-4" points="435.96 762.72 438.82 761.05 438.69 809.16 435.82 810.83 435.96 762.72"/><polygon class="cls-4" points="254.8 639.28 257.67 637.62 422.51 732.79 419.64 734.46 254.8 639.28"/><path class="cls-5" d="M419.64,734.46c9,5.22,16.35,17.87,16.32,28.25l-.14,48.12c0,10.39-7.38,14.58-16.42,9.36l-1.47-.85,1.47-1.47-9.29-5.53-9.28-5.2,1.45,3.17L254.55,725c-9-5.22-16.34-17.87-16.31-28.26l.14-48.12c0-10.39,7.38-14.57,16.42-9.36Z"/><path class="cls-4" d="M419.64,734.46l2.87-1.67c9,5.22,16.34,17.87,16.32,28.26L436,762.71C436,752.33,428.68,739.68,419.64,734.46Z"/></g><polygon class="cls-6" points="314.41 685.75 316.91 696 324.99 700.66 318.45 702.33 320.95 712.58 314.41 703.36 307.88 705.03 310.37 697.67 303.84 688.45 311.92 693.11 314.41 685.75"/><polygon class="cls-6" points="337.31 698.97 339.81 709.22 347.89 713.88 341.36 715.55 343.85 725.8 337.31 716.59 330.78 718.26 333.27 710.89 326.74 701.67 334.82 706.33 337.31 698.97"/><polygon class="cls-6" points="360.21 712.19 362.71 722.44 370.79 727.1 364.25 728.77 366.75 739.03 360.21 729.81 353.68 731.48 356.18 724.11 349.64 714.89 357.72 719.56 360.21 712.19"/><polygon class="cls-6" points="383.12 725.41 385.61 735.66 393.69 740.33 387.15 742 389.65 752.25 383.12 743.03 376.58 744.7 379.07 737.33 372.54 728.11 380.62 732.78 383.12 725.41"/><polygon class="cls-6" points="406.01 738.63 408.51 748.88 416.59 753.55 410.06 755.22 412.55 765.47 406.01 756.25 399.48 757.92 401.98 750.55 395.44 741.33 403.52 746 406.01 738.63"/><ellipse class="cls-7" cx="272.28" cy="693.73" rx="21.85" ry="37.85" transform="translate(-313.3 232.76) rotate(-30.36)"/><ellipse class="cls-5" cx="272.28" cy="704.86" rx="10.93" ry="23.49" transform="translate(-440.67 454.53) rotate(-49.53)"/><path class="cls-5" d="M280.05,682.63c0,4.92-3.48,6.9-7.77,4.42a17.09,17.09,0,0,1-7.76-13.39c0-4.92,3.47-6.89,7.76-4.42S280.05,677.71,280.05,682.63Z"/><path class="cls-7" d="M383.93,766.43l-73.26-42.29a5.44,5.44,0,0,1-2.27-4.34h0c0-1.68,1-2.45,2.27-1.72l73.26,42.29a5.47,5.47,0,0,1,2.27,4.35h0C386.2,766.39,385.18,767.16,383.93,766.43Z"/><path class="cls-7" d="M414.06,794.6,310.67,734.91a5.44,5.44,0,0,1-2.27-4.34h0c0-1.68,1-2.45,2.27-1.72l103.39,59.69a5.45,5.45,0,0,1,2.27,4.34h0C416.33,794.55,415.31,795.32,414.06,794.6Z"/><g class="cls-3"><path class="cls-4" d="M1041.83,85.54l2.86-1.67c3-1.72,7.1-1.48,11.65,1.15l-2.87,1.66C1048.92,84.06,1044.8,83.81,1041.83,85.54Z"/><polygon class="cls-4" points="1199.5 254.54 1202.37 252.87 1203.83 256.04 1200.96 257.71 1199.5 254.54"/><polygon class="cls-4" points="1199.5 254.54 1202.37 252.87 1211.66 258.07 1208.79 259.74 1199.5 254.54"/><polygon class="cls-4" points="1216.61 266.74 1219.47 265.07 1211.62 272.95 1208.75 274.62 1216.61 266.74"/><polygon class="cls-4" points="1208.79 259.74 1211.66 258.07 1220.95 263.6 1218.08 265.26 1208.79 259.74"/><polygon class="cls-4" points="1218.08 265.26 1220.95 263.6 1219.47 265.07 1216.61 266.74 1218.08 265.26"/><polygon class="cls-5" points="1208.79 259.74 1218.08 265.26 1216.61 266.74 1208.75 274.62 1200.96 257.71 1199.5 254.54 1208.79 259.74"/><path class="cls-4" d="M1232.59,267.06l-2.87,1.67c2.94-1.71,4.76-5.34,4.78-10.5l2.86-1.67C1237.35,261.72,1235.53,265.35,1232.59,267.06Z"/><polygon class="cls-4" points="1234.63 210.11 1237.5 208.45 1237.36 256.56 1234.49 258.23 1234.63 210.11"/><polygon class="cls-4" points="1053.47 86.68 1056.34 85.02 1221.19 180.19 1218.32 181.86 1053.47 86.68"/><path class="cls-5" d="M1218.32,181.86c9,5.22,16.34,17.87,16.31,28.25l-.13,48.12c0,10.39-7.39,14.58-16.43,9.36l-1.46-.85,1.47-1.47-9.29-5.53-9.29-5.2,1.46,3.17-147.73-85.3c-9-5.21-16.34-17.87-16.32-28.25l.14-48.12c0-10.39,7.38-14.58,16.42-9.36Z"/><path class="cls-4" d="M1218.32,181.86l2.87-1.67c9,5.22,16.34,17.87,16.31,28.26l-2.87,1.66C1234.66,199.73,1227.36,187.08,1218.32,181.86Z"/></g><polygon class="cls-6" points="1113.09 133.14 1115.59 143.4 1123.67 148.06 1117.13 149.73 1119.63 159.98 1113.09 150.76 1106.55 152.43 1109.05 145.06 1102.51 135.85 1110.59 140.51 1113.09 133.14"/><polygon class="cls-6" points="1135.99 146.37 1138.49 156.62 1146.57 161.28 1140.03 162.95 1142.53 173.2 1135.99 163.98 1129.45 165.66 1131.95 158.29 1125.41 149.07 1133.49 153.73 1135.99 146.37"/><polygon class="cls-6" points="1158.89 159.59 1161.39 169.84 1169.47 174.5 1162.93 176.17 1165.43 186.43 1158.89 177.21 1152.35 178.88 1154.85 171.51 1148.31 162.29 1156.39 166.95 1158.89 159.59"/><polygon class="cls-6" points="1181.79 172.81 1184.29 183.06 1192.37 187.72 1185.83 189.4 1188.33 199.65 1181.79 190.43 1175.25 192.1 1177.75 184.73 1171.21 175.51 1179.29 180.18 1181.79 172.81"/><polygon class="cls-6" points="1204.69 186.03 1207.19 196.28 1215.27 200.95 1208.73 202.62 1211.23 212.87 1204.69 203.65 1198.15 205.32 1200.65 197.95 1194.11 188.73 1202.19 193.4 1204.69 186.03"/><ellipse class="cls-7" cx="1070.96" cy="141.13" rx="21.85" ry="37.85" transform="translate(75.54 560.66) rotate(-30.36)"/><ellipse class="cls-5" cx="1070.96" cy="152.26" rx="10.93" ry="23.49" transform="translate(260.04 868.19) rotate(-49.53)"/><path class="cls-5" d="M1078.73,130c0,4.92-3.48,6.9-7.77,4.42s-7.77-8.47-7.77-13.39,3.48-6.9,7.77-4.42S1078.73,125.11,1078.73,130Z"/><path class="cls-7" d="M1182.6,213.83l-73.26-42.29a5.47,5.47,0,0,1-2.27-4.35h0c0-1.67,1-2.44,2.27-1.71l73.26,42.29a5.44,5.44,0,0,1,2.27,4.34h0C1184.87,213.79,1183.86,214.56,1182.6,213.83Z"/><path class="cls-7" d="M1212.73,242l-103.39-59.69a5.47,5.47,0,0,1-2.27-4.35h0c0-1.67,1-2.44,2.27-1.71l103.39,59.69a5.42,5.42,0,0,1,2.27,4.34h0C1215,242,1214,242.72,1212.73,242Z"/><g class="cls-3"><path class="cls-4" d="M413.59,490.46l2.86-1.67c3-1.73,7.1-1.49,11.65,1.14l-2.87,1.67C420.68,489,416.56,488.73,413.59,490.46Z"/><polygon class="cls-4" points="571.26 659.45 574.13 657.78 575.59 660.95 572.72 662.62 571.26 659.45"/><polygon class="cls-4" points="571.26 659.45 574.13 657.78 583.42 662.99 580.55 664.65 571.26 659.45"/><polygon class="cls-4" points="588.37 671.65 591.24 669.99 583.38 677.86 580.51 679.53 588.37 671.65"/><polygon class="cls-4" points="580.55 664.65 583.42 662.99 592.71 668.51 589.84 670.18 580.55 664.65"/><polygon class="cls-4" points="589.84 670.18 592.71 668.51 591.24 669.99 588.37 671.65 589.84 670.18"/><polygon class="cls-5" points="580.55 664.65 589.84 670.18 588.37 671.65 580.51 679.53 572.72 662.62 571.26 659.45 580.55 664.65"/><path class="cls-4" d="M604.35,672l-2.87,1.67c2.94-1.71,4.76-5.34,4.78-10.5l2.86-1.66C609.11,666.64,607.29,670.27,604.35,672Z"/><polygon class="cls-4" points="606.39 615.03 609.26 613.36 609.12 661.48 606.26 663.14 606.39 615.03"/><polygon class="cls-4" points="425.23 491.6 428.1 489.93 592.95 585.1 590.08 586.77 425.23 491.6"/><path class="cls-5" d="M590.08,586.77c9,5.22,16.34,17.87,16.31,28.26l-.13,48.11c0,10.39-7.39,14.58-16.42,9.36l-1.47-.85,1.47-1.47-9.29-5.53-9.29-5.2,1.46,3.17L425,577.33c-9-5.22-16.34-17.87-16.31-28.26l.13-48.12c0-10.38,7.38-14.57,16.42-9.35Z"/><path class="cls-4" d="M590.08,586.77,593,585.1c9,5.22,16.34,17.87,16.31,28.26L606.39,615C606.42,604.64,599.12,592,590.08,586.77Z"/></g><polygon class="cls-6" points="484.85 538.06 487.35 548.31 495.43 552.97 488.89 554.64 491.39 564.89 484.85 555.68 478.31 557.35 480.81 549.98 474.27 540.76 482.35 545.42 484.85 538.06"/><polygon class="cls-6" points="507.75 551.28 510.25 561.53 518.33 566.2 511.79 567.87 514.29 578.12 507.75 568.9 501.21 570.57 503.71 563.2 497.17 553.98 505.25 558.65 507.75 551.28"/><polygon class="cls-6" points="530.65 564.5 533.15 574.75 541.23 579.42 534.69 581.09 537.19 591.34 530.65 582.12 524.11 583.79 526.61 576.42 520.07 567.2 528.15 571.87 530.65 564.5"/><polygon class="cls-6" points="553.55 577.72 556.05 587.97 564.13 592.64 557.59 594.31 560.09 604.56 553.55 595.34 547.01 597.01 549.51 589.64 542.97 580.42 551.05 585.09 553.55 577.72"/><polygon class="cls-6" points="576.45 590.94 578.95 601.19 587.03 605.86 580.49 607.53 582.99 617.78 576.45 608.56 569.91 610.23 572.41 602.86 565.87 593.64 573.95 598.31 576.45 590.94"/><ellipse class="cls-7" cx="442.72" cy="546.04" rx="21.85" ry="37.85" transform="translate(-215.28 298.65) rotate(-30.36)"/><ellipse class="cls-5" cx="442.72" cy="557.17" rx="10.93" ry="23.49" transform="translate(-268.5 532.36) rotate(-49.53)"/><path class="cls-5" d="M450.49,534.94c0,4.92-3.48,6.9-7.77,4.42S435,530.89,435,526s3.48-6.9,7.77-4.43S450.49,530,450.49,534.94Z"/><path class="cls-7" d="M554.36,618.74,481.1,576.45a5.46,5.46,0,0,1-2.27-4.34h0c0-1.67,1-2.44,2.27-1.72l73.26,42.3a5.41,5.41,0,0,1,2.27,4.34h0C556.63,618.7,555.62,619.47,554.36,618.74Z"/><path class="cls-7" d="M584.49,646.91,481.1,587.22a5.46,5.46,0,0,1-2.27-4.34h0c0-1.67,1-2.44,2.27-1.72l103.39,59.69a5.44,5.44,0,0,1,2.27,4.34h0C586.76,646.87,585.75,647.63,584.49,646.91Z"/></svg>