<svg id="Layer_1" data-name="Layer 1" xmlns="http://www.w3.org/2000/svg" viewBox="0 0 4504.77 2502.57"><defs><style>.cls-1{fill:#edf5fc;}.cls-2{fill:#ddedf9;}.cls-10,.cls-11,.cls-12,.cls-14,.cls-2,.cls-28,.cls-3,.cls-32,.cls-4,.cls-5,.cls-8,.cls-9{fill-rule:evenodd;}.cls-3{fill-opacity:0.23;}.cls-23,.cls-28,.cls-30,.cls-4{fill:#76b5e6;}.cls-5{fill:#d4e8f7;}.cls-6,.cls-9{fill:#fff;}.cls-7{fill:#14385a;}.cls-8{fill-opacity:0.24;}.cls-10{fill:#117bc0;}.cls-11{fill:#d1edff;}.cls-12{fill:#54bafb;}.cls-13{fill:#b5deff;}.cls-14,.cls-27{fill:#2d4584;}.cls-15{fill-opacity:0.18;}.cls-16{fill:#ffab65;}.cls-17{fill:#ffc787;}.cls-18{fill:#edd573;}.cls-19{fill:#c4b26b;}.cls-20{fill:#eee2b8;}.cls-21{fill:#44ae9e;}.cls-22{fill:#2d7268;}.cls-24{fill:#247ec4;}.cls-25{fill:#e52671;}.cls-26{fill:#ec6198;}.cls-28{fill-opacity:0.39;}.cls-29{fill:none;stroke:#ec6198;stroke-linecap:round;stroke-linejoin:round;stroke-width:3.19px;}.cls-30{fill-opacity:0.46;}.cls-31,.cls-32{fill:#52a2e0;}</style></defs><g id="c70"><rect class="cls-1" x="5.13" y="2.65" width="4499.64" height="2499.92"/><path class="cls-2" d="M5.14,2224.3v278.27H4504.76V1989.05c-276.86-245.27-750.12-321.09-1105.49-309.2-329.49,11-657.3,41.44-980.67,109.07C1809.67,1916.27,690.33,2287.72,5.14,2224.3ZM4504.76,704.41V2.66H1617A3364.45,3364.45,0,0,1,2156.25,158.8C2922.88,452.72,3673.34,806.81,4504.76,704.41ZM473.1,2.66H5.14v181.7C151.06,101.45,308.76,42,473.1,2.66Z"/><path class="cls-3" d="M4242.61,374.37a17.14,17.14,0,0,0-17.09-17.16h-1428a17.13,17.13,0,0,0-17.09,17.16v734a17.13,17.13,0,0,0,17.09,17.16h1428a17.14,17.14,0,0,0,17.09-17.16Z"/><path class="cls-3" d="M4236.66,1318.55c0-12.06-11.74-21.85-26.23-21.85H3359c-14.48,0-26.23,9.79-26.23,21.85V1453.7c0,12.06,11.75,21.85,26.23,21.85h851.41c14.49,0,26.23-9.79,26.23-21.85Z"/><path class="cls-3" d="M4236.66,1549.79c0-12.06-11.74-21.86-26.23-21.86H3359c-14.48,0-26.23,9.8-26.23,21.86v135.14c0,12.07,11.75,21.86,26.23,21.86h851.41c14.49,0,26.23-9.79,26.23-21.86Z"/><path class="cls-3" d="M4236.66,1781c0-12.06-11.74-21.85-26.23-21.85H3359c-14.48,0-26.23,9.79-26.23,21.85v135.15c0,12.06,11.75,21.85,26.23,21.85h851.41c14.49,0,26.23-9.79,26.23-21.85Z"/><path class="cls-4" d="M4217.93,1292.61c0-12.06-11.74-21.85-26.23-21.85H3340.29c-14.48,0-26.23,9.79-26.23,21.85v135.15c0,12.06,11.75,21.85,26.23,21.85H4191.7c14.49,0,26.23-9.79,26.23-21.85Z"/><path class="cls-4" d="M4217.93,1523.85c0-12.06-11.74-21.86-26.23-21.86H3340.29c-14.48,0-26.23,9.8-26.23,21.86V1659c0,12.06,11.75,21.85,26.23,21.85H4191.7c14.49,0,26.23-9.79,26.23-21.85Z"/><path class="cls-4" d="M4217.93,1755.08c0-12.06-11.74-21.85-26.23-21.85H3340.29c-14.48,0-26.23,9.79-26.23,21.85v135.15c0,12.06,11.75,21.85,26.23,21.85H4191.7c14.49,0,26.23-9.79,26.23-21.85Z"/><path class="cls-5" d="M4185.17,1326.66a33.86,33.86,0,0,0-33.78-33.89H3841.55a33.86,33.86,0,0,0-33.78,33.89v67.79a33.86,33.86,0,0,0,33.78,33.89h309.84a33.86,33.86,0,0,0,33.78-33.89Z"/><path class="cls-5" d="M4185.17,1560.65a33.86,33.86,0,0,0-33.78-33.9H3841.55a33.86,33.86,0,0,0-33.78,33.9v67.78a33.86,33.86,0,0,0,33.78,33.9h309.84a33.86,33.86,0,0,0,33.78-33.9Z"/><path class="cls-5" d="M4185.17,1794.63a33.86,33.86,0,0,0-33.78-33.9H3841.55a33.86,33.86,0,0,0-33.78,33.9v67.79a33.86,33.86,0,0,0,33.78,33.89h309.84a33.86,33.86,0,0,0,33.78-33.89Z"/><path class="cls-6" d="M3382,1370.92h17.94l-8.81-27.93Zm.91-44.16h16.72l25,71h-16l-4.57-14.59H3378l-4.88,14.59h-15.45Z"/><path class="cls-6" d="M3464.75,1345.26h14.71l-18.89,52.48h-14.43l-18.78-52.48h15.37l10.89,38.71Z"/><path class="cls-6" d="M3497.15,1366.25h21.28c-.21-3.63-1.34-6.38-3.3-8.26a10.15,10.15,0,0,0-7.31-2.82,9.28,9.28,0,0,0-7.37,3A15,15,0,0,0,3497.15,1366.25Zm31.07-12.18a26.5,26.5,0,0,1,4,10.83,74.75,74.75,0,0,1,.46,10.4h-35.81c.17,5.27,1.82,9,4.91,11.08a11.69,11.69,0,0,0,6.85,2,9.76,9.76,0,0,0,6.84-2.4,11.68,11.68,0,0,0,2.57-3.62h13.93q-.53,4.68-4.84,9.49-6.69,7.67-18.82,7.66a26.47,26.47,0,0,1-17.59-6.45q-7.64-6.46-7.65-21c0-9.09,2.31-16,6.88-20.9s10.57-7.27,17.9-7.27a27.35,27.35,0,0,1,11.76,2.46A20.67,20.67,0,0,1,3528.22,1354.07Z"/><path class="cls-6" d="M3572.07,1344.1v14.06c-.84-.09-1.61-.16-2.28-.19s-1.23,0-1.65,0c-5.51,0-9.2,1.8-11.1,5.39q-1.58,3-1.57,9.34v25.09H3541.7v-52.48h13.06v9.15c2.11-3.51,3.94-5.9,5.52-7.18a15,15,0,0,1,10-3.23,5.74,5.74,0,0,1,.66,0Z"/><path class="cls-6" d="M3608.93,1372.22a14.13,14.13,0,0,1-2.59,1.33,23.36,23.36,0,0,1-3.62.94l-3.09.57a19.92,19.92,0,0,0-6.18,1.88,6.33,6.33,0,0,0-3.16,5.83c0,2.34.63,4,1.93,5.08a7.35,7.35,0,0,0,4.74,1.56,13.77,13.77,0,0,0,8.11-2.6q3.75-2.6,3.86-9.48Zm-8.28-6.4a20.7,20.7,0,0,0,5.41-1.21q2.94-1.24,2.94-3.9c0-2.15-.73-3.63-2.24-4.45a13.76,13.76,0,0,0-6.53-1.23c-3.23,0-5.55.8-6.88,2.41a10,10,0,0,0-1.93,4.81h-13.2a20.27,20.27,0,0,1,3.86-11.31c3.61-4.62,9.83-6.94,18.6-6.94a33.09,33.09,0,0,1,15.28,3.42c4.46,2.28,6.67,6.58,6.67,12.91v24.07c0,1.67,0,3.7.1,6.07a7.67,7.67,0,0,0,.81,3.66,5,5,0,0,0,2,1.59v2h-14.85a13.73,13.73,0,0,1-.88-3c-.17-.93-.28-2-.38-3.18a28.69,28.69,0,0,1-6.53,5.25,19.54,19.54,0,0,1-10,2.55,17.18,17.18,0,0,1-11.77-4.07q-4.62-4.07-4.63-11.53,0-9.67,7.44-14,4.11-2.37,12-3.37Z"/><path class="cls-6" d="M3668.65,1371.26c0-5-1.05-8.76-3.12-11.37a10.31,10.31,0,0,0-8.43-3.9c-4.81,0-8.11,2.27-9.93,6.8a23.47,23.47,0,0,0-1.44,8.9,20.45,20.45,0,0,0,1.51,8.14,10,10,0,0,0,10,6.65,10.57,10.57,0,0,0,8.11-3.64C3667.57,1380.42,3668.65,1376.56,3668.65,1371.26Zm-8-26a16.37,16.37,0,0,1,8.08,7.61v-7.56h13.3v49.79q0,10.15-3.44,15.31-5.84,8.87-22.43,8.86c-6.71,0-12.15-1.31-16.4-4a14.6,14.6,0,0,1-7-11.8h14.88a6.15,6.15,0,0,0,1.86,3.47c1.48,1.25,4,1.88,7.45,1.88q7.36,0,9.9-5c1.09-2.12,1.61-5.68,1.61-10.69v-3.37a16.51,16.51,0,0,1-4.21,5.06,17.07,17.07,0,0,1-10.6,3.13q-10.11,0-16.12-7.11c-4-4.73-6-11.15-6-19.24,0-7.8,2-14.35,5.83-19.67s9.34-8,16.47-8A17.9,17.9,0,0,1,3660.68,1345.21Z"/><path class="cls-6" d="M3704.81,1366.25h21.25c-.22-3.63-1.3-6.38-3.27-8.26a10.22,10.22,0,0,0-7.34-2.82,9.32,9.32,0,0,0-7.37,3A15,15,0,0,0,3704.81,1366.25Zm31-12.18a27,27,0,0,1,4,10.83,70,70,0,0,1,.42,10.4h-35.81c.21,5.27,1.83,9,4.95,11.08a11.59,11.59,0,0,0,6.81,2,9.94,9.94,0,0,0,6.89-2.4,11.6,11.6,0,0,0,2.52-3.62h14q-.53,4.68-4.85,9.49c-4.49,5.11-10.78,7.66-18.82,7.66a26.48,26.48,0,0,1-17.62-6.45q-7.64-6.46-7.62-21,0-13.63,6.88-20.9c4.6-4.85,10.53-7.27,17.87-7.27a27.22,27.22,0,0,1,11.76,2.46A20.44,20.44,0,0,1,3735.85,1354.07Z"/><path class="cls-7" d="M3837.28,1349.59v-9.34a60.35,60.35,0,0,0,9.06-.87,12.75,12.75,0,0,0,6.74-3.66,11.74,11.74,0,0,0,2.66-5,10.33,10.33,0,0,0,.57-2.79h11.37v69.82h-14v-48.15Z"/><path class="cls-7" d="M3937,1339.57a85.44,85.44,0,0,0-8.56,10.81,97.24,97.24,0,0,0-9.17,16.07,95.09,95.09,0,0,0-5.26,15.88,65.62,65.62,0,0,0-2.35,15.41h-14.22q.63-18.77,12.29-39,7.53-12.57,12.63-17.53h-34.72l.21-12.33H3937Z"/><path class="cls-7" d="M3946.64,1349.59v-9.34a60.35,60.35,0,0,0,9.06-.87,12.74,12.74,0,0,0,6.7-3.66,11.8,11.8,0,0,0,2.71-5,11.49,11.49,0,0,0,.52-2.79H3977v69.82h-14v-48.15Z"/><rect class="cls-7" x="4000.63" y="1383.39" width="14.55" height="14.35"/><path class="cls-7" d="M4073.62,1339.57a89.82,89.82,0,0,0-8.53,10.81,90.06,90.06,0,0,0-14.46,31.95,67.25,67.25,0,0,0-2.35,15.41h-14.19q.59-18.77,12.29-39,7.53-12.57,12.6-17.53H4024.3l.17-12.33h49.15Z"/><path class="cls-7" d="M4092.69,1379.06a13.1,13.1,0,0,0,3.12,6.91c1.55,1.62,3.76,2.43,6.71,2.43a9.08,9.08,0,0,0,7.76-3.58,14.68,14.68,0,0,0,2.67-9,15.81,15.81,0,0,0-2.5-9c-1.68-2.46-4.25-3.69-7.79-3.69a13.38,13.38,0,0,0-4.32.63,8.58,8.58,0,0,0-4.84,4.28l-12.29-.57,4.91-38.58h38.34v11.66H4096l-2.49,15.27a27.11,27.11,0,0,1,4.95-2.75,20.78,20.78,0,0,1,7.23-1.11,21.69,21.69,0,0,1,15.09,5.83q6.43,5.82,6.43,17A26.6,26.6,0,0,1,4121,1392q-6.16,7.6-18.51,7.61-9.94,0-16.32-5.35c-4.25-3.56-6.64-8.62-7.09-15.17Z"/><path class="cls-6" d="M3373.33,1602.94q.68,4.86,2.63,7.27c2.39,2.92,6.53,4.38,12.32,4.38a25.64,25.64,0,0,0,8.5-1.16q6.21-2.21,6.21-8.23a6.05,6.05,0,0,0-3.09-5.44c-2-1.25-5.26-2.36-9.65-3.32l-7.48-1.69c-7.37-1.67-12.43-3.48-15.27-5.44-4.74-3.28-7.13-8.4-7.13-15.36a20.46,20.46,0,0,1,6.92-15.85q6.9-6.3,20.29-6.31,11.16,0,19.06,6t8.29,17.27h-14.19q-.42-6.4-5.58-9.11a18.73,18.73,0,0,0-8.6-1.78c-3.79,0-6.84.77-9.13,2.31a7.46,7.46,0,0,0-3.4,6.46,6.09,6.09,0,0,0,3.37,5.68c1.44.84,4.53,1.81,9.23,2.94l12.18,2.94c5.34,1.28,9.38,3,12.08,5.15q6.38,5,6.36,14.49a20.59,20.59,0,0,1-7.41,16.16q-7.43,6.43-21,6.43c-9.24,0-16.47-2.11-21.77-6.34s-7.9-10-7.9-17.4Z"/><path class="cls-6" d="M3498.45,1577.27a15.12,15.12,0,0,1,3,6.74,46.38,46.38,0,0,1,.5,7.76l-.11,33.08h-14v-33.42a10.57,10.57,0,0,0-1-4.91c-1.19-2.44-3.44-3.66-6.71-3.66-3.79,0-6.39,1.57-7.83,4.71a15,15,0,0,0-1.08,6v31.26h-13.8v-31.26a17.79,17.79,0,0,0-.95-6.78c-1.16-2.54-3.4-3.81-6.77-3.81-3.9,0-6.54,1.27-7.87,3.81a14.57,14.57,0,0,0-1.12,6.45v31.59h-13.87v-52.4h13.31v7.66a21.73,21.73,0,0,1,4.81-5.83q3.95-3.08,10.32-3.08a16.3,16.3,0,0,1,9.69,2.65,15.56,15.56,0,0,1,4.49,6.31,17.56,17.56,0,0,1,6.67-6.79,20.37,20.37,0,0,1,9.41-2.17,17.94,17.94,0,0,1,6.81,1.35A15.21,15.21,0,0,1,3498.45,1577.27Z"/><path class="cls-6" d="M3543.32,1599.32a13.89,13.89,0,0,1-2.6,1.33,22.27,22.27,0,0,1-3.62.94l-3.09.58a19.62,19.62,0,0,0-6.17,1.87,6.31,6.31,0,0,0-3.16,5.83c0,2.35.63,4,1.93,5.08a7.36,7.36,0,0,0,4.74,1.57,13.88,13.88,0,0,0,8.11-2.6c2.49-1.74,3.79-4.9,3.86-9.49Zm-8.29-6.4a21.21,21.21,0,0,0,5.41-1.2q3-1.26,2.95-3.9c0-2.16-.74-3.64-2.25-4.46a13.74,13.74,0,0,0-6.53-1.23c-3.23,0-5.55.8-6.88,2.41a10.44,10.44,0,0,0-1.93,4.82h-13.2a20.3,20.3,0,0,1,3.86-11.32q5.43-6.93,18.61-6.93a33.07,33.07,0,0,1,15.27,3.41c4.46,2.28,6.67,6.59,6.67,12.91v24.08c0,1.67,0,3.69.11,6.07a7.77,7.77,0,0,0,.8,3.66,5.05,5.05,0,0,0,2,1.58v2h-14.85a15.87,15.87,0,0,1-.87-3c-.14-.93-.29-2-.39-3.18a28.21,28.21,0,0,1-6.53,5.25,19.44,19.44,0,0,1-10,2.55,17.12,17.12,0,0,1-11.73-4.06c-3.12-2.72-4.63-6.56-4.63-11.54,0-6.45,2.46-11.12,7.44-14,2.7-1.58,6.71-2.7,12-3.37Z"/><rect class="cls-6" x="3569.44" y="1553.87" width="13.68" height="70.98"/><path class="cls-6" d="M3606.44,1593.35h21.28c-.21-3.62-1.34-6.38-3.3-8.26a10.18,10.18,0,0,0-7.3-2.81,9.33,9.33,0,0,0-7.38,3A15,15,0,0,0,3606.44,1593.35Zm31.07-12.18a26.5,26.5,0,0,1,4,10.83,74.83,74.83,0,0,1,.46,10.41h-35.81c.17,5.26,1.82,8.95,4.91,11.07a11.7,11.7,0,0,0,6.85,2,9.7,9.7,0,0,0,6.84-2.41,11.74,11.74,0,0,0,2.57-3.61h14c-.39,3.11-2,6.27-4.88,9.49-4.46,5.1-10.74,7.65-18.78,7.65a26.5,26.5,0,0,1-17.63-6.45q-7.64-6.45-7.65-21c0-9.08,2.32-16.05,6.88-20.9s10.57-7.27,17.91-7.27a27.38,27.38,0,0,1,11.76,2.46A20.77,20.77,0,0,1,3637.51,1581.17Z"/><path class="cls-6" d="M3661.81,1608.09c.28,2.44.91,4.17,1.86,5.2,1.68,1.83,4.84,2.74,9.41,2.74a14.07,14.07,0,0,0,6.39-1.2,3.82,3.82,0,0,0,2.38-3.61,3.88,3.88,0,0,0-1.93-3.52q-1.89-1.2-14.25-4.14c-5.9-1.47-10.08-3.32-12.5-5.54s-3.65-5.33-3.65-9.44a16.4,16.4,0,0,1,5.69-12.49q5.68-5.22,16-5.23c6.53,0,11.83,1.31,15.94,3.93s6.46,7.13,7.09,13.55h-13.69a7.9,7.9,0,0,0-1.48-4.18q-2.26-2.81-7.69-2.8c-3,0-5.09.47-6.35,1.4a4,4,0,0,0-1.9,3.27,3.58,3.58,0,0,0,2,3.42c1.37.74,6.11,2,14.26,3.81,5.44,1.28,9.55,3.23,12.25,5.82a13.24,13.24,0,0,1,4,9.88,15.93,15.93,0,0,1-5.8,12.73c-3.86,3.29-9.79,4.94-17.87,4.94s-14.28-1.74-18.22-5.23a17,17,0,0,1-5.9-13.31Z"/><path class="cls-6" d="M3700.43,1582.61v-9.77h7.3V1558.2h13.55v14.64h8.5v9.77h-8.5v27.74c0,2.15.25,3.49.81,4s2.21.8,5,.8l1.34,0,1.37-.08v10.26l-6.5.24c-6.46.22-10.88-.9-13.23-3.37-1.55-1.57-2.32-4-2.32-7.27v-32.32Z"/><path class="cls-7" d="M3826.32,1576.69v-9.34a59.7,59.7,0,0,0,9.1-.87,12.78,12.78,0,0,0,6.7-3.66,12.24,12.24,0,0,0,2.71-5,11.49,11.49,0,0,0,.52-2.79h11.38v69.83h-14v-48.16Z"/><path class="cls-7" d="M3901.7,1615.5a8.47,8.47,0,0,0,7.16-3.44,14.25,14.25,0,0,0,2.64-8.93q0-6.12-3-9.37a9.51,9.51,0,0,0-7.3-3.25,9.73,9.73,0,0,0-6.18,2.12q-4.05,3.13-4,10.11a13.79,13.79,0,0,0,3,9.2A9.59,9.59,0,0,0,3901.7,1615.5Zm8.53-42.9a6.88,6.88,0,0,0-1.3-3.71,7.49,7.49,0,0,0-6.67-3.27c-4.42,0-7.62,2.5-9.48,7.51-1.05,2.76-1.75,6.84-2.14,12.23a15.59,15.59,0,0,1,5.94-4.43,19.62,19.62,0,0,1,7.65-1.4,20,20,0,0,1,15.2,6.31c4,4.21,5.93,9.58,5.93,16.13a27.18,27.18,0,0,1-5.82,17.24c-3.87,5-9.87,7.47-18.05,7.47q-13.11,0-19.38-11-4.84-8.62-4.84-22.25a101.42,101.42,0,0,1,.66-13,39.73,39.73,0,0,1,4.67-14.83,23.58,23.58,0,0,1,7.8-8.14,20.85,20.85,0,0,1,11.55-3.08c6.46,0,11.62,1.66,15.44,5a19.08,19.08,0,0,1,6.5,13.27Z"/><path class="cls-7" d="M3955.94,1615.41c4.07,0,6.71-2.13,8-6.38s1.9-10.4,1.9-18.42q0-12.61-1.9-18.69c-1.26-4-3.9-6.06-8-6.06s-6.77,2-8.07,6.06-2,10.28-2,18.69c0,8,.67,14.17,2,18.42S3951.87,1615.41,3955.94,1615.41Zm24-24.8c0,11.52-1.75,20.4-5.33,26.63s-9.8,9.34-18.65,9.34-15.09-3.11-18.64-9.34-5.37-15.11-5.37-26.63,1.79-20.42,5.37-26.68,9.76-9.39,18.64-9.39,15.06,3.13,18.65,9.39S3979.92,1579.09,3979.92,1590.61Z"/><path class="cls-7" d="M4048.49,1591.19a12.58,12.58,0,0,0-2-5.3q-2.31-3.18-7.16-3.18c-4.6,0-7.76,2.3-9.44,6.89a28.18,28.18,0,0,0-1.37,9.72,25.93,25.93,0,0,0,1.37,9.3c1.61,4.37,4.7,6.55,9.19,6.55,3.2,0,5.48-.87,6.81-2.6a13,13,0,0,0,2.46-6.74h14a22.91,22.91,0,0,1-4.53,11.84q-6.43,9-19,9t-18.61-7.52c-4-5-5.93-11.5-5.93-19.5,0-9,2.17-16,6.56-21s10.43-7.51,18.15-7.51q9.86,0,16.12,4.42c4.18,3,6.63,8.18,7.41,15.66Z"/><path class="cls-7" d="M4143.28,1577.27a15.23,15.23,0,0,1,3,6.74,47.27,47.27,0,0,1,.46,7.76l-.07,33.08h-14v-33.42a11.13,11.13,0,0,0-.95-4.91c-1.23-2.44-3.44-3.66-6.71-3.66-3.79,0-6.39,1.57-7.83,4.71a15,15,0,0,0-1.12,6v31.26h-13.76v-31.26a17.79,17.79,0,0,0-.95-6.78c-1.16-2.54-3.41-3.81-6.78-3.81-3.89,0-6.53,1.27-7.86,3.81a14.57,14.57,0,0,0-1.12,6.45v31.59h-13.87v-52.4H4085v7.66a21.92,21.92,0,0,1,4.81-5.83,16.32,16.32,0,0,1,10.29-3.08,16.51,16.51,0,0,1,9.73,2.65,15.56,15.56,0,0,1,4.49,6.31,17.3,17.3,0,0,1,6.67-6.79,20.28,20.28,0,0,1,9.41-2.17,17.94,17.94,0,0,1,6.81,1.35A15.21,15.21,0,0,1,4143.28,1577.27Z"/><path class="cls-6" d="M3362.51,1854.31v-71h14.64v27.07h27.67v-27.07h14.67v71h-14.67v-31.68h-27.67v31.68Z"/><path class="cls-6" d="M3446.56,1795.57h-13.87V1782.9h13.87Zm-13.87,6.26h13.87v52.48h-13.87Z"/><path class="cls-6" d="M3493.71,1827.83c0-5-1.05-8.76-3.16-11.37a10.2,10.2,0,0,0-8.42-3.9c-4.78,0-8.12,2.27-9.94,6.8a24.29,24.29,0,0,0-1.44,8.9,20.62,20.62,0,0,0,1.54,8.14,10,10,0,0,0,10,6.65,10.56,10.56,0,0,0,8.1-3.64Q3493.7,1835.78,3493.71,1827.83Zm-8-26a16.53,16.53,0,0,1,8.08,7.61v-7.56h13.27v49.79q0,10.16-3.41,15.31c-3.9,5.91-11.37,8.86-22.47,8.86-6.67,0-12.15-1.31-16.36-4a14.54,14.54,0,0,1-7-11.8h14.86a6.05,6.05,0,0,0,1.89,3.47c1.48,1.25,3.93,1.88,7.41,1.88q7.42,0,9.9-5c1.09-2.12,1.65-5.68,1.65-10.69v-3.37a17,17,0,0,1-4.25,5.06c-2.7,2.08-6.25,3.13-10.6,3.13q-10.06,0-16.08-7.11t-6-19.24q0-11.7,5.79-19.67t16.47-8A18.15,18.15,0,0,1,3485.74,1801.78Z"/><path class="cls-6" d="M3564,1807.32a13.71,13.71,0,0,1,2.64,6,75.88,75.88,0,0,1,.49,10.13v30.82h-14v-31.92a14.18,14.18,0,0,0-1.44-6.84c-1.26-2.44-3.61-3.66-7.12-3.66s-6.36,1.21-8.22,3.64-2.81,5.88-2.81,10.37v28.41H3520v-70.74h13.62v25.09a16.91,16.91,0,0,1,6.88-6.38,19.42,19.42,0,0,1,8.25-1.8,22.17,22.17,0,0,1,8.78,1.68A15.45,15.45,0,0,1,3564,1807.32Z"/><path class="cls-6" d="M3589.91,1822.82h21.24q-.32-5.44-3.27-8.26a10.21,10.21,0,0,0-7.34-2.82,9.32,9.32,0,0,0-7.37,3A14.89,14.89,0,0,0,3589.91,1822.82Zm31-12.18a27,27,0,0,1,4,10.83,68.4,68.4,0,0,1,.43,10.4h-35.81c.21,5.27,1.82,9,5,11.08a11.54,11.54,0,0,0,6.81,2,9.91,9.91,0,0,0,6.88-2.4,11.62,11.62,0,0,0,2.53-3.62h14q-.52,4.68-4.85,9.49-6.73,7.66-18.81,7.66a26.5,26.5,0,0,1-17.63-6.45q-7.63-6.46-7.62-21,0-13.63,6.88-20.9c4.6-4.85,10.54-7.27,17.87-7.27a27.3,27.3,0,0,1,11.77,2.46A20.71,20.71,0,0,1,3620.94,1810.64Z"/><path class="cls-6" d="M3645.24,1837.56c.28,2.44.91,4.17,1.86,5.2,1.72,1.83,4.84,2.74,9.41,2.74a14.35,14.35,0,0,0,6.42-1.2,3.84,3.84,0,0,0,2.35-3.61,3.92,3.92,0,0,0-1.89-3.52c-1.3-.8-6-2.18-14.26-4.14q-8.9-2.22-12.53-5.54c-2.42-2.18-3.65-5.33-3.65-9.44a16.36,16.36,0,0,1,5.69-12.49q5.68-5.22,16-5.23,9.79,0,15.93,3.93c4.15,2.61,6.5,7.13,7.1,13.55H3664a8.17,8.17,0,0,0-1.51-4.18q-2.27-2.81-7.69-2.8c-3,0-5.09.47-6.35,1.4a4,4,0,0,0-1.9,3.27,3.56,3.56,0,0,0,2,3.42q2,1.11,14.25,3.81,8.16,1.92,12.22,5.82a13.22,13.22,0,0,1,4,9.88,15.94,15.94,0,0,1-5.8,12.73c-3.82,3.29-9.79,4.94-17.87,4.94s-14.29-1.74-18.22-5.23a17.09,17.09,0,0,1-5.86-13.31Z"/><path class="cls-6" d="M3683.89,1812.08v-9.77h7.27v-14.64h13.55v14.64h8.5v9.77h-8.5v27.74c0,2.15.28,3.49.81,4s2.21.79,5,.79c.42,0,.88,0,1.34,0s.91,0,1.37-.07v10.26l-6.5.24c-6.46.22-10.88-.9-13.23-3.37q-2.33-2.37-2.32-7.27v-32.32Z"/><path class="cls-7" d="M3843.42,1806.16v-9.34a60.35,60.35,0,0,0,9.06-.87,12.9,12.9,0,0,0,6.74-3.66,12.19,12.19,0,0,0,2.66-5,11.14,11.14,0,0,0,.53-2.79h11.38v69.82h-14v-48.15Z"/><path class="cls-7" d="M3918.09,1844.88a9.69,9.69,0,0,0,7.38-2.84c1.75-1.9,2.66-4.56,2.66-8s-.91-6.27-2.74-8.11a11,11,0,0,0-14.6,0c-1.83,1.84-2.74,4.55-2.74,8.11s.91,6.1,2.67,8A9.67,9.67,0,0,0,3918.09,1844.88Zm-13.76-27.74q-5.05-3.37-6.56-7.3a20.19,20.19,0,0,1-1.51-7.34,17.1,17.1,0,0,1,5.72-13q5.68-5.37,16.11-5.37t16.12,5.37a17.14,17.14,0,0,1,5.72,13,20.19,20.19,0,0,1-1.51,7.34c-1,2.62-3.19,4.89-6.56,6.82a19,19,0,0,1,7.72,7.66,21.64,21.64,0,0,1,2.6,10.64,19.9,19.9,0,0,1-6.5,15c-4.32,4.12-10.39,6.19-18.15,6.19s-13.69-2.07-17.66-6.19a20.77,20.77,0,0,1-6-15,21.66,21.66,0,0,1,2.63-10.64A16.88,16.88,0,0,1,3904.33,1817.14Zm13.76-4.48a8.45,8.45,0,0,0,6.46-2.41,8.69,8.69,0,0,0,2.28-6.21,8.93,8.93,0,0,0-2.28-6.48,8.64,8.64,0,0,0-6.46-2.33,8,8,0,0,0-8.77,8.81,8.13,8.13,0,0,0,8.77,8.62Z"/><path class="cls-7" d="M3952.22,1840.59q2.94-7,13.83-14.78c6.28-4.53,10.39-7.77,12.22-9.73a14.28,14.28,0,0,0,4.28-10,11,11,0,0,0-2.46-7.37,8.57,8.57,0,0,0-7-2.93c-4.18,0-7,1.55-8.5,4.67-.88,1.8-1.37,4.65-1.54,8.57h-13.31c.25-5.94,1.3-10.74,3.23-14.4,3.65-7,10.11-10.45,19.45-10.45q11,0,17.55,6.14t6.53,16.26a22.12,22.12,0,0,1-4.6,13.77,46.71,46.71,0,0,1-9.93,8.91l-5.48,3.9c-3.44,2.44-5.76,4.2-7,5.3a15.11,15.11,0,0,0-3.19,3.8h30.36v12.08H3949A32.86,32.86,0,0,1,3952.22,1840.59Z"/><path class="cls-7" d="M4038.23,1820.66a12.06,12.06,0,0,0-2-5.3q-2.33-3.18-7.17-3.18-6.9,0-9.44,6.89a29.26,29.26,0,0,0-1.33,9.72,27,27,0,0,0,1.33,9.3q2.43,6.54,9.23,6.54c3.2,0,5.45-.86,6.81-2.59a13,13,0,0,0,2.43-6.75h14a23.19,23.19,0,0,1-4.49,11.85q-6.43,9-19.07,9t-18.57-7.52q-6-7.52-6-19.5,0-13.53,6.6-21.05t18.12-7.5q9.84,0,16.11,4.42t7.41,15.66Z"/><path class="cls-7" d="M4133,1806.74a14.76,14.76,0,0,1,3,6.74,47.67,47.67,0,0,1,.49,7.75l-.11,33.08h-14v-33.42a10.52,10.52,0,0,0-1-4.9c-1.19-2.45-3.44-3.66-6.7-3.66-3.76,0-6.39,1.57-7.83,4.71a14.82,14.82,0,0,0-1.09,6v31.25H4092v-31.25a17.68,17.68,0,0,0-.95-6.79c-1.15-2.53-3.4-3.8-6.77-3.8-3.9,0-6.53,1.27-7.87,3.8a14.88,14.88,0,0,0-1.08,6.46v31.58H4061.4v-52.39h13.31v7.66a22.5,22.5,0,0,1,4.81-5.83c2.63-2,6.11-3.08,10.32-3.08q6,0,9.69,2.65a15.55,15.55,0,0,1,4.53,6.31,17.3,17.3,0,0,1,6.67-6.79,20.11,20.11,0,0,1,9.37-2.17A18.29,18.29,0,0,1,4127,1802,15.31,15.31,0,0,1,4133,1806.74Z"/><path class="cls-8" d="M3258.41,1294.3a25.67,25.67,0,0,0-25.63-25.69H2823.2a25.66,25.66,0,0,0-25.6,25.69v846.27a25.67,25.67,0,0,0,25.6,25.7h409.58a25.68,25.68,0,0,0,25.63-25.7Z"/><path class="cls-9" d="M3240.63,1272.69A25.67,25.67,0,0,0,3215,1247H2805.41a25.66,25.66,0,0,0-25.59,25.69V2119a25.66,25.66,0,0,0,25.59,25.69H3215a25.67,25.67,0,0,0,25.64-25.69Z"/><polygon class="cls-10" points="3072.05 1809.53 3202 1809.53 3201.96 1815.37 3072.01 1815.37 3072.05 1809.53"/><polygon class="cls-10" points="3046.66 1805.68 3062.32 1805.68 3062.22 1820.51 3046.55 1820.51 3046.66 1805.68"/><polygon class="cls-10" points="3072.05 2018.26 3202 2018.26 3201.96 2024.11 3072.01 2024.11 3072.05 2018.26"/><polygon class="cls-10" points="3046.66 2014.42 3062.32 2014.42 3062.22 2029.24 3046.55 2029.24 3046.66 2014.42"/><polygon class="cls-10" points="3072.05 1840.75 3202 1840.75 3201.96 1846.6 3072.01 1846.6 3072.05 1840.75"/><polygon class="cls-10" points="3046.66 1836.9 3062.32 1836.9 3062.22 1851.73 3046.55 1851.73 3046.66 1836.9"/><polygon class="cls-10" points="3072.05 2049.48 3202 2049.48 3201.96 2055.33 3072.01 2055.33 3072.05 2049.48"/><polygon class="cls-10" points="3046.66 2045.63 3062.32 2045.63 3062.22 2060.46 3046.55 2060.46 3046.66 2045.63"/><polygon class="cls-10" points="3072.05 1871.97 3202 1871.97 3201.96 1877.82 3072.01 1877.82 3072.05 1871.97"/><polygon class="cls-10" points="3046.66 1868.12 3062.32 1868.12 3062.22 1882.95 3046.55 1882.95 3046.66 1868.12"/><polygon class="cls-10" points="3072.05 2080.7 3202 2080.7 3201.96 2086.55 3072.01 2086.55 3072.05 2080.7"/><polygon class="cls-10" points="3046.66 2076.86 3062.32 2076.86 3062.22 2091.68 3046.55 2091.68 3046.66 2076.86"/><path class="cls-11" d="M2840.7,1707.41a12,12,0,0,1,11.82-12.24h153.95a12.18,12.18,0,0,1,12,12.24l1.19,164.12a12,12,0,0,1-11.82,12.23h-154a12.19,12.19,0,0,1-12-12.23Z"/><polygon class="cls-9" points="3008.86 1863.18 3000.37 1863.18 3000.43 1871.91 3008.93 1871.91 3008.86 1863.18"/><polygon class="cls-12" points="2993.4 1863.18 2984.91 1863.18 2984.97 1871.91 2993.47 1871.91 2993.4 1863.18"/><path class="cls-4" d="M2859.85,1807.41c10.36,38.67,49.27,61.65,86.83,51.29s59.64-50.16,49.27-88.83-49.27-61.65-86.83-51.29S2849.48,1768.75,2859.85,1807.41Zm29.63-8.17c5.85,21.83,27.82,34.81,49,29s33.67-28.32,27.82-50.16-27.82-34.8-49-29S2883.63,1777.41,2889.48,1799.24Z"/><path class="cls-9" d="M2870.51,1739.79c-14,17.14-18.4,47.62-12.47,69.76,8.11,30.22,35.41,51.11,64.11,53.74l10-35.78c-18.14.68-35.11-11.55-40.15-30.33-3.86-14.43.7-25.9,10.07-35.9Z"/><path class="cls-11" d="M2843.66,1917.19a12,12,0,0,1,11.82-12.24h154a12.18,12.18,0,0,1,12,12.24l1.2,164.12a12,12,0,0,1-11.82,12.23h-154a12.18,12.18,0,0,1-12-12.23Z"/><polygon class="cls-9" points="3011.83 2072.96 3003.33 2072.96 3003.4 2081.69 3011.89 2081.69 3011.83 2072.96"/><polygon class="cls-12" points="2996.36 2072.96 2987.87 2072.96 2987.93 2081.69 2996.43 2081.69 2996.36 2072.96"/><path class="cls-4" d="M2964,1936.93c-33.89-20-77-8.12-96.24,26.55s-7.33,79.07,26.56,99.08,77,8.12,96.24-26.55S2997.92,1957,2964,1936.93Zm-15.17,27.35a39.12,39.12,0,0,0-54.33,15c-10.86,19.57-4.14,44.64,15,55.94a39.12,39.12,0,0,0,54.33-15C2974.71,2000.65,2968,1975.58,2948.86,1964.28Z"/><path class="cls-9" d="M3003.09,1992.85c-2-22.37-19.86-47.28-39.26-58.74-26.49-15.65-60-10.7-82,8.28l17.64,32.73a39,39,0,0,1,49-7.56c12.65,7.47,17.34,19,17.64,32.89Z"/><path class="cls-11" d="M2817.91,1369.54c-.23-26.25,20.33-47.6,45.89-47.63l297.17-.39c25.55,0,46.48,21.25,46.7,47.5l2,235.57c.22,26.25-20.34,47.6-45.89,47.63l-297.17.39c-25.56,0-46.48-21.25-46.71-47.51Z"/><path class="cls-4" d="M3145,1499.05l18.31,0,1,114.74-18.3,0Zm-71.67,65.54,18.3,0,.43,49.3-18.31,0Zm-144.47-.21,18.3,0,.43,49.7-18.3,0Zm-72.44-24.14,18.3,0,.63,73.94-18.3,0Zm108.31-4.8,18.3,0,.67,78.6-18.3,0Zm144.46-.54,18.3,0,.68,79-18.3,0Zm-72.37-16.14,18.3,0,.82,95.19-18.3,0Zm-144.48-1.66,18.3,0,.83,97-18.3,0Zm108.2-17.86,18.29,0,1,114.74-18.3,0Z"/><path class="cls-4" d="M3144.08,1397.82l18.31,0,.59,68.64-18.31,0Zm-72.36-14.49,18.31,0,.71,83.22-18.3,0ZM2927.06,1361l18.3,0,.91,105.76-18.3,0Zm-71.6,73.38,18.3,0,.28,32.48-18.3,0Zm108.1-29.34,18.3,0,.53,61.68-18.3,0Zm144.05-48.87,18.3,0,1,110.35-18.3,0Zm-71.6,74,18.3,0,.31,36.49-18.3,0Zm-144.61-15.64,18.31,0,.45,52.33-18.31,0ZM3000,1445l18.3,0,.18,21.64-18.29,0Z"/><path class="cls-4" d="M2779.79,1285.77H3240.6v-13.08A25.64,25.64,0,0,0,3215,1247H2805.43a25.68,25.68,0,0,0-25.64,25.7Z"/><ellipse class="cls-6" cx="3112.4" cy="1266.99" rx="8.47" ry="8.49"/><ellipse class="cls-6" cx="3155.37" cy="1266.99" rx="8.47" ry="8.49"/><ellipse class="cls-6" cx="3198.34" cy="1266.99" rx="8.47" ry="8.49"/><rect class="cls-13" x="314.96" y="2040.54" width="2345.03" height="14.29"/><rect class="cls-13" x="314.96" y="1829.91" width="2345.03" height="14.29"/><rect class="cls-13" x="314.96" y="1619.27" width="2345.03" height="14.29"/><rect class="cls-13" x="314.96" y="1408.64" width="2345.03" height="14.29"/><rect class="cls-13" x="314.96" y="1198.01" width="2345.03" height="14.29"/><rect class="cls-13" x="314.96" y="987.37" width="2345.03" height="14.29"/><rect class="cls-13" x="314.96" y="776.74" width="2345.03" height="14.29"/><rect class="cls-13" x="314.96" y="566.1" width="2345.03" height="14.29"/><path class="cls-14" d="M1215.37,752c-1.4-6.15-8.6-10.9-13.22-14.09-8.9-6.14-23-14.47-34.13-10.65-10.27,3.54-18.35,16.61-30.27,14.45-19.48-3.55-32.86-15.47-50.36,3.13-11.07,11.78-21.58,28.07-19.62,46,.88,8.12,4.76,18.7,1.75,26.76-5.12,13.72-21.55,11.09-29.81,21-4.12,5-8,14.85-5.51,21.52,2.17,5.76,7.32,9.82,6.25,16.86-1,6.47-7.79,9.79-11.19,14.5-8.7,12-7.43,26.14-1.59,39,4.39,9.67,13.65,17.85,23.27,20.28,11.22,2.81,29.81-1.19,35.67,14.16,7.4,19.48-17.07,25.45-22.89,39.76a76.12,76.12,0,0,0-4.65,17.38c-5.38,40.3,32.55,55.94,60.42,68.22,50.44,22.21,111.4,8.34,145.27-37.91,10.14-13.86,20.58-25.65,22.72-44,1.42-12.15-.23-23.57-7.63-33-4.57-5.82-16.12-11.9-14.49-21.57,1.75-10.38,13.26-15.61,18.22-24.24,11.32-19.74,9.71-49.18-.41-69.15-5.05-9.91-16.1-10.87-21.64-19.79-8.15-13.08,2.49-33.82,1.32-48.81-2-25.34-27.48-31.45-45.17-30.59"/><path class="cls-15" d="M1323.31,2234.4c0,24.11-73.53,43.65-164.22,43.65s-164.23-19.54-164.23-43.65,73.52-43.65,164.23-43.65,164.22,19.55,164.22,43.65"/><path class="cls-16" d="M1199.29,987.35c-7.19-27.37-3.62-46.33-3.62-46.33l-31,5.3-31-5.3s3.57,19-3.62,46.33l34.59,18Z"/><path class="cls-17" d="M1096.4,846.42a238.63,238.63,0,0,0,1.28,24.16,182.33,182.33,0,0,0,16.06,54.73c9.83,20.27,47,37.38,49.16,36.68,2.15.7,39.34-16.41,49.19-36.68a182.63,182.63,0,0,0,16-54.73q.7-7,1-13.33a10.07,10.07,0,0,1-10.74-3.39c-3.11-4.14,3.36-10.47-.06-15.86-1.71-2.72-4.79-1.27-7.28-2-4.41-1.25-5.42-8.45-4.8-12.51,1.11-7.33,3.48-15.09,3.34-22.5,0-1.8-.17-6.68-2.46-6.91-4.61-.46-3.91,8.55-7.75,9.74-2.7.84-3.46-3.21-5.63-4.21-3.11-1.44-8.78-.15-11.52,1.84-10.16,7.37-3.17,21.35-14.18,28.95-11.26,7.76-13.92-8.1-23-8.83-6.66-.54-10,8.29-13.56,12.52-2.21,2.63-5.26,4.72-7.86,6.84C1115.37,847.67,1105.7,849.39,1096.4,846.42Z"/><path class="cls-17" d="M1100.64,873.09s-5.19-18.93-14.11-19.16-12.66,20.07-3.12,39.46,25.33,13.46,25.33,13.46Z"/><path class="cls-17" d="M1225,870.35s5.19-18.92,14.12-19.16,12.65,20.07,3.11,39.46-25.32,13.46-25.32,13.46Z"/><path class="cls-17" d="M1423.3,1443.08c-2.52,2.58-9.84-7.2-15.1-17.72,5.4,13.39,12.84,32.91,11.29,35.05-2.39,3.25-6.2-.4-11.69-11.1-4-7.59-8.82-20.44-11.35-27.16l-1.81,1.51c3.23,9.83,9.35,28.81,10.67,37.23,1.86,11.69-7,3.85-10.32-3.89s-6.38-14.07-10.63-28c-1.28-4.18-2.17-7.06-2.79-9.1l-14.4-14.45c-1.59,6.81-6.77,26.62-13.77,30.22-8.51,4.33-1.74-11.1.66-21.76s6.2-25.06,6.2-25.06,4.17-17.38,3.06-23.08c-6.78-34.7-27.86-40.54-57.37-127.13-1.15-3.36-5.27-28.28-5-31.45-3.9-8.61-15.2-34-25.38-56.8-8.11-18.06-15.51-34.51-18.08-40-.17,18.88-.13,37.53.31,53.44,0,.15,0,.29,0,.49.13,5.5.35,10.71.61,15.43.27,5,.63,9.44,1.07,13.29,7.71,69.31,29.64,115,31.85,205l-117.7,59.38-15,2.09-121.12-64.69a388.62,388.62,0,0,1,3.58-44.63c8.51-61.14,29.07-98.71,34.56-154.45,1.33-13.63,1.24-35,.4-58.75-.36-10.22-.89-20.88-1.46-31.54-10.95,31.06-42,87.57-48.34,101.73.23,3.17-3.89,28.09-5,31.45-29.51,86.59-50.6,92.43-57.37,127.13-1.11,5.7,3,23.08,3,23.08s3.77,14.4,6.2,25.06c2,8.72,6.88,20.64,3.91,22.25-.67.44-1.69.29-3.24-.49-7-3.6-12.18-23.41-13.78-30.22l-14.4,14.45c-.66,2-1.55,4.92-2.78,9.1-4.3,13.92-7.36,20.26-10.63,28s-12.23,15.58-10.37,3.89c1.37-8.42,7.44-27.4,10.72-37.23l-1.86-1.51c-2.48,6.72-7.35,19.57-11.3,27.16-5.49,10.7-9.34,14.35-11.7,11.1-1.54-2.14,5.9-21.66,11.31-35.05-5.28,10.52-12.59,20.3-15.11,17.72-2.35-2.39,7.57-22.2,14.35-34.9-4.25,4.87-9.17,9.64-10.41,7.4-2.3-4.24,16.3-29.89,16.3-29.89s9.09-14.94,11.78-22.19a13.43,13.43,0,0,0,.72-2.49s11.78-87,25-123.58c10.14-28,18.7-48.29,24.85-57,0,0,40.32-134.34,43.9-143,4.39-10.56,10.41-18.44,18-24.43a68.7,68.7,0,0,1,18.65-10.13v0l.22,0h0l62.77-15.48S1158.7,994,1168.4,994c16.61,0,29-9.59,29-9.59l62.47,18.45,0-.05a.3.3,0,0,0,.22.1l.27.09v0c16.83,6.28,28.93,16.5,36.45,34.46,3.55,8.62,43.9,143,43.9,143,6.16,8.71,14.71,29,24.86,57,13.2,36.6,24.94,123.58,24.94,123.58.84,5.46,12.49,24.68,12.49,24.68s4.79,6.57,9.17,13.63c4.34,6.86,8.33,14.16,7.17,16.26s-6.15-2.53-10.4-7.4c6.73,12.7,16.69,32.51,14.35,34.9"/><path class="cls-17" d="M1157.85,1440.61c-7.48-42-120.33-45.78-120.33-45.78s-19.61,154.18,12.91,346.91a271.48,271.48,0,0,0-1.08,37.46c.15,2.61.39,5.14.68,7.65-4.54,14.93-9.94,40.38-11.54,79.93-2.9,71.77,22.57,245.88,22.57,245.88-1.59,7.81-4,19.76-5.58,29.76-2.66,16.35-3,32.26-6,49.07s-7.64,30.5-5.31,37.13,11,8.84,27.56,11.93,23.25-1.77,23.25-1.77,6,4.28,12.61,2.81,13.62-3.69,14-10.32-2.66-15.91-6.64-29.18c-3.69-12.26-4.55-53.9-10.7-77.28.91-18.18,13.59-274.44,8-334.86,18.71-42.06,51.64-315.46,45.6-349.34"/><path class="cls-17" d="M1292.39,1866.78c-1.59-39.55-7-65-11.53-79.93.29-2.51.53-5,.67-7.64a272.68,272.68,0,0,0-1.11-37.8c31.92-194.81,7.6-366.61,7.6-366.61s-101.59,28.77-115,68.94c-16.29,48.9,45.57,346.21,45.57,346.21-5.55,60.42,7.12,316.68,8,334.87-6.16,23.37-7,65-10.7,77.28-4,13.26-7,22.54-6.64,29.17s7.31,8.84,14,10.32,12.62-2.8,12.62-2.8,6.64,4.86,23.24,1.76,25.24-5.3,27.56-11.93-2.32-20.34-5.31-37.13-3.32-32.72-6-49.07c-1.63-10-4-22-5.59-29.75,0,0,25.47-174.12,22.57-245.89"/><path class="cls-16" d="M1105.16,2173.92c4.18,32.65.67,46-15.53,47.17s-33.52-14.43-27-32.88,10.95-70.39,11.35-78.7-21.36-151.63-24.8-219.72,4.09-86.48,4.63-97.9,2.5-33.29,5.92-44.6-39.77-104.63-36-204.66c2.09-54.33,7.54-104.12,15.74-147.08,16,5,37.72,15.6,59.09,27.2.58,1.69,1.13,3.29,1.72,4.88v0c16.15,44-18,276-14.83,313.76s19,25.12,12.36,44.58-13.14,16-16.71,31.46,2.19,265.37,10,285.7,9.87,38.14,14,70.74"/><path class="cls-16" d="M1258.42,1179.75c-7,3.89-24.54,23.51-43.32,24.34-25.25,1.16-47.27-6.28-60.21-12.51-11.82,19.86-44.6,23.26-49,56.12-7,52.13,31.19,89.66,8.5,104.26s-20.25-29.89-40.67-32.66c-10.23-1.41-12.09,16.55-9.12,40.25a191.37,191.37,0,0,1-23.44-9.34c8.51-61.14,29.06-98.72,34.56-154.45,1.33-13.63,1.24-35,.39-58.75l72.88,6,7.13-5.06,86.07-6.09h14.36c-1.07,7.74.31,20.74,1.24,31.93,0,.15,0,.29,0,.49a112,112,0,0,1,.62,15.43"/><path class="cls-16" d="M1245.8,1423.46s-4.55-13-6.45,120.46-8,164.79,6.45,166.88,29.62-70.92,40.06-66.75-9.49,84.49-13.29,99.09.1,39.63-9.92,52.15-8.11,16.69-14.76,52.15-13.39,204.43-11.44,240.94,11.44,32.34,14.29,57.37-7.42,61.53-14.63,73-17.65,5.61-24.29,8.54-11.4-11.67-8.55-17.93,18-73,17.09-92.83-2.85-224.25-2.85-270.14S1227,1788,1227,1788s-8.54-26.08-17.08-64.67-39.35-261.41-39.35-261.41,64.6-39,75.23-38.45"/><path class="cls-16" d="M1229.69,1336.62s17.08-62.58,15.19-86.92-23.42,70.23-39.87,91.09,18.35,21.3,24.68-4.17"/><path class="cls-16" d="M1036.13,1055.05c-5.18,35.67-29.24,112.19-29.24,121.93s12.67,16.69,12.67,22.24-12.67,0-22.15,4.19S962.59,1274,956.88,1317s3.19,70.58,3.81,82.12c.62,11.19,15.5,35.68,16.35,37.09-.67.44-1.69.28-3.24-.49-7-3.6-12.18-23.41-13.78-30.23l-14.39,14.46c-.67,2-1.55,4.92-2.79,9.1-4.3,13.92-7.36,20.25-10.64,28s-12.22,15.57-10.36,3.89c1.37-8.42,7.44-27.4,10.72-37.24l-1.86-1.5c-2.48,6.72-7.36,19.56-11.3,27.16-5.49,10.7-9.35,14.35-11.69,11.09-1.55-2.13,5.89-21.65,11.29-35-5.27,10.52-12.58,20.3-15.1,17.72-2.35-2.39,7.57-22.2,14.35-34.9-4.25,4.87-9.17,9.63-10.41,7.39,10.5-21.41,25.65-27.93,27.55-44.58.18-1.7.36-4.23.54-7.49a13.13,13.13,0,0,0,.7-2.49s11.79-87,25-123.58c10.14-28,18.69-48.29,24.85-57,0,0,40.31-134.34,43.9-143,4.39-10.56,10.41-18.44,18-24.43a156.67,156.67,0,0,0-12.27,42"/><path class="cls-18" d="M1291.33,1398.06l-119.16,60.25-13.51,1.22L1137,1448l-83.59-44.64v0l-15.82-8.42c-3-18.06,5.36-56.22,5.36-56.22s4.69,1.66,12.72,4.09c7.48,2.24,17.81,5.16,29.9,8.08,23.74,5.65,54.18,11.15,82.88,11.15,59,0,119-17.28,119-17.28,1.34,9.88,3.9,53.4,3.9,53.4"/><path class="cls-16" d="M1423.3,1443.08c-2.52,2.58-9.84-7.2-15.1-17.72,5.4,13.39,12.84,32.91,11.29,35.05-2.39,3.25-6.2-.4-11.69-11.1-4-7.59-8.82-20.44-11.35-27.16l-1.81,1.51c3.23,9.83,9.35,28.81,10.67,37.23,1.86,11.69-7,3.85-10.32-3.89s-6.38-14.07-10.63-28c-1.28-4.18-2.17-7-2.79-9.1l-14.4-14.45c-1.59,6.81-6.77,26.62-13.77,30.22-8.51,4.33-1.74-11.1.66-21.76s6.2-25.06,6.2-25.06,4.17-17.38,3.06-23.08c-6.78-34.7-27.86-40.54-57.37-127.13-1.15-3.36-5.27-28.28-5-31.45-3.9-8.61-21.79-48.79-32-71.62l-9.93-66.42s-2.79-23.61,2.92-22.92,12,60.5,32.3,102.21,28.44,35.49,30.35,41.72-10.1,23.56-6.34,35.43,24.72,61.43,41.15,93.65,11.39,68.39,20.25,83c6.38,10.52,22.86,8.09,32.56-2.92,4.34,6.86,8.33,14.17,7.17,16.26-1.24,2.24-6.15-2.53-10.4-7.4,6.73,12.7,16.69,32.52,14.35,34.9"/><path class="cls-16" d="M1212.06,1086.8c-20.11,9.64-37.74,27.26-46.07,36.46-3.59-20.39,1.42-72.42,1.42-72.42,1.37-17.09,12.45-27.12,19.54-4.19,4,13.09,16.43,27.36,25.11,40.15"/><path class="cls-18" d="M1268.93,1135.6c-2.48,26.38-17.37,39.09-17.37,39.09l-.35-.39-.14.44s-6.69,9.68-32.6,8.47c-8.2-.39-15.82-3.7-22.64-8.08a121.34,121.34,0,0,1-17.59-14.61v0c-5.62-5.45-9.87-10-12.27-10.61-2.48.05-5.18,1.8-7.79,4.09-1.69,1.56-3.68,3.51-5.89,5.7-.71.68-1.38,1.36-2,1.94-9.74,9.45-23.65,21.62-39.87,22.35-26,1.21-32.6-8.47-32.6-8.47s-14.89-12.76-17.37-39.14,10-66.39,10-66.39c-1.24,6.72.49,87.86,20.33,97.11,25.61,12,45.1-4.14,43.2-14.07s-30.88-30.62-34.51-69.22a101.83,101.83,0,0,0-4.61-19.9,57.66,57.66,0,0,1,21.09,6.08c22.68,11,38.8,31.44,44.6,39.57h7.31c5.32-7.59,21.76-29,45.1-40.3,28.71-14,45.54,0,45.54,0v.24a3.86,3.86,0,0,0,.53-.29s12.41,40.06,9.93,66.44"/><path class="cls-19" d="M1090.74,1167c-19.85-9.24-21.58-90.38-20.33-97.1,0,0,8.77-7.25,24.4-6.09a101.19,101.19,0,0,1,4.61,19.91c3.63,38.6,32.61,59.29,34.51,69.22s-17.59,26.09-43.19,14.06"/><path class="cls-16" d="M1094.83,1063.85c-15.64-1.17-24.41,6.09-24.41,6.09s5-30,8-36c2.17-4.24,10.81,12.85,16.39,29.93"/><path class="cls-19" d="M1053.36,1403.31v0c-3.85-15.08.53-48.82,2.26-60.55,7.49,2.24,17.81,5.16,29.9,8.08-.17,1.12-2.74,20.06,21.27,44.73,17.49,18.06,26.44,40.75,30.16,52.43Z"/><path class="cls-15" d="M832.45,2233.32c0,20.57-77.29,37.26-172.63,37.26s-172.63-16.69-172.63-37.26,77.29-37.25,172.63-37.25,172.63,16.67,172.63,37.25"/><path class="cls-14" d="M661.76,962.81c3.52.75,20.39-19.12,56.1.5,27.48,15.09,29.24,57.1,36.71,85,4.63,17.32,13.94,32,22.92,47.28,4.8,8.18,11.33,17.43,10.35,27.48-1.39,14.39-17.21,25.11-26.52,34.24-12.86,12.59-29.76,21.08-46.08,28.26C689.18,1197,664,1204.7,635.18,1203c-12.64-.73-25.59-5.59-37.16-10.46-7.4-3.11-77.36-40.42-65.72-82.55,7.17-26,31.46-51.13,42.33-76.25,7.59-17.56,6.53-37.09,18.29-53.22,10.88-14.95,29.52-23.43,47.83-23.48C645.28,957.06,660,957.55,661.76,962.81Z"/><path class="cls-17" d="M918.28,1564.23c-2.36,2.2-9.19-6.15-14.12-15.12,5.05,11.46,12,28.13,10.56,29.91-2.2,2.83-5.8-.33-10.93-9.43-3.69-6.52-8.24-17.49-10.56-23.23l-1.75,1.29c3.07,8.4,8.75,24.6,10,31.79,1.74,10-6.63,3.28-9.69-3.33a190.49,190.49,0,0,1-9.94-23.89c-1.16-3.57-2-6-2.61-7.77l-13.46-12.34c-1.49,5.82-6.33,22.73-12.88,25.81-7.95,3.69-1.61-9.48.62-18.58s5.8-21.4,5.8-21.4,3.89-14.83,2.86-19.69c-6.34-29.62-48.83-76.82-53.63-108.53-.46-3-4.94-24.14-4.72-26.84-6.43-13.09-22.62-46.58-33.3-73.71-1.7,7.11-3.4,14.34-5.06,21.57-11.14,48.65-20.62,97.89-18.38,116.21,6.91,56.84,32,63,37.1,146.8a4.18,4.18,0,0,1,.54.16s16.57,86.67-14,245.68a211.19,211.19,0,0,1,1,31.58c-.13,2.2-.34,4.36-.63,6.53,4.27,12.75,9.32,34.48,10.81,68.22.13,3.28.21,6.81.21,10.55,0,66.19-21.33,199.36-21.33,199.36,1.49,6.65,3.69,16.83,5.22,25.38,2.48,14,2.81,27.55,5.59,41.89s7.13,26.05,5,31.7-10.23,7.52-25.76,10.18-21.74-1.5-21.74-1.5-5.59,3.62-11.8,2.37c-3.44-.71-6.92-1.58-9.45-3.2a6.77,6.77,0,0,1-3.56-5.61c-.33-5.65,2.44-13.58,6.17-24.89,3.48-10.47,4.27-46,10-66-.62-11.42-7.24-133.25-8.57-217.13,0-.79,0-1.58,0-2.33-.13-8.68-.21-17-.21-24.6,0-17.86.38-32.49,1.33-41.76-7.17-10.72-13.67-51.68-13.67-51.68-9.28-43.05-29-165.66-36.28-223.21-7.21,57.55-26.59,180.16-35.87,223.21,0,0-1.61,10.26-4.14,21.81s-5.92,24.51-9.48,29.87c5.17,51.57-6.67,270.33-7.54,285.82,5.76,19.95,6.55,55.51,10,66,3.72,11.31,6.49,19.24,6.21,24.89s-6.83,7.56-13,8.81-11.8-2.37-11.8-2.37-6.21,4.16-21.74,1.5-23.57-4.53-25.77-10.18,2.2-17.37,5-31.7,3.11-27.92,5.6-41.89c1.53-8.55,3.72-18.73,5.22-25.38,0,0-23.82-148.67-21.13-209.91,1.5-33.74,6.54-55.47,10.81-68.22-.29-2.17-.5-4.33-.62-6.53a208.61,208.61,0,0,1,1-31.49c-7-36.15-11.72-68.93-14.79-98v-.08c-10.6-99.43-2.28-155.39-2.28-155.39s.25,0,.67-.17c4-33.49,9.07-53.35,14.2-67.35,9.73-26.26,19.76-32,23.73-68.68,2.32-21.61-10.81-86.93-23.77-143.81-9.19,18.53-31.93,65.11-37.6,76.66.24,2.7-4.27,23.81-4.73,26.84-4.8,31.71-47.29,78.91-53.63,108.53-1,4.86,2.86,19.69,2.86,19.69s3.56,12.3,5.8,21.4,8.57,22.27.62,18.58c-6.54-3.08-11.39-20-12.88-25.81l-13.46,12.34c-.58,1.75-1.41,4.2-2.61,7.77-4,11.89-6.84,17.29-9.9,23.89s-11.43,13.3-9.69,3.33c1.24-7.19,7-23.39,10-31.79l-1.7-1.29c-2.32,5.74-6.92,16.71-10.6,23.23-5.09,9.1-8.7,12.26-10.93,9.43-1.46-1.78,5.51-18.45,10.56-29.91-4.93,9-11.76,17.32-14.12,15.12-2.16-2,7.12-19,13.41-29.79-4,4.2-8.57,8.27-9.73,6.32-2.15-3.62,15.28-25.52,15.28-25.52s10.9-16.41,11.68-21.06c0,0,11-74.25,23.36-105.5,9.44-23.93,17.44-41.21,23.19-48.65l30-90c.37-10.34,4.26-23.31,7.58-30.62,6.91-15.12,20-26.34,35.53-31.83.37-.16.79-.29,1.16-.41l0,.33a63.16,63.16,0,0,1,6.95-1.79l85.36-16.24,20.79,11.38,20.75-11.38,77.86,16a48.68,48.68,0,0,1,4.93,1.24v0a2,2,0,0,0,.46.17c.78.25,1.53.46,2.31.7v.13c15.45,5.44,24.56,17.08,31.27,31.7,3.36,7.31,7.21,20.28,7.58,30.62l30,90c5.76,7.44,13.76,24.72,23.24,48.65,12.34,31.25,23.32,105.5,23.32,105.5.78,4.65,11.68,21.06,11.68,21.06s4.63,5.82,8.82,11.93c3.93,5.77,7.49,11.84,6.45,13.59-1.15,2-5.75-2.12-9.72-6.32,6.33,10.84,15.6,27.75,13.41,29.79"/><path class="cls-16" d="M643.55,1346.29s-21.89,20.18-24.85,50.45,10.65,45.11,5.32,52.83-11.5-20.78-18.17-21.37-3.1,40.89,5.76,54-36.1-6.5-36.1-6.5,14.79-38,12.43-64.1-5.22-55.93-5.22-55.93Z"/><path class="cls-16" d="M662.68,1301.18s5.57-47.79,22-60.69-4.88,24,21.3,36.5-43.29,24.19-43.29,24.19"/><path class="cls-16" d="M690.89,1175.22c-6.73-23.36-3.39-39.55-3.39-39.55l-29,4.53-29-4.53s3.48,14.57-3.25,37.94c0,0,13.37,17,32.21,17,22.57,0,32.34-15.36,32.34-15.36"/><path class="cls-17" d="M602.51,1025.13c-3.35,10.81-5.28,26.85-2.7,50.42a145.45,145.45,0,0,0,15,46.72c9.19,17.29,44,31.9,46,31.3,2,.6,36.77-14,46-31.3a145.27,145.27,0,0,0,15-46.72c2.56-23.32.7-39.27-2.58-50.08-2.56,1.1-5.15,2.13-7.83,3.09-32.91,11.85-65.18,12.34-97.69,1.09A111.53,111.53,0,0,1,602.51,1025.13Z"/><path class="cls-17" d="M602.6,1077.69s-4.85-16.16-13.2-16.35-11.83,17.13-2.91,33.68,23.68,11.48,23.68,11.48Z"/><path class="cls-17" d="M718.84,1075.35s4.85-16.16,13.19-16.35,11.83,17.13,2.91,33.68-23.67,11.49-23.67,11.49Z"/><path class="cls-16" d="M591,2223.21c-15.15,1-31.31-12.68-25.18-28.92s10.36-62,10.73-69.34-19.75-133.55-22.86-193.54,3.93-76.17,4.47-86.22,2.36-29.34,5.59-39.3c1.95-6.07-12.34-39.23-22.9-84.18v-.09c-10.6-99.42-2.28-155.39-2.28-155.39s.25,0,.67-.17c4-33.49,9.07-53.35,14.2-67.35,13.75,4.94,30.57,12.79,47.09,21.23.54,1.5,1,2.91,1.61,4.28v0c15,38.77-17.18,243.19-14.32,276.43s17.68,22.11,11.51,39.27S587,1854,583.65,1867.67s1.66,233.75,9,251.66,9.15,33.57,13,62.29.58,40.51-14.58,41.59"/><path class="cls-20" d="M738.13,1519.9a3.83,3.83,0,0,0-.66,0c.41-.79.66,0,.66,0"/><path class="cls-16" d="M763.19,1807.54c-3.57,13.13.08,35.65-9.28,46.91s-7.58,15-13.79,46.91-12.55,184-10.73,216.77,10.73,29.08,13.38,51.61-7,55.38-13.67,65.68c-6.25,9.6-15.11,5.74-21.33,7.24a6.8,6.8,0,0,1-3.56-5.62c-.33-5.64,2.45-13.58,6.17-24.88,3.48-10.48,4.27-46,10-66-.62-11.42-7.24-133.24-8.57-217.13,0-.79,0-1.58,0-2.33,0-11.18-.08-20.27-.08-26.3,0-41.26,8.86-52.52,8.86-52.52s-8-23.47-16-58.21-36.77-235.17-36.77-235.17,58-33.7,69.66-34.57c-1.33,2.33-4,18.32-5.34,108.36-1.79,120.12-7.46,148.25,6,150.12s27.71-63.78,37.48-60-8.9,76-12.42,89.16"/><path class="cls-21" d="M775.2,1507s-72.27,17.11-107.89,78.49h-8.78c-12-20.74-28.2-36.4-44.4-48A206,206,0,0,0,569,1513a150.27,150.27,0,0,0-18.31-6c2.61-15.63,19.39-44.88,19.39-44.88,2.65,1.79,5.5,3.53,8.45,5.24l.12,0c11.55,6.56,25,12,37.69,16.49a406.22,406.22,0,0,0,46.63,13.05c.78-.17,59.76-12.3,92.89-34.82,0,0,16.77,29.25,19.39,44.88"/><path class="cls-20" d="M616.29,1483.84v0c-12.72-4.45-26.14-9.94-37.69-16.5Z"/><path class="cls-22" d="M616.29,1483.87c0,1.5-1,37.27-2.16,53.56A206,206,0,0,0,569,1513c-1.08-10,9.53-45.66,9.53-45.66l.12,0c11.55,6.56,25,12,37.69,16.49"/><path class="cls-16" d="M499.21,1329.35c-1.2,13.38,13,32.24,7.08,38.81s-10.64-3.57-24.85,9.22-43.77,107.78-37.85,125,27.29,25,23.11,55.56c-6.54-3.08-11.39-20-12.88-25.81l-13.46,12.34c-.58,1.75-1.41,4.2-2.61,7.77a186.38,186.38,0,0,1-9.89,23.89c-3.07,6.61-11.44,13.3-9.7,3.33,1.24-7.19,7-23.39,10-31.79l-1.7-1.29c-2.32,5.74-6.91,16.71-10.6,23.23-5.09,9.1-8.69,12.26-10.93,9.43-1.45-1.78,5.51-18.45,10.56-29.91-4.93,9-11.76,17.32-14.12,15.12-2.15-2,7.12-19,13.41-29.79-4,4.2-8.57,8.27-9.73,6.31-2.15-3.61,15.28-25.51,15.28-25.51s10.9-16.41,11.69-21.07c0,0,11-74.24,23.35-105.49,9.44-23.93,17.44-41.21,23.19-48.65l30-90c.37-10.34,4.26-23.31,7.58-30.62,6.91-15.12,20-26.34,35.53-31.83-12,18.7-28.33,48-27.58,69.31,1.16,33.61-23.69,59.12-24.85,72.46"/><path class="cls-16" d="M918.28,1564.23c-2.36,2.2-9.19-6.15-14.12-15.12,5.05,11.46,12,28.13,10.56,29.91-2.2,2.83-5.8-.33-10.93-9.43-3.69-6.52-8.24-17.49-10.56-23.23l-1.75,1.29c3.07,8.4,8.75,24.6,10,31.79,1.74,10-6.63,3.28-9.69-3.33a190.49,190.49,0,0,1-9.94-23.89c-1.16-3.57-2-6-2.61-7.77l-13.46-12.34c-1.49,5.82-6.33,22.73-12.88,25.81-7.95,3.69-1.61-9.48.62-18.58s5.8-21.4,5.8-21.4,3.89-14.83,2.86-19.69c-6.34-29.62-48.83-76.82-53.63-108.53-.46-3-4.94-24.14-4.72-26.84-6.43-13.09-22.62-46.58-33.3-73.71-1.7,7.11-3.4,14.34-5.06,21.57-12.13-54.89-20.37-98.1-18.1-105.29,0,0,10.36,39.93,27.8,52.39S808,1342.73,821,1346.3s1.2,13,0,22.52,34.34,87,46.14,123.07,26.3,54.72,41,35.28c3.93,5.77,7.49,11.84,6.45,13.59-1.15,2-5.75-2.12-9.72-6.32,6.33,10.84,15.6,27.75,13.41,29.79"/><path class="cls-21" d="M764.91,1270.84a132.48,132.48,0,0,1-11.62-35l-11-57.13h-12s24.44,80.83-3.76,85.26c-28.78,4.51-56.76,30-67.91,41.21-10.52-12.15-36.6-38.91-65.87-43.84-28.14-4.73-1.36-82.63-1.36-82.63h-12l-11,57.13a132.24,132.24,0,0,1-11.61,35c-8.72,16.9-12.78,44.3,5.81,57.71l6,29s12.7-2.7,69.59-6.2,117.43,6.2,117.43,6.2l6.57-31.39h0c15.17-14.08,11.1-39.35,2.88-55.29"/><path class="cls-22" d="M564.42,1273s12.87,33.83,41.27,39.18,42.37,4,48.7,8.9-69.77,14.16-86.43,3.12-11.53-48.08-3.54-51.2"/><path class="cls-22" d="M718,1273c-2.1,1.39-37.72,21.81-43.49,38.28s17.75-5.33,40.38-19.14,18.81-29.53,3.11-19.14"/><path class="cls-15" d="M1959.58,2245.62c0,19.68-92.24,35.63-206,35.63s-206-15.95-206-35.63,92.24-35.62,206-35.62,206,15.95,206,35.62"/><path class="cls-14" d="M1791.55,1069.27c-32.52-53.68-80.09-28.53-103.1-.66-26.1,31.61-20.83,74.33-38.11,109.58-9.38,19.14-33.38,7-42.67,25.46-5.27,10.46-3.94,25.52,2.91,34.92,2.42,3.32,13.51,11.48,10.09,17.31-5,8.43-28.05,6.9-36.31,16.65-10.64,12.54-11.76,31.33-10.13,47.51,2.61,25.85,3.62,44.82,24.9,61.25,33.16,25.61,83.54,27.38,122.29,30,30.76,2,63.5,4.68,94-2,18.15-4,36.23-12.49,53.14-20.59,26.67-12.75,51.49-34.2,56.35-68.06,4.19-29.12-25.16-36.17-37.38-53.75-4.24-6.08,1.79-12.93,3.08-18.93,2.07-9.47,4-21.75.13-31-5.93-14-22-10.53-30.66-20.07-21.22-23.4-4.71-67.64-15.2-96-4.8-13-10.75-33.61-29.09-35.16C1808.15,1065.05,1799.07,1068.66,1791.55,1069.27Z"/><path class="cls-16" d="M1784.93,1291.7c-6.55-25-8.26-41.6-8.26-41.6l-28.19,4.85-28.18-4.85s-4,16.8-10.55,41.81l38.73,17Z"/><path class="cls-17" d="M1793.4,1109s-7,18.92-43.26,29.74c-44,13.14-52.43-17-52.43-17s-13.46,19.7-6.43,63.94c0,0,.33,29.2,12.42,54.22,9,18.52,45,30,47,29.32,1.94.64,36.8-10.18,45.75-28.7,12.09-25,13.63-54.84,13.63-54.84,6.55-65.59-16.63-76.71-16.63-76.71"/><path class="cls-17" d="M1735.93,1727.81c-7.81-34.25-155.59-72.54-155.59-72.54s-20.78,74.8,21.54,255.83a171,171,0,0,0-1,29.82c.14,2.12.4,4.19.69,6.24-4.73,12.19-10.37,33-12,65.25-2.63,51,17.14,129.44,22.32,149-1.51,5.93-3.28,13.2-4.6,19.53-2.77,13.35-3.11,26.34-6.23,40.05s-8,24.9-5.54,30.31,11.43,7.22,28.75,9.75,24.25-1.45,24.25-1.45,6.24,3.49,13.16,2.28,14.21-3,14.56-8.41-2.77-13-6.94-23.82c-3.75-9.79-4.7-42.44-10.73-61.73h.06s41.35-147.51,23.14-216.82a35,35,0,0,0-2.51-6.75c3.59-9.48,5.51-25,6.42-34.77,0,0,58.12-147.47,50.31-181.72"/><path class="cls-17" d="M1898.67,2016.21c-1.66-32.28-7.3-53-12-65.25.3-2,.55-4.11.69-6.23a171.16,171.16,0,0,0-1.09-30.31c41.27-184.85,10.61-298.14,10.61-298.14s-134.76,75.07-142.57,109.33,48.28,187.73,48.28,187.73c.91,9.75,2.83,25.29,6.43,34.77a34.4,34.4,0,0,0-2.52,6.75c-18.21,69.31,23.14,216.83,23.14,216.83h.06c-6,19.29-7,52-10.73,61.73-4.16,10.83-7.28,18.41-6.94,23.82s7.62,7.22,14.56,8.42,13.16-2.29,13.16-2.29,6.93,4,24.25,1.44,26.33-4.32,28.75-9.74-2.42-16.6-5.54-30.31-3.46-26.7-6.23-40.05c-1.31-6.33-3.09-13.61-4.6-19.53,5.18-19.51,25-98,22.32-149"/><path class="cls-17" d="M2031.76,1633.32c-1.93,2.46-9.8-4.37-15.92-12.12,6.61,10,15.88,24.71,14.79,26.62-1.69,3-5.64.6-12-7.23-4.56-5.6-10.65-15.26-13.75-20.3l-1.45,1.51c4.19,7.43,12.17,21.85,14.51,28.45,3.23,9.14-5.84,4.09-9.84-1.67a179.89,179.89,0,0,1-13.22-21c-1.7-3.18-2.87-5.4-3.71-7l-14.84-9.58c-.53,5.72-2.58,22.45-8.39,26.34-7.06,4.69-3-8.7-2.26-17.64s2.26-21.1,2.26-21.1v-11.75l-.2.07s-74.8-86.73-84.36-115.89c0,0-6-9.46-14.15-22.73-.53,2-1.09,4.05-1.7,6a191.93,191.93,0,0,1-17,40.21s44.64,68.65,48.39,123.21v0c-1.5,50.55-136.34,117.37-145.41,115.9-.49.08-14.72.16-16,0-.28,0-156-34-157.26-78.39-2-68.89,51.05-140.85,51.05-140.85a475.83,475.83,0,0,1-12.59-62.37c-6.93,11.28-11.85,19-11.85,19-9.52,29.16-84.36,115.89-84.36,115.89l-.16-.07v11.75s1.49,12.16,2.26,21.1c.68,8.07,4,19.71-.49,18.52a5.64,5.64,0,0,1-1.77-.88c-5.85-3.89-7.86-20.62-8.43-26.34l-14.84,9.58c-.8,1.55-2,3.77-3.71,7a169.7,169.7,0,0,1-13.22,21c-4,5.76-13,10.81-9.8,1.67,2.34-6.6,10.28-21,14.52-28.45l-1.46-1.51c-3.1,5-9.23,14.7-13.75,20.3-6.33,7.83-10.28,10.21-12,7.23-1.13-1.91,8.14-16.57,14.76-26.62-6.13,7.75-14,14.58-15.89,12.12-1.78-2.26,9.76-16.77,17.5-26.06-4.48,3.33-9.52,6.47-10.32,4.45-1.54-3.7,18.58-21.74,18.58-21.74,2.67-7.94,5.21-15.21,6.66-19.5l-.12-.08s.52-1.39,1.45-3.78h0c5.93-15.22,28.71-72.55,45.44-100.16a206.41,206.41,0,0,1,19.64-27.49v0l40.41-91.82c10.08-35.52,31.13-46.09,42.1-49.23a32.49,32.49,0,0,1,7-1.27v0l0,0L1713,1283s10.45,12,32.22,12a50.91,50.91,0,0,0,32.18-12l65.93,13.63,0,0v0s35.16,1.19,49.11,50.5l40.41,91.82v0a209,209,0,0,1,19.68,27.49c8.34,13.83,18.22,35,26.77,54.75S1995,1559,1998,1566.61c.93,2.42,1.49,3.78,1.49,3.78l-.16.08c1.49,4.25,4,11.56,6.66,19.5,0,0,4.11,3.7,8.46,8.07,5.33,5.32,11,11.64,10.17,13.67s-5.85-1.12-10.33-4.45c7.75,9.29,19.28,23.8,17.5,26.06"/><path class="cls-16" d="M1638,1320.34s2,8.94-2.34,20.43-15.55,40.87-13.39,51.51,12.53-5.53,28.51-12.34,31.72,3,37-3.41-19.73-19.58-27.51-30.22-7.35-23.41-15.12-29.37-7.17,3.4-7.17,3.4"/><path class="cls-16" d="M1757.51,1345s-16.42,62.15-6,79.18,35.86-31.92,51-39.59-25.06-36.61-29.38-51.08-13.85,4.54-15.55,11.49"/><path class="cls-16" d="M1640,1297.87a109.19,109.19,0,0,0-32.42,51.14c-11.49,39.17-13.75,53-27.3,83s-14.15,35.12-6.69,39.93,20.12-19,27.05-14.47-3.83,27.82-31.85,40.29-57.38,58.45-58,76c-.52,16.61,13.27,46.85,13.39,64.49a5.57,5.57,0,0,1-1.78-.88c-5.84-3.89-7.86-20.61-8.42-26.34l-14.84,9.58c-.81,1.55-2,3.77-3.71,7a170.74,170.74,0,0,1-13.23,21c-4,5.76-13,10.81-9.8,1.67,2.34-6.6,10.29-21,14.52-28.45l-1.45-1.51c-3.11,5-9.24,14.7-13.75,20.3-6.33,7.83-10.29,10.22-12,7.24-1.13-1.91,8.15-16.57,14.76-26.62-6.13,7.74-14,14.58-15.89,12.11-1.77-2.27,9.76-16.76,17.5-26.06-4.47,3.34-9.51,6.48-10.32,4.45-1.53-3.7,18.59-21.73,18.59-21.73,2.66-8,5.2-15.22,6.65-19.52l-.12-.07s.53-1.39,1.45-3.77h0c5.93-15.22,28.71-72.55,45.45-100.17a205.5,205.5,0,0,1,19.64-27.49v0l40.4-91.82c10.08-35.52,31.13-46.09,42.1-49.23"/><path class="cls-16" d="M2031.76,1633.32c-1.93,2.47-9.8-4.37-15.92-12.12,6.61,10.06,15.88,24.72,14.79,26.62-1.69,3-5.64.6-12-7.23-4.56-5.6-10.65-15.25-13.75-20.3l-1.45,1.51c4.19,7.43,12.17,21.85,14.51,28.45,3.23,9.14-5.84,4.09-9.84-1.67a179.89,179.89,0,0,1-13.22-21c-1.7-3.18-2.87-5.4-3.71-7l-14.84-9.58c-.53,5.72-2.58,22.45-8.39,26.34-7.06,4.69-3-8.7-2.26-17.64s2.26-21.09,2.26-21.09v-11.76l-.2.08s-74.8-86.74-84.36-115.9c0,0-6-9.46-14.15-22.73-.53,2-1.09,4.06-1.7,6-9.67-35.28-20.52-75-20.6-76.32,0,0-3.11-39.77,3.63-39.77s29.19,57.89,41.29,84.71,22.46,14,25.93,26.38-9.52,7-6,22.56,26.49,68.31,47.26,91.9,21.85,39.5,36.29,44.62,16.94,1.39,19.11-10.37c5.33,5.32,11,11.64,10.17,13.67s-5.85-1.11-10.33-4.45c7.75,9.3,19.28,23.8,17.5,26.06"/><path class="cls-16" d="M1601.79,1656.89s-6.9,67.3-1.12,141.09,17.31,106.7,16.16,116.92-1,25,.08,37.46-16.27,30.65-16.24,74.92,12.95,109,16.28,130.55-17.31,77.19-9.29,85.14,35.66,14.75,36.82,0,5.75-55.63,0-71.52-15-67-10.37-105.57,1.15-72.65,4.6-76.06,20.74-11.35,21.9-23.84-21.9-27.24-21.9-44.27,5.65-127.25,29.94-163.46,15-65.8,4.63-84.56-71.49-16.8-71.49-16.8"/><path class="cls-16" d="M1788.48,1673.68s-21.88,58.44,0,156.07,33.42,91,33.42,111.33,8.79,34,8.79,34-8.49,27.25,0,93.08,12,96.49,8.49,110.11-19.59,69.62-15,73.41,26.5-10.59,31.11-18.16,15-72.27,11.52-92.71-13.83-101-13.83-120.32,18.67-40.87,14.52-51.09-26-34-26-49.94,2-133.31,4.77-185.66,18.27-71.35,12.52-78.5-70.29,18.41-70.29,18.41"/><path class="cls-23" d="M1902.84,1649.09c-59.52-3.3-148.39,84.67-148.39,84.67h-17.83c-15.08-11.6-79.52-66.39-134.84-76.88a90.51,90.51,0,0,0-21.45-1.59c-2-68.89,51.05-140.85,51.05-140.85s-18.79-65-15-118.47c7.7-15.5,21.25-34,42.18-34,36.09,0,66.13,26.69,78.23,49,3.18,5.88,10.08,5.88,13.22,0,12.1-22.3,42.18-49,78.27-49,25.24,0,39.76,26.93,46.17,43.06,1.82,46.89-23.87,89.52-23.87,89.52s40.61,56.18,48.47,113.79c-1.13.12,5,40.81,3.79,40.76"/><path class="cls-24" d="M1765.73,1451s25.06,24.69,51,25.54,44.93-17.88,42.77-23.83-23.6,7.65-46.79,5.1-53.45-12.47-47-6.81"/><path class="cls-24" d="M1655.93,1616.28c-13.87-38.66,13.88-77.12,23.39-96.71,5.91-12.15,3.07-27.57.07-37.53,21.37-5.57,49.45-26.94,42.7-31-7.78-4.68-18.15,10.64-49.26,10.22s-41.9-12.77-41.9-12.77c-7.09,3,.35,14.44,12,23.42,0,.06,2.7,32.35,1.85,47.67s-31.13,58.73-37.17,86.42c-3.51,16.17-9.4,36.15-5.81,50.89,55.32,10.49,119.76,65.28,134.84,76.88-3.22-29.28-66.81-78.82-80.69-117.48"/><path class="cls-15" d="M2446.15,2259.34c0,16.84-66.24,30.49-147.94,30.49s-147.93-13.65-147.93-30.49,66.23-30.5,147.93-30.5,147.94,13.66,147.94,30.5"/><path class="cls-16" d="M2314.34,1122.07c-7-26.72-3.52-45.24-3.52-45.24l-30,5.19-30-5.19s3.46,18.52-3.52,45.24l33.55,17.56Z"/><path class="cls-17" d="M2328.66,926.14l-45.55-6.09-45.55,6.09s-24.69,11.87-17.71,81.93a179.37,179.37,0,0,0,15.56,53.44c9.55,19.78,45.63,36.49,47.7,35.8,2.07.69,38.16-16,47.7-35.8a179.57,179.57,0,0,0,15.57-53.44c7-70.06-17.72-81.93-17.72-81.93"/><path class="cls-17" d="M2222.72,1010.52s-5-18.48-13.69-18.7-12.27,19.59-3,38.52,24.55,13.14,24.55,13.14Z"/><path class="cls-17" d="M2343.32,1007.85s5-18.48,13.69-18.7,12.28,19.59,3,38.52-24.56,13.14-24.56,13.14Z"/><path class="cls-17" d="M2404.53,1919.5c-.78-36.17-5.84-59.57-10.22-73.36.35-2.27.67-4.58.87-7a207.61,207.61,0,0,0,0-29.61c54.63-202.46,20.82-321.06,20.82-321.06s-112.51,7.9-133.65,40.31c-20.92-32.2-135.64-34.77-135.64-34.77s-33.22,128,33.3,322.17a201.81,201.81,0,0,0,1.25,27.19c.3,2.35.69,4.65,1.14,6.9-3.84,14-8,37.61-7.34,73.78,1.15,65.64,37.67,222.27,37.67,222.27-1.2,7.25-3,18.33-4.07,27.57-1.81,15.12-1.23,29.65-3.36,45.2s-6.16,28.42-3.36,34.27,11.88,7.17,29.29,8.65,24-3.48,24-3.48,6.45,3.41,13.26,1.53,13.91-4.45,13.87-10.52-3.68-14.29-8.58-26.06c-4.53-10.88-7.83-48.76-15.57-69.57-.12-16.64-1.81-251.22-11.07-305.83h0c7.22-12,11.65-56.36,11.65-56.36,6.41-40.78,18.72-173.6,24.54-235.33,8.19,61.48,24.25,194.23,32.29,234.87,0,0,6.16,44.06,13.85,55.75-7.12,55,.35,289.44.9,306.08-6.92,21.15-8.74,59.15-12.85,70.24-4.44,12-7.75,20.38-7.55,26.44s7.4,8.3,14.27,9.85,13.18-2.16,13.18-2.16,6.8,4.65,24.14,2.34,26.36-4.07,28.92-10.05-2-18.65-4.69-34.08-2.73-30-5.13-45c-1.46-9.18-3.65-20.17-5.14-27.35,0,0,30.36-158.22,29-223.86"/><path class="cls-17" d="M2552.83,1543.37c-1.93,3-9.77-5.47-15.88-15,5.27,10,12.27,23.61,14.28,29.88a5.84,5.84,0,0,1,.48,3.16c-.56,1.2-1.33,1.69-2.33,1.42-2.13-.4-5.31-3.87-9.61-10.45-4.55-6.93-10.62-18.9-13.71-25.17l-1.45,1.87c4.18,9.21,12.14,27.13,14.47,35.31,3.22,11.34-5.83,5.11-9.81-2s-7.52-12.94-13.19-26.1c-1.68-4-2.85-6.67-3.69-8.63l-14.8-11.91c-.52,7.11-2.58,27.88-8.37,32.68-7,5.87-3-10.77-2.25-21.88s2.25-26.15,2.25-26.15v-14.58l-.2.09s-46.12-80.54-67-142.53c-8.61-14.77-36-61.06-53.28-95.57l0-.09c-2.94-5.83-5.55-11.25-7.76-16.18-.93,6-1.81,11.92-2.61,17.7-1.53,11.11-2.7,21.74-3.38,31.3-.73,10.18-.81,19.13,0,25.93,7,63.32,58.34,102.24,60.35,184.46l-131.84,62.83v2.76l-2.86-1.37-2.89,1.37v-2.76l-62.85-30-56.37-26.86-12.59-6c1.53-64.21,33.74-102.68,50.67-146.08,0,0,0,0,0-.09a142.4,142.4,0,0,0,9.61-38.29c.8-8.27.52-19.61-.53-32.6v-.26c-.52-6.81-1.28-14-2.17-21.48v0c-.72-6.13-1.53-12.45-2.41-18.81-16.08,34.82-49.7,91.57-59.39,108.24-20.91,62-67.07,142.53-67.07,142.53l-.16-.09v14.58s1.49,15.08,2.26,26.15c.64,9.16,3.49,22.11.48,23-.61.27-1.49-.08-2.74-1.11-5.83-4.85-7.84-25.57-8.4-32.68l-14.8,11.91c-.8,1.92-2,4.67-3.7,8.63a226.25,226.25,0,0,1-13.18,26.11c-3.94,7.15-13,13.38-9.78,2,2.34-8.18,10.26-26.1,14.48-35.31l-1.45-1.87c-3.09,6.28-9.21,18.24-13.71,25.18-6.31,9.69-10.25,12.71-11.94,9-1.13-2.4,8.12-20.59,14.72-33-6.12,9.56-13.92,18.06-15.85,15-1.77-2.8,9.73-20.85,17.45-32.37-4.46,4.13-9.49,8-10.29,5.56a2.3,2.3,0,0,1,0-1.07,79.07,79.07,0,0,1,8.32-9c1.77-1.65,10.26-17,10.26-17,2.65-9.82,13-27.35,14.47-32.64,0,0,13-60.61,32.49-97.12,13.67-25.53,20.27-35.26,26.94-42.91l46.88-130.08a129.25,129.25,0,0,1,10.7-32.28,46.33,46.33,0,0,1,29.91-24.6l13.23-3.33,39.61-9.92s13.35,9.83,29.79,9.83c20.79,0,30.64-12.23,30.64-12.23l56.21,17.26a46,46,0,0,1,27,22.5c4.39,8.18,8.85,19.48,11.9,34.64l46.93,130.07c6.67,7.65,13.27,17.39,26.94,42.92,19.54,36.51,32.49,97.12,32.49,97.12,1.44,5.29,11.78,22.81,14.43,32.64,0,0,4.3,4.8,8.77,10.4,5.18,6.5,10.61,14.1,9.81,16.59s-5.83-1.42-10.3-5.55c7.72,11.51,19.22,29.57,17.45,32.37"/><path class="cls-16" d="M2321.74,1208.55c-18.25,8.81-34.26,24.91-41.81,33.31-3.26-18.63,1.28-66.17,1.28-66.17,1.25-15.61,11.3-24.77,17.73-3.82,3.66,12,14.92,25,22.8,36.68"/><path class="cls-16" d="M2223,1172.36c-2,9.29-4.34,17.47-6.27,24.76-13.71-15.51,4.87-75.15,4.87-75.15s4.1-5.82,6.67,7.52c0,0,1.49,10.49-5.27,42.87"/><path class="cls-16" d="M2251.15,2204.37c5.19,29.57,2.58,41.94-12.06,43.85s-31-11.43-25.85-28.6,6.91-64.79,6.91-72.39S2194.3,2010,2188.27,1948s0-79.11,0-89.56.84-30.5,3.45-41-40.53-93.39-41.37-184.86c-.44-49.67,2.37-95.39,8-135,14.68,3.69,34.86,12.27,54.72,21.74.61,1.52,1.17,2.94,1.77,4.36v0c16.53,39.31-4.46,252.76,0,287s18.26,21.92,13.11,40-11.22,15.26-13.79,29.58,13.35,242,21.31,260.15,10.58,34.28,15.72,63.81"/><path class="cls-16" d="M2358.3,1249.16c-1.53,11.11-2.7,21.74-3.38,31.3-6.31,3.56-16.93,7.38-34,8.14-22.92,1.07-45-7.74-56.73-13.43-10.74,18.14-25.94,48.25-30,78.27-6.35,47.62,28.31,81.91,7.72,95.25s-18.37-27.31-36.91-29.84c-9.29-1.29-11,15.12-8.28,36.78a167.93,167.93,0,0,1-28.27-12.14c2.86-11.56,6-22.24,9.41-31.93a569.22,569.22,0,0,0,18.58-66.79s0,0,0-.09a142.4,142.4,0,0,0,9.61-38.29c.8-8.27.52-19.61-.53-32.6v-.27c0-8.36-.68-15.69-2.17-21.47v0l69.93,5.83,6.47-4.63,78.12-5.56Z"/><path class="cls-16" d="M2361.26,1514s-4.14-11.92-5.86,110.06-7.24,150.56,5.86,152.47,26.88-64.81,36.36-61-8.62,77.19-12.07,90.53.1,36.21-9,47.64-7.37,15.25-13.41,47.65-12.14,186.77-10.38,220.12,10.38,29.55,13,52.42-6.74,56.22-13.28,66.7-16,5.13-22,7.8-10.35-10.66-7.76-16.38,16.37-66.7,15.51-84.8-2.59-204.89-2.59-246.81,8.62-53.37,8.62-53.37-7.75-23.82-15.51-59.08S2293,1549.13,2293,1549.13s58.64-35.6,68.29-35.13"/><path class="cls-16" d="M2335.86,1472.22s15.51-57.18,13.79-79.41-21.26,64.16-36.19,83.21,16.65,19.46,22.4-3.8"/><path class="cls-16" d="M2211.13,1124.73,2209,1135s-18.09,5-30.63,30.37-12.51,45.1-14.8,62.26-39.65,80.67-32.17,88.94,21.79-36.06,32.17-33.66-25,53.36-33.17,55.9-26.58,19.7-41.54,68-33.85,59.68-33.85,73.69,14.35,16.49,15.48,30.46c1.12,13.56,6.35,35.27,6.67,36.64-.6.27-1.49-.08-2.73-1.11-5.83-4.85-7.84-25.57-8.41-32.68l-14.79,11.91c-.81,1.92-2,4.67-3.7,8.63a225.14,225.14,0,0,1-13.19,26.11c-3.94,7.15-13,13.38-9.77,2,2.33-8.18,10.25-26.1,14.47-35.31l-1.45-1.87c-3.09,6.27-9.2,18.24-13.71,25.17-6.31,9.69-10.25,12.72-11.94,9-1.12-2.4,8.12-20.59,14.72-33-6.11,9.56-13.91,18.06-15.84,15-1.77-2.8,9.73-20.85,17.45-32.37-4.47,4.13-9.49,8-10.3,5.56a2.31,2.31,0,0,1,0-1.07,80.91,80.91,0,0,1,8.33-9c1.77-1.65,10.25-17,10.25-17,2.65-9.83,13-27.35,14.47-32.64,0,0,13-60.61,32.49-97.12,13.67-25.53,20.27-35.27,26.94-42.91l46.89-130.08a128.88,128.88,0,0,1,10.69-32.28,46.32,46.32,0,0,1,29.92-24.6Z"/><path class="cls-16" d="M2552.83,1543.37c-1.93,3-9.77-5.47-15.88-15,5.27,10,12.27,23.61,14.28,29.88-.61,1.51-1.21,3-1.85,4.58-2.13-.4-5.31-3.87-9.61-10.45-4.55-6.94-10.62-18.9-13.71-25.17l-1.45,1.86c4.18,9.21,12.14,27.14,14.47,35.32,3.22,11.34-5.83,5.11-9.81-2s-7.52-12.94-13.19-26.1c-1.68-4-2.85-6.67-3.69-8.63l-14.8-11.92c-.52,7.12-2.58,27.89-8.37,32.69-7,5.86-3-10.77-2.25-21.89s2.25-26.14,2.25-26.14v-14.59l-.2.09s-46.12-80.53-67-142.52c-8.61-14.77-36-61.06-53.28-95.57l0-.09-10.74-90.45s13.55,26.15,26.78,35.88,2.29,55.91,10.9,75.12,21.35,49,30.8,51.53,18.62-3.15,20.91,5.12-13.23,3.78-7.48,21.57,47.69,96,54.56,118.2,17.25,48.25,28.15,52.7,13.31-17.35,13.31-17.35c5.18,6.49,10.61,14.1,9.81,16.59s-5.83-1.43-10.3-5.56c7.72,11.52,19.22,29.58,17.45,32.38"/><path class="cls-25" d="M2213,1519.35c-19.86-9.47-40.05-18-54.73-21.74,0-.27.09-.49.13-.76,2.73-19.3,6.11-37.17,10.09-53.36a167.4,167.4,0,0,0,28.26,12.14,287.19,287.19,0,0,0,16.25,63.72"/><path class="cls-25" d="M2155.56,1435.17a87.8,87.8,0,0,0,13,8.32c-4,16.19-7.36,34.06-10.1,53.36,0,.27-.08.49-.12.76a54.83,54.83,0,0,0-12.46-2s-1.45-32.46,9.73-60.44"/><path class="cls-26" d="M2416.69,1490.85s-106.51,41.23-133.29,65.59c0,0-34.7-20-70.37-37.09a286.61,286.61,0,0,1-16.24-63.72c20.26,6.62,48.09,12.09,83.75,11.12,84.32-2.36,123.28-36.74,123.28-36.74a141.65,141.65,0,0,1,12.87,60.84"/><path class="cls-25" d="M2220.74,1265.25c-20.43-1.87-30.76-21.88-26.9-38.11s12.5-49.18,17.25-77.15,10.53-28,10.53-28-18.57,59.63-4.86,75.15c-4.83,18.15-7,30.91,6.27,42.43,18.62,16.19,18.13,27.61-2.29,25.7"/><path class="cls-25" d="M2329.1,1231.9c-6,14.8-42.38,27.7-47.89,14.81a21.81,21.81,0,0,1-1.29-4.85c7.56-8.4,23.56-24.5,41.82-33.31,5.91,8.85,10,17,7.36,23.35"/><path class="cls-26" d="M2366.3,1264.41c-15,11.92-62.4,15.65-86.49-11.21-23.48,27.44-67.95,23.21-83,11.21-16-12.77-12.54-38.82-5-54.88a134.4,134.4,0,0,0,10-33.26l9.53-54.3h10.33s-5.79,0-10.53,28-13.35,61-17.25,77.15,6.47,36.24,26.9,38.11,20.91-9.51,2.29-25.7c-13.31-11.52-11.1-24.28-6.27-42.43a10.2,10.2,0,0,0,6,3.43c25.29,4.67,47.77,30.15,56.81,41.67l.32-.36a22.79,22.79,0,0,0,1.29,4.85c5.51,12.89,41.86,0,47.89-14.81,2.61-6.36-1.45-14.5-7.36-23.35a59.81,59.81,0,0,1,16.41-5.51c24.32-4.23,3.25-81.07,3.25-81.07h10.34l9.53,54.3a134.4,134.4,0,0,0,10,33.26c7.52,16.06,11,42.11-5,54.88"/><path class="cls-27" d="M2307.47,926.6s2.35,13.23-22.1,42.42-47.26,21.73-52.48,37,4.6,20.37,4.6,20.37-7.47,3.22-12.32-5.69c0,0,1.89,11.46,8,14.85,0,0-5.24,6.45-14.59-11.2s-6.07-23.86-14.46-29.92c0,0-10.64-41.36,0-67.83s26.44-27.16,26.44-27.16,9.76-19,52.53-25.12,71,41.41,78.36,70.6-14.73,72.64-15.65,85.54,4.65,18.67,4.65,18.67-7.1-1.43-9.87-9.85c0,0-1.84,7.81,0,12.56,0,0-7.36-3-8.59-19s4-33.95,0-48.88-25.17-14.6-24.55-57.36"/><path class="cls-9" d="M4223.88,348.43a17.13,17.13,0,0,0-17.09-17.15h-1428a17.12,17.12,0,0,0-17.1,17.15v734a17.12,17.12,0,0,0,17.1,17.15h1428a17.13,17.13,0,0,0,17.09-17.15Z"/><path class="cls-28" d="M4157.24,908H2827.43V1041.2H4157.24Zm0-11.3H2827.43V815.86H4157.24Zm0-92.09H2827.43v-82.3H4157.24Zm0-93.59H2827.43V622.64H4157.24Zm0-99.63H2827.43V530H4157.24Zm0-92.68V418.81H2827.43v99.85Z"/><path class="cls-4" d="M2761.72,368.8H4223.88V348.43a17.13,17.13,0,0,0-17.09-17.15h-1428a17.12,17.12,0,0,0-17.1,17.15Z"/><ellipse class="cls-26" cx="3010.69" cy="717.43" rx="22" ry="22.07"/><ellipse class="cls-26" cx="3319.59" cy="615.4" rx="22" ry="22.07"/><ellipse class="cls-26" cx="3687.06" cy="808.58" rx="22" ry="22.07"/><ellipse class="cls-26" cx="4011.13" cy="670.36" rx="22" ry="22.07"/><path class="cls-29" d="M3008.84,713.61l307.22-100.43L3685.64,810l322.57-133.21"/><rect class="cls-30" x="3004.12" y="751.07" width="8.77" height="242.07"/><rect class="cls-30" x="3314.62" y="647.02" width="8.77" height="346.13"/><rect class="cls-30" x="4007.48" y="708.35" width="8.77" height="287.97"/><rect class="cls-30" x="3681.79" y="841.15" width="8.77" height="151.99"/><rect class="cls-31" x="238.84" y="478.33" width="16.6" height="1798.01"/><path class="cls-32" d="M220.5,588.2H186.71v10.41H220.5Zm0-28H186.71v10.4H220.5Zm0-28H186.71v10.41H220.5Zm0-28H186.71v10.4H220.5Zm0-24.25H153.8v10.41h66.7Z"/><path class="cls-32" d="M220.5,727.19H186.71v10.4H220.5Zm0-28H186.71V709.6H220.5Zm0-28H186.71v10.4H220.5Zm0-28H186.71v10.41H220.5Zm0-24.24H153.8v10.4h66.7Z"/><path class="cls-32" d="M220.5,866.17H186.71v10.4H220.5Zm0-28H186.71v10.4H220.5Zm0-28H186.71v10.4H220.5Zm0-28H186.71v10.4H220.5Zm0-24.25H153.8v10.4h66.7Z"/><path class="cls-32" d="M220.5,1005.16H186.71v10.4H220.5Zm0-28H186.71v10.41H220.5Zm0-28H186.71v10.4H220.5Zm0-28H186.71v10.41H220.5Zm0-24.24H153.8v10.4h66.7Z"/><path class="cls-32" d="M220.5,1144.14H186.71v10.4H220.5Zm0-28H186.71v10.41H220.5Zm0-28H186.71v10.4H220.5Zm0-28H186.71v10.4H220.5Zm0-24.25H153.8v10.4h66.7Z"/><path class="cls-32" d="M220.5,1283.13H186.71v10.4H220.5Zm0-28H186.71v10.41H220.5Zm0-28H186.71v10.41H220.5Zm0-28H186.71v10.41H220.5Zm0-24.25H153.8v10.41h66.7Z"/><path class="cls-32" d="M220.5,1422.11H186.71v10.4H220.5Zm0-28H186.71v10.4H220.5Zm0-28H186.71v10.4H220.5Zm0-28H186.71v10.4H220.5Zm0-24.25H153.8v10.4h66.7Z"/><path class="cls-32" d="M220.5,1561.1H186.71v10.4H220.5Zm0-28H186.71v10.4H220.5Zm0-28H186.71v10.41H220.5Zm0-28H186.71v10.4H220.5Zm0-24.25H153.8v10.41h66.7Z"/><path class="cls-32" d="M220.5,1700.08H186.71v10.4H220.5Zm0-28H186.71v10.41H220.5Zm0-28H186.71v10.4H220.5Zm0-28H186.71v10.4H220.5Zm0-24.25H153.8v10.4h66.7Z"/><path class="cls-32" d="M220.5,1839.07H186.71v10.4H220.5Zm0-28H186.71v10.41H220.5Zm0-28H186.71v10.41H220.5Zm0-28H186.71v10.41H220.5Zm0-24.25H153.8v10.41h66.7Z"/><path class="cls-32" d="M220.5,1978.05H186.71v10.4H220.5Zm0-28H186.71v10.41H220.5Zm0-28H186.71v10.4H220.5Zm0-28H186.71v10.41H220.5Zm0-24.24H153.8v10.4h66.7Z"/><path class="cls-32" d="M220.5,2117H186.71v10.4H220.5Zm0-28H186.71v10.4H220.5Zm0-28H186.71v10.41H220.5Zm0-28H186.71v10.4H220.5Zm0-24.25H153.8v10.41h66.7Z"/><path class="cls-32" d="M220.5,2256H186.71v10.4H220.5Zm0-28H186.71v10.41H220.5Zm0-28H186.71v10.4H220.5Zm0-28H186.71v10.41H220.5Zm0-24.24H153.8v10.4h66.7Z"/><path class="cls-4" d="M613.34,844.7l47.84,81.16,46.4-81.16h87.2a24.42,24.42,0,0,0,24.37-24.47V706.7a24.42,24.42,0,0,0-24.37-24.47H524.64a24.42,24.42,0,0,0-24.37,24.47V820.23a24.42,24.42,0,0,0,24.37,24.47Z"/><path class="cls-4" d="M1105.92,600.24l47.84,81.16,46.39-81.16h87.2a24.43,24.43,0,0,0,24.38-24.47V462.23a24.42,24.42,0,0,0-24.38-24.46H1017.22a24.42,24.42,0,0,0-24.37,24.46V575.77a24.43,24.43,0,0,0,24.37,24.47Z"/><path class="cls-4" d="M1691.65,925.81l47.83,81.15,46.4-81.15h87.2a24.44,24.44,0,0,0,24.38-24.47V787.8a24.44,24.44,0,0,0-24.38-24.47H1603a24.44,24.44,0,0,0-24.38,24.47V901.34A24.44,24.44,0,0,0,1603,925.81Z"/><path class="cls-4" d="M2235.72,746.39l47.84,81.15,46.4-81.15h87.2a24.44,24.44,0,0,0,24.38-24.47V608.38a24.44,24.44,0,0,0-24.38-24.47H2147a24.44,24.44,0,0,0-24.38,24.47V721.92A24.44,24.44,0,0,0,2147,746.39Z"/><path class="cls-6" d="M537.22,760.9v-8.1a53.46,53.46,0,0,0,7.86-.75,11,11,0,0,0,5.84-3.18,12.08,12.08,0,0,0,2.77-6.76h9.87v60.56H551.41V760.9Z"/><path class="cls-6" d="M623.7,752.22a71.64,71.64,0,0,0-7.43,9.37,82.08,82.08,0,0,0-7.95,13.93,83.42,83.42,0,0,0-4.57,13.78,56.91,56.91,0,0,0-2,13.37H589.38q.55-16.29,10.66-33.88,6.53-10.89,11-15.2H580.88l.19-10.69H623.7Z"/><path class="cls-6" d="M649.61,794.48q5.29,0,6.94-5.53t1.65-16c0-7.29-.55-12.7-1.65-16.2s-3.41-5.27-6.94-5.27-5.85,1.76-7,5.27-1.71,8.91-1.71,16.2c0,7,.55,12.29,1.71,16S646.11,794.48,649.61,794.48ZM670.44,773q0,15-4.66,23.1t-16.17,8.1q-11.5,0-16.17-8.1c-3.07-5.4-4.63-13.1-4.63-23.1s1.56-17.71,4.63-23.14,8.5-8.14,16.17-8.14,13.09,2.71,16.17,8.14S670.44,763,670.44,773Z"/><path class="cls-6" d="M706.19,773.47a10.51,10.51,0,0,0-1.71-4.59c-1.34-1.84-3.38-2.76-6.18-2.76q-6,0-8.22,6a25.54,25.54,0,0,0-1.16,8.44,23.44,23.44,0,0,0,1.16,8.06c1.43,3.79,4.08,5.68,8,5.68,2.77,0,4.75-.75,5.91-2.25a11.64,11.64,0,0,0,2.13-5.85h12.12a20.14,20.14,0,0,1-3.93,10.27q-5.58,7.81-16.54,7.82c-7.27,0-12.66-2.18-16.1-6.52s-5.18-10-5.18-16.92c0-7.82,1.92-13.9,5.72-18.25s9-6.51,15.75-6.51c5.69,0,10.32,1.28,13.94,3.84s5.79,7.09,6.46,13.57Z"/><path class="cls-6" d="M788.4,761.4a12.84,12.84,0,0,1,2.59,5.85,40,40,0,0,1,.43,6.73l-.09,28.69H779.18v-29a9.65,9.65,0,0,0-.83-4.26q-1.59-3.17-5.84-3.17c-3.26,0-5.54,1.36-6.79,4.09a13.41,13.41,0,0,0-1,5.22v27.11H752.84V775.56a15,15,0,0,0-.85-5.89q-1.51-3.3-5.85-3.3c-3.41,0-5.7,1.1-6.85,3.3a12.77,12.77,0,0,0-.95,5.6v27.4h-12V757.23h11.51v6.64a19.53,19.53,0,0,1,4.17-5.06,14.26,14.26,0,0,1,9-2.67,14,14,0,0,1,8.4,2.3,13.13,13.13,0,0,1,3.93,5.47,15.05,15.05,0,0,1,5.79-5.89,17.55,17.55,0,0,1,8.16-1.88,15.83,15.83,0,0,1,5.91,1.17A12.92,12.92,0,0,1,788.4,761.4Z"/><path class="cls-6" d="M1033.67,505.62v-8.1a51.39,51.39,0,0,0,7.85-.76,11,11,0,0,0,5.85-3.17,12.07,12.07,0,0,0,2.77-6.77H1060v60.57h-12.15V505.62Z"/><path class="cls-6" d="M1098.44,539.2a8.28,8.28,0,0,0,6.39-2.46c1.55-1.65,2.31-4,2.31-6.94s-.79-5.43-2.34-7a9.57,9.57,0,0,0-12.7,0q-2.37,2.4-2.37,7a9.87,9.87,0,0,0,2.31,6.94A8.39,8.39,0,0,0,1098.44,539.2Zm-11.94-24.06q-4.38-2.92-5.69-6.33a18.08,18.08,0,0,1-1.31-6.37,14.81,14.81,0,0,1,5-11.25c3.29-3.11,8-4.66,14-4.66s10.68,1.55,14,4.66a14.9,14.9,0,0,1,4.94,11.25,17.65,17.65,0,0,1-1.31,6.37c-.86,2.27-2.77,4.24-5.67,5.91a16.81,16.81,0,0,1,6.7,6.65,19.08,19.08,0,0,1,2.26,9.23,17.26,17.26,0,0,1-5.67,13c-3.74,3.57-9,5.36-15.74,5.36s-11.85-1.79-15.32-5.36a18,18,0,0,1-5.21-13,18.47,18.47,0,0,1,2.32-9.23A14.43,14.43,0,0,1,1086.5,515.14Zm11.94-3.88a7.32,7.32,0,0,0,5.6-2.09,7.56,7.56,0,0,0,2-5.39,7.75,7.75,0,0,0-2-5.62,7.43,7.43,0,0,0-5.6-2,7,7,0,0,0-7.62,7.64,7.06,7.06,0,0,0,7.62,7.48Z"/><path class="cls-6" d="M1128,535.48q2.57-6.06,12-12.82c5.48-3.93,9-6.74,10.63-8.44a12.49,12.49,0,0,0,3.68-8.68,9.73,9.73,0,0,0-2.1-6.4,7.51,7.51,0,0,0-6.09-2.54c-3.59,0-6.06,1.35-7.37,4a20.79,20.79,0,0,0-1.34,7.43h-11.51q.27-7.72,2.77-12.49,4.75-9.06,16.87-9.06c6.4,0,11.45,1.78,15.23,5.33s5.66,8.25,5.66,14.09a19,19,0,0,1-4,11.95,40,40,0,0,1-8.61,7.73l-4.75,3.38c-3,2.11-5,3.65-6.1,4.59a13.51,13.51,0,0,0-2.77,3.3h26.34v10.49h-41.32A28.48,28.48,0,0,1,1128,535.48Z"/><path class="cls-6" d="M1202.64,518.19a10.47,10.47,0,0,0-1.71-4.59c-1.34-1.84-3.38-2.76-6.18-2.76q-6,0-8.22,6a25.54,25.54,0,0,0-1.16,8.44,23.44,23.44,0,0,0,1.16,8.06c1.43,3.79,4.08,5.68,8,5.68,2.77,0,4.75-.75,5.9-2.25a11.63,11.63,0,0,0,2.14-5.85h12.12a20.17,20.17,0,0,1-3.93,10.27q-5.58,7.82-16.54,7.81c-7.27,0-12.66-2.17-16.11-6.51s-5.17-10-5.17-16.92c0-7.82,1.92-13.91,5.72-18.25s9-6.52,15.75-6.52c5.69,0,10.32,1.29,13.94,3.85s5.79,7.08,6.46,13.57Z"/><path class="cls-6" d="M1284.85,506.12a13,13,0,0,1,2.59,5.85,41,41,0,0,1,.43,6.72l-.09,28.7h-12.15v-29a9.59,9.59,0,0,0-.83-4.26Q1273.21,511,1269,511c-3.26,0-5.54,1.37-6.79,4.1a13.41,13.41,0,0,0-1,5.22v27.11h-11.93V520.28a14.7,14.7,0,0,0-.86-5.89q-1.5-3.3-5.84-3.3c-3.41,0-5.7,1.1-6.85,3.3a12.74,12.74,0,0,0-1,5.6v27.4h-12V501.94h11.51v6.64a19.66,19.66,0,0,1,4.18-5.05,14.24,14.24,0,0,1,9-2.67,14,14,0,0,1,8.4,2.3,13.13,13.13,0,0,1,3.93,5.47,14.92,14.92,0,0,1,5.79-5.89,17.43,17.43,0,0,1,8.16-1.88,15.75,15.75,0,0,1,5.9,1.17A12.88,12.88,0,0,1,1284.85,506.12Z"/><path class="cls-6" d="M1610.17,830.19v-8.1a53.12,53.12,0,0,0,7.85-.75,11,11,0,0,0,5.85-3.18,10.16,10.16,0,0,0,2.31-4.34,9.81,9.81,0,0,0,.46-2.42h9.86V872h-12.14V830.19Z"/><path class="cls-6" d="M1675.51,863.86a7.42,7.42,0,0,0,6.24-3,12.34,12.34,0,0,0,2.26-7.75c0-3.53-.86-6.24-2.56-8.12a8.29,8.29,0,0,0-6.33-2.82,8.42,8.42,0,0,0-5.39,1.84c-2.32,1.81-3.51,4.73-3.51,8.77a11.81,11.81,0,0,0,2.65,8A8.3,8.3,0,0,0,1675.51,863.86Zm7.43-37.22a6,6,0,0,0-1.12-3.22,6.51,6.51,0,0,0-5.79-2.83c-3.87,0-6.61,2.17-8.25,6.51a40.73,40.73,0,0,0-1.83,10.61,13.24,13.24,0,0,1,5.12-3.84,18.73,18.73,0,0,1,19.85,4.26q5.11,5.48,5.12,14a23.7,23.7,0,0,1-5,15c-3.35,4.32-8.59,6.48-15.65,6.48q-11.41,0-16.81-9.57-4.2-7.47-4.2-19.3a85.89,85.89,0,0,1,.58-11.27,34.54,34.54,0,0,1,4-12.87,20.94,20.94,0,0,1,6.76-7,18.23,18.23,0,0,1,10-2.68q8.4,0,13.39,4.33a16.43,16.43,0,0,1,5.64,11.5Z"/><path class="cls-6" d="M1722.56,863.77q5.3,0,6.94-5.53t1.64-16c0-7.29-.54-12.7-1.64-16.2s-3.41-5.27-6.94-5.27-5.85,1.76-7,5.27-1.7,8.91-1.7,16.2c0,7,.55,12.29,1.7,16S1719.06,863.77,1722.56,863.77Zm20.83-21.51q0,15-4.66,23.1t-16.17,8.1q-11.52,0-16.17-8.1t-4.63-23.1q0-15,4.63-23.14t16.17-8.14q11.55,0,16.17,8.14T1743.39,842.26Z"/><path class="cls-6" d="M1779.13,842.77a10.5,10.5,0,0,0-1.7-4.6c-1.34-1.84-3.38-2.76-6.18-2.76q-6,0-8.22,6a25.27,25.27,0,0,0-1.16,8.44,23.2,23.2,0,0,0,1.16,8.06c1.43,3.79,4.08,5.68,8,5.68q4.17,0,5.91-2.25a11.46,11.46,0,0,0,2.13-5.85h12.12a20,20,0,0,1-3.93,10.28q-5.57,7.8-16.53,7.81c-7.28,0-12.67-2.18-16.11-6.52s-5.17-10-5.17-16.91q0-11.75,5.72-18.26c3.81-4.34,9-6.51,15.74-6.51,5.7,0,10.33,1.28,13.95,3.84s5.78,7.09,6.45,13.58Z"/><path class="cls-6" d="M1861.35,830.69a13,13,0,0,1,2.59,5.85,41.3,41.3,0,0,1,.42,6.73l-.09,28.69h-12.15V843a9.66,9.66,0,0,0-.82-4.26q-1.59-3.16-5.84-3.17c-3.26,0-5.55,1.36-6.8,4.09a13.6,13.6,0,0,0-.94,5.22V872h-11.94V844.85a14.76,14.76,0,0,0-.85-5.89q-1.5-3.3-5.85-3.3-5.11,0-6.85,3.3a12.79,12.79,0,0,0-.94,5.6V872h-12V826.52h11.51v6.64a19.53,19.53,0,0,1,4.17-5.06,14.29,14.29,0,0,1,9-2.67,14.09,14.09,0,0,1,8.4,2.3,13.13,13.13,0,0,1,3.93,5.47,15,15,0,0,1,5.78-5.89,17.62,17.62,0,0,1,8.17-1.88,15.82,15.82,0,0,1,5.9,1.17A12.88,12.88,0,0,1,1861.35,830.69Z"/><path class="cls-6" d="M2158,651.5v-8.11a51.75,51.75,0,0,0,7.85-.75,11.08,11.08,0,0,0,5.85-3.17,10.15,10.15,0,0,0,2.31-4.35,9.73,9.73,0,0,0,.46-2.42h9.87v60.56h-12.15V651.5Z"/><path class="cls-6" d="M2244.52,642.81a71.91,71.91,0,0,0-7.43,9.38,76.94,76.94,0,0,0-12.52,27.71,56.84,56.84,0,0,0-2,13.36H2210.2q.54-16.29,10.66-33.87,6.53-10.9,11-15.2H2201.7l.19-10.69h42.63Z"/><path class="cls-6" d="M2261,677.06a11.83,11.83,0,0,0,2.71,6,7.69,7.69,0,0,0,5.85,2.11,7.84,7.84,0,0,0,6.7-3.11,12.74,12.74,0,0,0,2.31-7.83,13.56,13.56,0,0,0-2.16-7.84c-1.43-2.12-3.69-3.19-6.73-3.19a11.52,11.52,0,0,0-3.75.54,7.48,7.48,0,0,0-4.2,3.72l-10.66-.5,4.24-33.45h33.25v10.1h-24.67l-2.16,13.24a25.54,25.54,0,0,1,4.26-2.38,18.33,18.33,0,0,1,6.31-1,18.82,18.82,0,0,1,13.06,5.06q5.58,5,5.57,14.7a23,23,0,0,1-5.36,15q-5.39,6.6-16.07,6.6-8.59,0-14.16-4.64t-6.15-13.15Z"/><path class="cls-6" d="M2327,664.07a10.68,10.68,0,0,0-1.71-4.6c-1.34-1.83-3.38-2.75-6.18-2.75q-6,0-8.22,6a25.54,25.54,0,0,0-1.16,8.44,23.48,23.48,0,0,0,1.16,8.06c1.43,3.78,4.08,5.68,8,5.68,2.77,0,4.75-.75,5.9-2.26a11.55,11.55,0,0,0,2.14-5.84h12.11a20.07,20.07,0,0,1-3.92,10.27q-5.58,7.82-16.54,7.81c-7.28,0-12.67-2.17-16.11-6.52s-5.17-10-5.17-16.91c0-7.82,1.92-13.91,5.72-18.25s9.05-6.52,15.74-6.52c5.7,0,10.33,1.28,13.95,3.84s5.79,7.09,6.46,13.58Z"/><path class="cls-6" d="M2409.22,652a12.86,12.86,0,0,1,2.59,5.84,41.25,41.25,0,0,1,.43,6.73l-.09,28.69H2400v-29a9.59,9.59,0,0,0-.83-4.26q-1.59-3.18-5.84-3.18c-3.26,0-5.54,1.37-6.79,4.09a13.42,13.42,0,0,0-.95,5.23v27.1h-11.93v-27.1a14.7,14.7,0,0,0-.86-5.89q-1.5-3.3-5.84-3.3c-3.41,0-5.7,1.1-6.85,3.3a12.69,12.69,0,0,0-1,5.59v27.4h-12V647.82h11.51v6.64a19.48,19.48,0,0,1,4.18-5.05,16.44,16.44,0,0,1,17.35-.38,13.19,13.19,0,0,1,3.93,5.47,15.05,15.05,0,0,1,5.79-5.89,17.54,17.54,0,0,1,8.16-1.87,15.55,15.55,0,0,1,5.9,1.17A12.79,12.79,0,0,1,2409.22,652Z"/></g></svg>